<svg width="16" height="16" viewBox="0 0 16 16" fill="none" xmlns="http://www.w3.org/2000/svg">
<mask id="mask0_2724_8673" style="mask-type:alpha" maskUnits="userSpaceOnUse" x="0" y="0" width="16" height="16">
<rect width="16" height="16" fill="#D9D9D9"/>
</mask>
<g mask="url(#mask0_2724_8673)">
<path d="M9.26511 8.00335L5.20068 3.93892C5.06243 3.80067 4.99561 3.63708 5.00022 3.44814C5.00483 3.25921 5.07626 3.09561 5.2145 2.95737C5.35275 2.81912 5.51634 2.75 5.70528 2.75C5.89421 2.75 6.0578 2.81912 6.19605 2.95737L10.4402 7.21534C10.5508 7.32594 10.6337 7.45036 10.689 7.58861C10.7443 7.72685 10.772 7.8651 10.772 8.00335C10.772 8.14159 10.7443 8.27984 10.689 8.41808C10.6337 8.55633 10.5508 8.68075 10.4402 8.79135L6.18223 13.0493C6.04398 13.1876 5.88269 13.2544 5.69836 13.2498C5.51404 13.2452 5.35275 13.1737 5.2145 13.0355C5.07626 12.8973 5.00714 12.7337 5.00714 12.5447C5.00714 12.3558 5.07626 12.1922 5.2145 12.054L9.26511 8.00335Z" fill="white"/>
</g>
</svg>
