<svg width="40" height="40" viewBox="0 0 40 40" fill="none" xmlns="http://www.w3.org/2000/svg">
<path d="M19.9836 4C23.297 3.99829 26.6105 5.24706 29.1574 7.74414C34.4593 12.9448 34.1014 21.9287 28.8635 27.1934C26.1156 29.9554 23.0137 33.21 21.301 35.0205C20.5877 35.7745 19.389 35.7746 18.674 35.0205C16.9576 33.2116 13.8525 29.9564 11.1047 27.1943C5.86512 21.9297 5.50725 12.9448 10.8107 7.74414C13.3559 5.24698 16.67 4 19.9836 4ZM19.9846 13.2129C17.8363 13.213 16.0949 14.9553 16.0949 17.1035C16.0952 19.2515 17.8365 20.9931 19.9846 20.9932C22.1327 20.9932 23.874 19.2516 23.8742 17.1035C23.8742 14.9552 22.1328 13.2129 19.9846 13.2129Z" fill="#84C3FF"/>
</svg>
