<svg width="40" height="40" viewBox="0 0 40 40" fill="none" xmlns="http://www.w3.org/2000/svg">
<g clip-path="url(#clip0_1160_21406)">
<path d="M18.2734 38.44C17.5834 38.44 17.0234 37.88 17.0234 37.19V14.145C17.0234 13.455 17.5834 12.895 18.2734 12.895C18.9634 12.895 19.5234 13.455 19.5234 14.145V37.191C19.5234 37.881 18.9634 38.441 18.2734 38.441V38.44Z" fill="#4E5968"/>
<path d="M11.812 38.3331C11.6 38.3331 11.385 38.2791 11.188 38.1661C10.59 37.8201 10.385 37.0561 10.73 36.4581L17.191 25.2681C17.536 24.6691 18.302 24.4661 18.899 24.8101C19.497 25.1561 19.702 25.9201 19.357 26.5181L12.896 37.7081C12.665 38.1091 12.244 38.3331 11.813 38.3331H11.812Z" fill="#4E5968"/>
<path d="M24.7349 38.3331C24.3029 38.3331 23.8829 38.1091 23.6519 37.7081L17.1919 26.5181C16.8469 25.9201 17.0519 25.1561 17.6499 24.8101C18.2459 24.4661 19.0119 24.6691 19.3579 25.2681L25.8179 36.4581C26.1629 37.0561 25.9579 37.8201 25.3599 38.1661C25.1629 38.2791 24.9479 38.3331 24.7359 38.3331H24.7349Z" fill="#4E5968"/>
<path d="M5.12744 23.0996L13.8642 20.7586C14.4511 20.6013 14.7993 19.9982 14.6421 19.4114L12.7555 12.3707C12.5983 11.7839 11.9951 11.4357 11.4083 11.5929L2.67151 13.9339C2.08469 14.0912 1.73645 14.6943 1.89369 15.2811L3.78022 22.3218C3.93746 22.9086 4.54063 23.2568 5.12744 23.0996Z" fill="#8595AA"/>
<path d="M14.0223 21.9668L24.6543 19.118C25.2411 18.9607 25.5893 18.3575 25.4321 17.7707L22.8558 8.15591C22.6986 7.5691 22.0954 7.22085 21.5086 7.37809L10.8766 10.2269C10.2898 10.3841 9.94159 10.9873 10.0988 11.5741L12.6751 21.189C12.8323 21.7758 13.4355 22.124 14.0223 21.9668Z" fill="#ABB7C7"/>
<path d="M24.8667 20.3767L37.331 17.0369C37.9178 16.8797 38.2661 16.2765 38.1089 15.6897L34.8759 3.6243C34.7187 3.03749 34.1155 2.68925 33.5287 2.84648L21.0644 6.18628C20.4776 6.34352 20.1294 6.94669 20.2866 7.5335L23.5195 19.5989C23.6767 20.1857 24.2799 20.5339 24.8667 20.3767Z" fill="#D0D6DE"/>
<path d="M20.0902 27.1431H16.3242C15.6342 27.1431 15.0742 26.5831 15.0742 25.8931C15.0742 25.2031 15.6342 24.6431 16.3242 24.6431H20.0902C20.7802 24.6431 21.3402 25.2031 21.3402 25.8931C21.3402 26.5831 20.7802 27.1431 20.0902 27.1431Z" fill="#6B7683"/>
</g>
<defs>
<clipPath id="clip0_1160_21406">
<rect width="40" height="40" fill="white"/>
</clipPath>
</defs>
</svg>
