<svg width="27" height="37" viewBox="0 0 27 37" fill="none" xmlns="http://www.w3.org/2000/svg">
<rect x="0.85" y="3.35" width="24.3667" height="32.3" rx="2.55" fill="#F6FAFD" stroke="#1E2228" stroke-width="1.7"/>
<path d="M0 5.9C0 4.02223 1.52223 2.5 3.4 2.5H22.6667C24.5444 2.5 26.0667 4.02223 26.0667 5.9V11.5667H0V5.9Z" fill="#1E2228"/>
<path d="M17.0664 1.63333C17.0664 1.00741 17.5738 0.5 18.1997 0.5C18.8257 0.5 19.3331 1.00741 19.3331 1.63333V7.3H17.0664V1.63333Z" fill="#1E2228"/>
<path d="M6.7998 1.63333C6.7998 1.00741 7.30722 0.5 7.93314 0.5C8.55906 0.5 9.06647 1.00741 9.06647 1.63333V7.3H6.7998V1.63333Z" fill="#1E2228"/>
<path d="M24.9331 31.7793L24.9331 34.046L1.13311 34.046L1.13311 31.7793L24.9331 31.7793Z" fill="#1E2228"/>
<path d="M12.1273 28.7792C11.8673 28.7792 11.7273 28.6392 11.7273 28.3792V18.5192L9.92729 19.2392C9.64729 19.3592 9.46729 19.2392 9.46729 18.9392V16.3192C9.46729 16.0992 9.56729 15.9392 9.76729 15.8392L12.0273 14.8392C12.1873 14.7592 12.3473 14.7192 12.5273 14.7192H14.8273C15.0873 14.7192 15.2273 14.8592 15.2273 15.1192V28.3792C15.2273 28.6392 15.0873 28.7792 14.8273 28.7792H12.1273Z" fill="#1E2228"/>
</svg>
