<svg width="27" height="36" viewBox="0 0 27 36" fill="none" xmlns="http://www.w3.org/2000/svg">
<rect x="0.85" y="2.85" width="24.3667" height="32.3" rx="2.55" fill="#F6FAFD" stroke="#1E2228" stroke-width="1.7"/>
<path d="M0 5.4C0 3.52223 1.52223 2 3.4 2H22.6667C24.5444 2 26.0667 3.52223 26.0667 5.4V11.0667H0V5.4Z" fill="#1E2228"/>
<path d="M17.0664 1.13333C17.0664 0.50741 17.5738 0 18.1997 0C18.8257 0 19.3331 0.507411 19.3331 1.13333V6.8H17.0664V1.13333Z" fill="#1E2228"/>
<path d="M6.7998 1.13333C6.7998 0.50741 7.30722 0 7.93314 0C8.55906 0 9.06647 0.507411 9.06647 1.13333V6.8H6.7998V1.13333Z" fill="#1E2228"/>
<path d="M24.9331 31.2793L24.9331 33.546L1.13311 33.546L1.13311 31.2793L24.9331 31.2793Z" fill="#1E2228"/>
<path d="M6.76168 26.8607C6.52768 26.8607 6.40168 26.7347 6.40168 26.5007V17.6267L4.78168 18.2747C4.52968 18.3827 4.36768 18.2747 4.36768 18.0047V15.6467C4.36768 15.4487 4.45768 15.3047 4.63768 15.2147L6.67168 14.3147C6.81568 14.2427 6.95968 14.2067 7.12168 14.2067H9.19168C9.42568 14.2067 9.55168 14.3327 9.55168 14.5667V26.5007C9.55168 26.7347 9.42568 26.8607 9.19168 26.8607H6.76168Z" fill="#1E2228"/>
<path d="M16.5047 27.0767C13.0667 27.0767 10.9067 24.5387 10.9067 20.5067C10.9067 16.4927 13.0667 13.9727 16.5047 13.9727C19.9247 13.9727 22.0847 16.4927 22.0847 20.5067C22.0847 24.5387 19.9247 27.0767 16.5047 27.0767ZM16.5047 23.9807C17.9087 23.9807 18.7907 22.6487 18.7907 20.5247C18.7907 18.4007 17.9087 17.0687 16.5047 17.0687C15.0827 17.0687 14.2007 18.4007 14.2007 20.5247C14.2007 22.6487 15.0827 23.9807 16.5047 23.9807Z" fill="#1E2228"/>
</svg>
