<svg width="27" height="36" viewBox="0 0 27 36" fill="none" xmlns="http://www.w3.org/2000/svg">
<rect x="0.85" y="2.85024" width="24.3667" height="32.3" rx="2.55" fill="#F6FAFD" stroke="#1E2228" stroke-width="1.7"/>
<path d="M0 5.40024C0 3.52247 1.52223 2.00024 3.4 2.00024H22.6667C24.5444 2.00024 26.0667 3.52248 26.0667 5.40024V11.0669H0V5.40024Z" fill="#1E2228"/>
<path d="M17.0664 1.13358C17.0664 0.507654 17.5738 0.000244141 18.1997 0.000244141C18.8257 0.000244141 19.3331 0.507655 19.3331 1.13358V6.80024H17.0664V1.13358Z" fill="#1E2228"/>
<path d="M6.7998 1.13358C6.7998 0.507654 7.30722 0.000244141 7.93314 0.000244141C8.55906 0.000244141 9.06647 0.507655 9.06647 1.13358V6.80024H6.7998V1.13358Z" fill="#1E2228"/>
<path d="M24.9331 31.2795L24.9331 33.5462L1.13311 33.5462L1.13311 31.2795L24.9331 31.2795Z" fill="#1E2228"/>
<path d="M9.3268 27.6737C9.0798 27.6737 8.9468 27.5407 8.9468 27.2937V17.9267L7.2368 18.6107C6.9708 18.7247 6.7998 18.6107 6.7998 18.3257V15.8367C6.7998 15.6277 6.8948 15.4757 7.0848 15.3807L9.2318 14.4307C9.3838 14.3546 9.5358 14.3167 9.7068 14.3167H11.8918C12.1388 14.3167 12.2718 14.4496 12.2718 14.6967V27.2937C12.2718 27.5407 12.1388 27.6737 11.8918 27.6737H9.3268Z" fill="#1E2228"/>
<path d="M15.6591 27.6737C15.4121 27.6737 15.2791 27.5407 15.2791 27.2937V17.9267L13.5691 18.6107C13.3031 18.7247 13.1321 18.6107 13.1321 18.3257V15.8367C13.1321 15.6277 13.2271 15.4757 13.4171 15.3807L15.5641 14.4307C15.7161 14.3546 15.8681 14.3167 16.0391 14.3167H18.2241C18.4711 14.3167 18.6041 14.4496 18.6041 14.6967V27.2937C18.6041 27.5407 18.4711 27.6737 18.2241 27.6737H15.6591Z" fill="#1E2228"/>
</svg>
