<svg width="27" height="36" viewBox="0 0 27 36" fill="none" xmlns="http://www.w3.org/2000/svg">
<rect x="0.85" y="2.85" width="24.3667" height="32.3" rx="2.55" fill="#F6FAFD" stroke="#1E2228" stroke-width="1.7"/>
<path d="M0 5.4C0 3.52223 1.52223 2 3.4 2H22.6667C24.5444 2 26.0667 3.52223 26.0667 5.4V11.0667H0V5.4Z" fill="#1E2228"/>
<path d="M17.0664 1.13333C17.0664 0.50741 17.5738 0 18.1997 0C18.8257 0 19.3331 0.507411 19.3331 1.13333V6.8H17.0664V1.13333Z" fill="#1E2228"/>
<path d="M6.7998 1.13333C6.7998 0.50741 7.30722 0 7.93314 0C8.55906 0 9.06647 0.507411 9.06647 1.13333V6.8H6.7998V1.13333Z" fill="#1E2228"/>
<path d="M24.9331 31.2793L24.9331 33.546L1.13311 33.546L1.13311 31.2793L24.9331 31.2793Z" fill="#1E2228"/>
<path d="M7.96987 27.6728C7.72287 27.6728 7.58987 27.5398 7.58987 27.2928V17.9258L5.87987 18.6098C5.61387 18.7238 5.44287 18.6098 5.44287 18.3248V15.8358C5.44287 15.6268 5.53787 15.4748 5.72787 15.3798L7.87487 14.4298C8.02687 14.3538 8.17887 14.3158 8.34987 14.3158H10.5349C10.7819 14.3158 10.9149 14.4488 10.9149 14.6958V27.2928C10.9149 27.5398 10.7819 27.6728 10.5349 27.6728H7.96987Z" fill="#1E2228"/>
<path d="M12.1552 27.6728C11.9082 27.6728 11.7752 27.5398 11.7752 27.2928V25.4688C11.7752 25.2788 11.8322 25.1268 11.9652 24.9938L15.8982 20.9658C16.6012 20.2248 17.5702 19.2178 17.5702 18.3628C17.5702 17.6788 17.1712 17.2228 16.3352 17.2228C15.6892 17.2228 15.1382 17.6598 14.8152 18.3058C14.7012 18.5338 14.5492 18.6098 14.3212 18.5148L12.2502 17.5648C12.0222 17.4698 11.9462 17.2988 12.0602 17.0708C13.0102 14.9808 14.6822 14.0308 16.5822 14.0308C19.3372 14.0308 21.0472 16.0638 21.0472 18.1918C21.0472 20.3388 19.9262 21.7258 18.5012 22.9798L16.6772 24.5758H20.6102C20.8572 24.5758 20.9902 24.7088 20.9902 24.9558V27.2928C20.9902 27.5398 20.8572 27.6728 20.6102 27.6728H12.1552Z" fill="#1E2228"/>
</svg>
