<svg width="27" height="37" viewBox="0 0 27 37" fill="none" xmlns="http://www.w3.org/2000/svg">
<rect x="0.85" y="3.35024" width="24.3667" height="32.3" rx="2.55" fill="#F6FAFD" stroke="#1E2228" stroke-width="1.7"/>
<path d="M0 5.90024C0 4.02247 1.52223 2.50024 3.4 2.50024H22.6667C24.5444 2.50024 26.0667 4.02248 26.0667 5.90024V11.5669H0V5.90024Z" fill="#1E2228"/>
<path d="M17.0664 1.63358C17.0664 1.00765 17.5738 0.500244 18.1997 0.500244C18.8257 0.500244 19.3331 1.00765 19.3331 1.63358V7.30024H17.0664V1.63358Z" fill="#1E2228"/>
<path d="M6.7998 1.63358C6.7998 1.00765 7.30722 0.500244 7.93314 0.500244C8.55906 0.500244 9.06647 1.00765 9.06647 1.63358V7.30024H6.7998V1.63358Z" fill="#1E2228"/>
<path d="M24.9331 31.7795L24.9331 34.0462L1.13311 34.0462L1.13311 31.7795L24.9331 31.7795Z" fill="#1E2228"/>
<path d="M8.71689 28.7797C8.45689 28.7797 8.31689 28.6397 8.31689 28.3797V26.4597C8.31689 26.2597 8.37689 26.0997 8.51689 25.9597L12.6569 21.7197C13.3969 20.9397 14.4169 19.8797 14.4169 18.9797C14.4169 18.2597 13.9969 17.7797 13.1169 17.7797C12.4369 17.7797 11.8569 18.2397 11.5169 18.9197C11.3969 19.1597 11.2369 19.2397 10.9969 19.1397L8.81689 18.1397C8.57689 18.0397 8.49689 17.8597 8.61689 17.6197C9.61689 15.4197 11.3769 14.4197 13.3769 14.4197C16.2769 14.4197 18.0769 16.5597 18.0769 18.7997C18.0769 21.0597 16.8969 22.5197 15.3969 23.8397L13.4769 25.5197H17.6169C17.8769 25.5197 18.0169 25.6597 18.0169 25.9197V28.3797C18.0169 28.6397 17.8769 28.7797 17.6169 28.7797H8.71689Z" fill="#1E2228"/>
</svg>
