<svg width="27" height="37" viewBox="0 0 27 37" fill="none" xmlns="http://www.w3.org/2000/svg">
<rect x="0.85" y="3.35" width="24.3667" height="32.3" rx="2.55" fill="#F6FAFD" stroke="#1E2228" stroke-width="1.7"/>
<path d="M0 5.9C0 4.02223 1.52223 2.5 3.4 2.5H22.6667C24.5444 2.5 26.0667 4.02223 26.0667 5.9V11.5667H0V5.9Z" fill="#1E2228"/>
<path d="M17.0664 1.63333C17.0664 1.00741 17.5738 0.5 18.1997 0.5C18.8257 0.5 19.3331 1.00741 19.3331 1.63333V7.3H17.0664V1.63333Z" fill="#1E2228"/>
<path d="M6.7998 1.63333C6.7998 1.00741 7.30722 0.5 7.93314 0.5C8.55906 0.5 9.06647 1.00741 9.06647 1.63333V7.3H6.7998V1.63333Z" fill="#1E2228"/>
<path d="M24.9331 31.7793L24.9331 34.046L1.13311 34.046L1.13311 31.7793L24.9331 31.7793Z" fill="#1E2228"/>
<path d="M13.2422 29.0392C10.9222 29.0392 8.90221 27.7792 8.22221 25.9192C8.14221 25.6792 8.22221 25.4992 8.44221 25.3992L10.6422 24.4192C10.8822 24.2992 11.0422 24.3792 11.1822 24.5992C11.6422 25.3392 12.3622 25.8392 13.0022 25.8392C13.9822 25.8392 14.6622 25.1792 14.6622 24.2592C14.6622 23.4392 14.1622 22.8592 12.7622 22.8592H11.7822C11.5222 22.8592 11.3822 22.7192 11.3822 22.4592V20.5992C11.3822 20.3992 11.4422 20.2592 11.5822 20.1192L13.7222 18.0792H9.46221C9.20221 18.0792 9.06221 17.9392 9.06221 17.6792V15.1192C9.06221 14.8592 9.20221 14.7192 9.46221 14.7192H17.0622C17.3222 14.7192 17.4622 14.8592 17.4622 15.1192V17.7392C17.4622 17.9392 17.4022 18.0792 17.2622 18.2392L15.0222 20.4992C17.3422 20.9192 18.3022 22.9392 18.3022 24.3992C18.3022 27.1192 16.2022 29.0392 13.2422 29.0392Z" fill="#1E2228"/>
</svg>
