<svg width="27" height="37" viewBox="0 0 27 37" fill="none" xmlns="http://www.w3.org/2000/svg">
<rect x="0.85" y="3.18325" width="24.3667" height="32.3" rx="2.55" fill="#F6FAFD" stroke="#1E2228" stroke-width="1.7"/>
<path d="M0 5.73325C0 3.85548 1.52223 2.33325 3.4 2.33325H22.6667C24.5444 2.33325 26.0667 3.85548 26.0667 5.73325V11.3999H0V5.73325Z" fill="#1E2228"/>
<path d="M17.0664 1.46658C17.0664 0.840662 17.5738 0.333252 18.1997 0.333252C18.8257 0.333252 19.3331 0.840663 19.3331 1.46659V7.13325H17.0664V1.46658Z" fill="#1E2228"/>
<path d="M6.7998 1.46658C6.7998 0.840662 7.30722 0.333252 7.93314 0.333252C8.55906 0.333252 9.06647 0.840663 9.06647 1.46659V7.13325H6.7998V1.46658Z" fill="#1E2228"/>
<path d="M24.9331 31.6125L24.9331 33.8792L1.13311 33.8792L1.13311 31.6125L24.9331 31.6125Z" fill="#1E2228"/>
<path d="M14.21 28.613C13.95 28.613 13.81 28.473 13.81 28.213V26.233H7.62998C7.36998 26.233 7.22998 26.093 7.22998 25.833V23.993C7.22998 23.813 7.28998 23.673 7.38998 23.513L13.41 14.813C13.53 14.633 13.69 14.553 13.89 14.553H16.81C17.07 14.553 17.21 14.693 17.21 14.953V23.333H18.37C18.63 23.333 18.77 23.473 18.77 23.733V25.833C18.77 26.093 18.63 26.233 18.37 26.233H17.21V28.213C17.21 28.473 17.07 28.613 16.81 28.613H14.21ZM10.95 23.333H13.81V18.893L10.95 23.333Z" fill="#1E2228"/>
</svg>
