<svg width="27" height="37" viewBox="0 0 27 37" fill="none" xmlns="http://www.w3.org/2000/svg">
<rect x="0.85" y="3.1835" width="24.3667" height="32.3" rx="2.55" fill="#F6FAFD" stroke="#1E2228" stroke-width="1.7"/>
<path d="M0 5.73349C0 3.85573 1.52223 2.3335 3.4 2.3335H22.6667C24.5444 2.3335 26.0667 3.85573 26.0667 5.7335V11.4002H0V5.73349Z" fill="#1E2228"/>
<path d="M17.0664 1.46683C17.0664 0.840906 17.5738 0.333496 18.1997 0.333496C18.8257 0.333496 19.3331 0.840907 19.3331 1.46683V7.1335H17.0664V1.46683Z" fill="#1E2228"/>
<path d="M6.7998 1.46683C6.7998 0.840906 7.30722 0.333496 7.93314 0.333496C8.55906 0.333496 9.06647 0.840907 9.06647 1.46683V7.1335H6.7998V1.46683Z" fill="#1E2228"/>
<path d="M24.9331 31.6128L24.9331 33.8795L1.13311 33.8795L1.13311 31.6128L24.9331 31.6128Z" fill="#1E2228"/>
<path d="M12.9108 28.8727C10.7708 28.8727 9.07082 27.8727 8.13082 25.7127C8.01082 25.4727 8.09082 25.2927 8.33082 25.1927L10.5308 24.1527C10.7708 24.0527 10.9508 24.1127 11.0708 24.3527C11.4508 25.1327 12.0108 25.6127 12.8908 25.6127C13.8908 25.6127 14.5908 24.8327 14.5908 23.7527C14.5908 22.9127 13.9308 22.2327 12.9508 22.2327C12.3108 22.2327 11.8108 22.4727 11.5308 22.8727C11.3908 23.0527 11.2708 23.1527 11.0508 23.1527H8.63082C8.37082 23.1527 8.21082 23.0127 8.23082 22.7527L8.81082 14.9327C8.83082 14.6727 8.97082 14.5527 9.23082 14.5527H16.6308C16.8908 14.5527 17.0308 14.6927 17.0308 14.9527V17.5127C17.0308 17.7727 16.8908 17.9127 16.6308 17.9127H11.8508L11.6908 20.1327C12.1908 19.6527 12.9708 19.4327 13.7708 19.4327C16.3908 19.4327 18.1708 21.2727 18.1708 23.8127C18.1708 26.9727 15.8108 28.8727 12.9108 28.8727Z" fill="#1E2228"/>
</svg>
