<svg width="27" height="37" viewBox="0 0 27 37" fill="none" xmlns="http://www.w3.org/2000/svg">
<rect x="0.85" y="3.18325" width="24.3667" height="32.3" rx="2.55" fill="#F6FAFD" stroke="#1E2228" stroke-width="1.7"/>
<path d="M0 5.73325C0 3.85548 1.52223 2.33325 3.4 2.33325H22.6667C24.5444 2.33325 26.0667 3.85548 26.0667 5.73325V11.3999H0V5.73325Z" fill="#1E2228"/>
<path d="M17.0664 1.46658C17.0664 0.840662 17.5738 0.333252 18.1997 0.333252C18.8257 0.333252 19.3331 0.840663 19.3331 1.46659V7.13325H17.0664V1.46658Z" fill="#1E2228"/>
<path d="M6.7998 1.46658C6.7998 0.840662 7.30722 0.333252 7.93314 0.333252C8.55906 0.333252 9.06647 0.840663 9.06647 1.46659V7.13325H6.7998V1.46658Z" fill="#1E2228"/>
<path d="M24.9331 31.6125L24.9331 33.8792L1.13311 33.8792L1.13311 31.6125L24.9331 31.6125Z" fill="#1E2228"/>
<path d="M13.0096 28.913C10.1896 28.913 7.88965 26.593 7.88965 23.773C7.88965 22.513 8.34965 21.293 8.92965 20.333L12.2896 14.833C12.3896 14.633 12.5496 14.553 12.7696 14.553H15.7896C16.1096 14.553 16.2296 14.753 16.0496 15.033L13.5296 19.053C13.6896 19.033 13.8296 19.013 13.9896 19.013C16.1696 19.013 18.1096 20.893 18.1096 23.773C18.1096 26.593 15.8296 28.913 13.0096 28.913ZM13.0096 25.713C14.0096 25.713 14.8096 24.853 14.8096 23.833C14.8096 22.753 14.0096 21.893 13.0096 21.893C12.0096 21.893 11.2096 22.753 11.2096 23.833C11.2096 24.853 12.0096 25.713 13.0096 25.713Z" fill="#1E2228"/>
</svg>
