<svg width="27" height="37" viewBox="0 0 27 37" fill="none" xmlns="http://www.w3.org/2000/svg">
<rect x="0.85" y="3.01675" width="24.3667" height="32.3" rx="2.55" fill="#F6FAFD" stroke="#1E2228" stroke-width="1.7"/>
<path d="M0 5.56675C0 3.68898 1.52223 2.16675 3.4 2.16675H22.6667C24.5444 2.16675 26.0667 3.68898 26.0667 5.56675V11.2334H0V5.56675Z" fill="#1E2228"/>
<path d="M17.0664 1.30008C17.0664 0.674158 17.5738 0.166748 18.1997 0.166748C18.8257 0.166748 19.3331 0.674159 19.3331 1.30008V6.96675H17.0664V1.30008Z" fill="#1E2228"/>
<path d="M6.7998 1.30008C6.7998 0.674158 7.30722 0.166748 7.93314 0.166748C8.55906 0.166748 9.06647 0.674159 9.06647 1.30008V6.96675H6.7998V1.30008Z" fill="#1E2228"/>
<path d="M24.9331 31.446L24.9331 33.7127L1.13311 33.7127L1.13311 31.446L24.9331 31.446Z" fill="#1E2228"/>
<path d="M10.1053 28.4457C9.80525 28.4457 9.68525 28.2457 9.80525 27.9657L14.0853 17.7457H9.28525C9.02525 17.7457 8.88525 17.6057 8.88525 17.3457V14.7857C8.88525 14.5257 9.02525 14.3857 9.28525 14.3857H17.7053C17.9653 14.3857 18.1053 14.5257 18.1053 14.7857V17.1057C18.1053 17.2857 18.0853 17.4257 18.0053 17.6057L13.5853 28.1257C13.4853 28.3457 13.3453 28.4457 13.1253 28.4457H10.1053Z" fill="#1E2228"/>
</svg>
