<svg width="27" height="37" viewBox="0 0 27 37" fill="none" xmlns="http://www.w3.org/2000/svg">
<rect x="0.85" y="3.01675" width="24.3667" height="32.3" rx="2.55" fill="#F6FAFD" stroke="#1E2228" stroke-width="1.7"/>
<path d="M0 5.56675C0 3.68898 1.52223 2.16675 3.4 2.16675H22.6667C24.5444 2.16675 26.0667 3.68898 26.0667 5.56675V11.2334H0V5.56675Z" fill="#1E2228"/>
<path d="M17.0664 1.30008C17.0664 0.674158 17.5738 0.166748 18.1997 0.166748C18.8257 0.166748 19.3331 0.674159 19.3331 1.30008V6.96675H17.0664V1.30008Z" fill="#1E2228"/>
<path d="M6.7998 1.30008C6.7998 0.674158 7.30722 0.166748 7.93314 0.166748C8.55906 0.166748 9.06647 0.674159 9.06647 1.30008V6.96675H6.7998V1.30008Z" fill="#1E2228"/>
<path d="M24.9331 31.446L24.9331 33.7127L1.13311 33.7127L1.13311 31.446L24.9331 31.446Z" fill="#1E2228"/>
<path d="M13.0198 28.686C10.0398 28.686 7.81982 26.686 7.81982 24.166C7.81982 22.546 8.69982 21.306 10.1598 20.546C9.23982 19.926 8.61982 18.906 8.61982 17.806C8.61982 15.746 10.5398 14.106 13.0198 14.106C15.4998 14.106 17.3998 15.746 17.3998 17.806C17.3998 18.906 16.7798 19.926 15.8598 20.566C17.2998 21.306 18.1798 22.546 18.1798 24.166C18.1798 26.686 15.9798 28.686 13.0198 28.686ZM12.9998 25.626C13.9198 25.626 14.6598 24.886 14.6598 24.006C14.6598 23.086 13.9198 22.346 13.0198 22.346C12.0998 22.346 11.3598 23.086 11.3598 24.006C11.3598 24.906 12.0998 25.626 12.9998 25.626ZM13.0198 19.286C13.6398 19.286 14.1398 18.766 14.1398 18.146C14.1398 17.506 13.6398 16.986 12.9998 16.986C12.3798 16.986 11.8798 17.506 11.8798 18.146C11.8798 18.766 12.3798 19.286 13.0198 19.286Z" fill="#1E2228"/>
</svg>
