<svg width="27" height="37" viewBox="0 0 27 37" fill="none" xmlns="http://www.w3.org/2000/svg">
<rect x="0.85" y="3.01675" width="24.3667" height="32.3" rx="2.55" fill="#F6FAFD" stroke="#1E2228" stroke-width="1.7"/>
<path d="M0 5.56675C0 3.68898 1.52223 2.16675 3.4 2.16675H22.6667C24.5444 2.16675 26.0667 3.68898 26.0667 5.56675V11.2334H0V5.56675Z" fill="#1E2228"/>
<path d="M17.0664 1.30008C17.0664 0.674158 17.5738 0.166748 18.1997 0.166748C18.8257 0.166748 19.3331 0.674159 19.3331 1.30008V6.96675H17.0664V1.30008Z" fill="#1E2228"/>
<path d="M6.7998 1.30008C6.7998 0.674158 7.30722 0.166748 7.93314 0.166748C8.55906 0.166748 9.06647 0.674159 9.06647 1.30008V6.96675H6.7998V1.30008Z" fill="#1E2228"/>
<path d="M24.9331 31.446L24.9331 33.7127L1.13311 33.7127L1.13311 31.446L24.9331 31.446Z" fill="#1E2228"/>
<path d="M10.2101 28.4457C9.89014 28.4457 9.77014 28.2457 9.95014 27.9657L12.4701 23.9457C12.3101 23.9657 12.1701 23.9857 12.0101 23.9857C9.83014 23.9857 7.89014 22.1057 7.89014 19.2257C7.89014 16.4057 10.1701 14.0857 12.9901 14.0857C15.8101 14.0857 18.1101 16.4057 18.1101 19.2257C18.1101 20.4857 17.6501 21.7057 17.0701 22.6657L13.7101 28.1657C13.6101 28.3657 13.4501 28.4457 13.2301 28.4457H10.2101ZM12.9901 21.1057C13.9901 21.1057 14.7901 20.2457 14.7901 19.1657C14.7901 18.1457 13.9901 17.2857 12.9901 17.2857C11.9901 17.2857 11.1901 18.1457 11.1901 19.1657C11.1901 20.2457 11.9901 21.1057 12.9901 21.1057Z" fill="#1E2228"/>
</svg>
