<svg width="24" height="24" viewBox="0 0 24 24" fill="none" xmlns="http://www.w3.org/2000/svg">
<path d="M12.001 2.34998C17.3303 2.35022 21.6514 6.67097 21.6514 12.0004C21.6513 13.5381 21.2889 14.9935 20.6475 16.2855L21.1328 18.0619L21.1357 18.0726C21.2505 18.4933 21.353 18.8692 21.4072 19.1761C21.461 19.4806 21.4977 19.8678 21.3506 20.2533C21.1577 20.758 20.7586 21.157 20.2539 21.35C19.8684 21.4972 19.4813 21.4604 19.1768 21.4066C18.87 21.3524 18.4946 21.2498 18.0742 21.1351L18.0625 21.1322L16.2861 20.6469C14.9941 21.2883 13.5387 21.6507 12.001 21.6508C6.67155 21.6508 2.35076 17.3298 2.35059 12.0004C2.35059 6.67082 6.67144 2.34998 12.001 2.34998ZM12 3.72009C7.42691 3.72017 3.71973 7.42723 3.71973 12.0004C3.72002 16.5733 7.42709 20.2806 12 20.2806C13.4355 20.2806 14.7839 19.9157 15.959 19.2748L16.0371 19.2367C16.2226 19.1578 16.4308 19.1432 16.627 19.1967L19.9912 20.1146C20.0161 20.1213 20.0321 20.1187 20.043 20.1156C20.0565 20.1117 20.0732 20.1029 20.0879 20.0883C20.1025 20.0736 20.1113 20.0569 20.1152 20.0433C20.1183 20.0324 20.1201 20.0167 20.1133 19.9916L19.1963 16.6273C19.1351 16.4031 19.1632 16.1634 19.2744 15.9594C19.9154 14.7843 20.2802 13.436 20.2803 12.0004C20.2803 7.42736 16.5729 3.72037 12 3.72009Z" fill="#77828F"/>
</svg>
