<svg width="14" height="15" viewBox="0 0 14 15" fill="none" xmlns="http://www.w3.org/2000/svg">
<path d="M4.63377 0.461792H2.31695C2.06986 0.461792 1.90802 0.720454 2.0161 0.942665L3.9101 4.83704C3.97774 4.97613 4.1319 5.05072 4.28294 5.01744L6.56373 4.51489C6.7816 4.46689 6.89234 4.22312 6.78515 4.02745L4.92719 0.635619C4.86848 0.528433 4.75599 0.461792 4.63377 0.461792Z" fill="#FF6B00"/>
<path d="M9.0381 0.461792H11.3549C11.602 0.461792 11.7639 0.720454 11.6558 0.942665L9.76178 4.83704C9.69414 4.97613 9.53997 5.05072 9.38893 5.01744L7.10815 4.51489C6.89027 4.46689 6.77954 4.22312 6.88672 4.02745L8.74469 0.635619C8.8034 0.528433 8.91589 0.461792 9.0381 0.461792Z" fill="#FF6B00"/>
<circle cx="6.99976" cy="9.23402" r="5.22779" fill="#FEAE09"/>
<circle cx="5.87584" cy="8.20714" r="1.30992" fill="#FDE33E"/>
<circle cx="8.1234" cy="8.20714" r="1.30992" fill="#FDE33E"/>
<circle cx="5.87584" cy="10.2607" r="1.30992" fill="#FDE33E"/>
<circle cx="8.1234" cy="10.2607" r="1.30992" fill="#FDE33E"/>
<circle cx="6.81383" cy="9.51707" r="1.30992" fill="#FDE33E"/>
</svg>
