<svg width="14" height="15" viewBox="0 0 14 15" fill="none" xmlns="http://www.w3.org/2000/svg">
<path d="M11.092 14.1404C9.60226 14.8325 5.55528 13.6422 3.71801 12.9606L3.41523 4.73262C4.36908 5.09939 5.00533 4.92608 5.20423 4.79358C5.23737 3.82104 5.53405 1.00912 6.6537 0.323715C6.97553 0.126706 7.71342 0.301197 8.09657 0.676798C8.82188 1.38782 8.88549 2.56313 8.69841 3.71582C8.66332 3.93208 8.85536 4.12246 9.07057 4.08138C10.8713 3.73767 11.8826 3.93513 12.5883 4.72891C12.8629 5.03773 13.0215 5.43073 13.1018 5.83608C13.7918 9.3233 11.9618 14.0093 11.092 14.1404Z" fill="#92BEFD"/>
<rect x="0.5" y="3.46155" width="3.97949" height="11.0002" rx="1.98975" fill="#2956C9"/>
<rect x="2.00146" y="11.3309" width="1.09387" height="1.88683" rx="0.546935" fill="#92BEFD"/>
</svg>
