<svg width="16" height="16" viewBox="0 0 16 16" fill="none" xmlns="http://www.w3.org/2000/svg">
<path d="M14.6665 5.33301H15.1665V5.33296L14.6665 5.33301ZM11.3335 12.667V13.167V12.667ZM2.4165 14.4668L2.72881 14.8573L2.72883 14.8572L2.4165 14.4668ZM1.3335 13.9463H0.833496V13.9463L1.3335 13.9463ZM1.3335 5.33301L0.833496 5.33296V5.33301H1.3335ZM4.6665 2V1.5H4.66646L4.6665 2ZM11.3335 2V2.5C12.8981 2.5 14.1664 3.76831 14.1665 5.33306L14.6665 5.33301L15.1665 5.33296C15.1663 3.2161 13.4505 1.5 11.3335 1.5V2ZM14.6665 5.33301H14.1665V9.33301H14.6665H15.1665V5.33301H14.6665ZM14.6665 9.33301H14.1665C14.1665 10.898 12.8981 12.167 11.3335 12.167V12.667V13.167C13.4508 13.167 15.1665 11.4499 15.1665 9.33301H14.6665ZM11.3335 12.667V12.167H5.13417V12.667V13.167H11.3335V12.667ZM4.3013 12.9591L3.98897 12.5687L2.10418 14.0763L2.4165 14.4668L2.72883 14.8572L4.61363 13.3496L4.3013 12.9591ZM2.4165 14.4668L2.1042 14.0763C1.99502 14.1637 1.8335 14.0859 1.8335 13.9463L1.3335 13.9463L0.833496 13.9463C0.83355 14.9246 1.96499 15.4682 2.72881 14.8573L2.4165 14.4668ZM1.3335 13.9463H1.8335V5.33301H1.3335H0.833496V13.9463H1.3335ZM1.3335 5.33301L1.8335 5.33306C1.83365 3.76847 3.10197 2.50015 4.66655 2.5L4.6665 2L4.66646 1.5C2.54966 1.5002 0.833699 3.21617 0.833496 5.33296L1.3335 5.33301ZM4.6665 2V2.5H11.3335V2V1.5H4.6665V2ZM5.13417 12.667V12.167C4.71791 12.167 4.31404 12.3087 3.98897 12.5687L4.3013 12.9591L4.61363 13.3496C4.76138 13.2314 4.94496 13.167 5.13417 13.167V12.667Z" fill="#909CA8"/>
<circle cx="4.70003" cy="7.36654" r="0.833333" fill="#909CA8"/>
<circle cx="8.03353" cy="7.36654" r="0.833333" fill="#909CA8"/>
<circle cx="11.367" cy="7.36654" r="0.833333" fill="#909CA8"/>
</svg>
