<svg width="16" height="16" viewBox="0 0 16 16" fill="none" xmlns="http://www.w3.org/2000/svg">
<mask id="path-1-inside-1_678_14855" fill="white">
<path d="M13.1797 3.33594C13.8154 3.33619 14.331 3.85157 14.3311 4.4873V10.2451C14.331 10.8809 13.8154 11.3962 13.1797 11.3965H12.4787C12.1837 11.3965 11.9148 11.5655 11.7869 11.8314L11.3047 12.834C11.2488 12.9496 11.0832 12.9496 11.0273 12.834L10.5451 11.8314C10.4173 11.5655 10.1483 11.3965 9.85332 11.3965H2.81543C2.17956 11.3964 1.66411 10.881 1.66406 10.2451V4.4873C1.66414 3.85146 2.17958 3.33602 2.81543 3.33594H13.1797Z"/>
</mask>
<path d="M13.1797 3.33594L13.1799 2.76018H13.1797V3.33594ZM14.3311 4.4873H14.9068V4.48723L14.3311 4.4873ZM14.3311 10.2451L14.9068 10.2452V10.2451H14.3311ZM13.1797 11.3965V11.9722H13.1799L13.1797 11.3965ZM11.3047 12.834L11.8231 13.0845L11.8235 13.0835L11.3047 12.834ZM11.0273 12.834L10.5085 13.0835L10.5089 13.0844L11.0273 12.834ZM2.81543 11.3965L2.81536 11.9722H2.81543V11.3965ZM1.66406 10.2451H1.0883V10.2452L1.66406 10.2451ZM1.66406 4.4873L1.0883 4.48723V4.4873H1.66406ZM2.81543 3.33594V2.76018H2.81536L2.81543 3.33594ZM10.5451 11.8314L10.0263 12.081L10.5451 11.8314ZM13.1797 3.33594L13.1795 3.9117C13.4975 3.91182 13.7553 4.16972 13.7553 4.48738L14.3311 4.4873L14.9068 4.48723C14.9067 3.53341 14.1333 2.76056 13.1799 2.76018L13.1797 3.33594ZM14.3311 4.4873H13.7553V10.2451H14.3311H14.9068V4.4873H14.3311ZM14.3311 10.2451L13.7553 10.2451C13.7553 10.5627 13.4976 10.8206 13.1795 10.8207L13.1797 11.3965L13.1799 11.9722C14.1333 11.9719 14.9067 11.1991 14.9068 10.2452L14.3311 10.2451ZM13.1797 11.3965V10.8207H12.4787V11.3965V11.9722H13.1797V11.3965ZM11.7869 11.8314L11.268 11.5819L10.7858 12.5844L11.3047 12.834L11.8235 13.0835L12.3058 12.081L11.7869 11.8314ZM11.3047 12.834L10.7863 12.5834C10.9399 12.2657 11.392 12.2651 11.5458 12.5836L11.0273 12.834L10.5089 13.0844C10.7744 13.6341 11.5577 13.6335 11.8231 13.0845L11.3047 12.834ZM11.0273 12.834L11.5462 12.5844L11.064 11.5819L10.5451 11.8314L10.0263 12.081L10.5085 13.0835L11.0273 12.834ZM9.85332 11.3965V10.8207H2.81543V11.3965V11.9722H9.85332V11.3965ZM2.81543 11.3965L2.8155 10.8207C2.49753 10.8207 2.23984 10.563 2.23982 10.2451L1.66406 10.2451L1.0883 10.2452C1.08838 11.199 1.86159 11.9721 2.81536 11.9722L2.81543 11.3965ZM1.66406 10.2451H2.23982V4.4873H1.66406H1.0883V10.2451H1.66406ZM1.66406 4.4873L2.23982 4.48738C2.23986 4.16946 2.49758 3.91174 2.8155 3.9117L2.81543 3.33594L2.81536 2.76018C1.86158 2.7603 1.08842 3.53346 1.0883 4.48723L1.66406 4.4873ZM2.81543 3.33594V3.9117H13.1797V3.33594V2.76018H2.81543V3.33594ZM10.5451 11.8314L11.064 11.5819C10.8402 11.1166 10.3696 10.8207 9.85332 10.8207V11.3965V11.9722C9.92707 11.9722 9.9943 12.0145 10.0263 12.081L10.5451 11.8314ZM12.4787 11.3965V10.8207C11.9624 10.8207 11.4918 11.1166 11.268 11.5819L11.7869 11.8314L12.3058 12.081C12.3377 12.0145 12.405 11.9722 12.4787 11.9722V11.3965Z" fill="#808087" mask="url(#path-1-inside-1_678_14855)"/>
<circle cx="5.4117" cy="7.36482" r="0.575758" fill="#808087"/>
<circle cx="8.00154" cy="7.36482" r="0.575758" fill="#808087"/>
<circle cx="10.5953" cy="7.36482" r="0.575758" fill="#808087"/>
</svg>
