<svg width="28" height="28" viewBox="0 0 28 28" fill="none" xmlns="http://www.w3.org/2000/svg">
<rect x="0.5" y="0.5" width="27" height="27" rx="13.5" stroke="#CFD3DE"/>
<path d="M20.8275 14.56C21.0761 14.56 21.2775 14.3586 21.2775 14.11C21.2775 13.8615 21.0761 13.66 20.8275 13.66V14.11V14.56ZM7.17285 13.66C6.92432 13.66 6.72285 13.8615 6.72285 14.11C6.72285 14.3586 6.92432 14.56 7.17285 14.56V14.11V13.66ZM20.8275 9.94593C21.076 9.94593 21.2775 9.74446 21.2775 9.49593C21.2775 9.2474 21.076 9.04593 20.8275 9.04593V9.49593V9.94593ZM7.17285 9.04593C6.92432 9.04593 6.72285 9.2474 6.72285 9.49593C6.72285 9.74446 6.92432 9.94593 7.17285 9.94593V9.49593V9.04593ZM20.8278 19.1744C21.0763 19.1744 21.2778 18.9729 21.2778 18.7244C21.2778 18.4759 21.0763 18.2744 20.8278 18.2744V18.7244V19.1744ZM7.17285 18.2744C6.92432 18.2744 6.72285 18.4759 6.72285 18.7244C6.72285 18.9729 6.92432 19.1744 7.17285 19.1744V18.7244V18.2744ZM19.5535 14.11V14.56H20.8275V14.11V13.66H19.5535V14.11ZM7.17285 14.11V14.56H16.014V14.11V13.66H7.17285V14.11ZM12.43 9.49593V9.94593H20.8275V9.49593V9.04593H12.43V9.49593ZM7.17285 9.49593V9.94593H8.89653V9.49593V9.04593H7.17285V9.49593ZM14.9257 18.7244V19.1744H20.8278V18.7244V18.2744H14.9257V18.7244ZM7.17285 18.7244V19.1744H11.386V18.7244V18.2744H7.17285V18.7244ZM12.4334 9.40675H11.9834C11.9834 10.1017 11.403 10.6838 10.6636 10.6838V11.1338V11.5838C11.8791 11.5838 12.8834 10.6194 12.8834 9.40675H12.4334ZM10.6636 11.1338V10.6838C9.92429 10.6838 9.34383 10.1017 9.34383 9.40675H8.89383H8.44383C8.44383 10.6194 9.44809 11.5838 10.6636 11.5838V11.1338ZM8.89383 9.40675H9.34383C9.34383 8.71175 9.92429 8.12969 10.6636 8.12969V7.67969V7.22969C9.44809 7.22969 8.44383 8.19409 8.44383 9.40675H8.89383ZM10.6636 7.67969V8.12969C11.403 8.12969 11.9834 8.71175 11.9834 9.40675H12.4334H12.8834C12.8834 8.19409 11.8791 7.22969 10.6636 7.22969V7.67969ZM19.5535 14.11H19.1035C19.1035 14.8052 18.5232 15.3873 17.784 15.3873V15.8373V16.2873C18.9997 16.2873 20.0035 15.3225 20.0035 14.11H19.5535ZM17.784 15.8373V15.3873C17.0447 15.3873 16.464 14.805 16.464 14.11H16.014H15.564C15.564 15.3227 16.5685 16.2873 17.784 16.2873V15.8373ZM16.014 14.11H16.464C16.464 13.4152 17.0446 12.8331 17.784 12.8331V12.3831V11.9331C16.5686 11.9331 15.564 12.8973 15.564 14.11H16.014ZM17.784 12.3831V12.8331C18.5233 12.8331 19.1035 13.415 19.1035 14.11H19.5535H20.0035C20.0035 12.8974 18.9996 11.9331 17.784 11.9331V12.3831ZM14.9257 18.7244H14.4757C14.4757 19.4193 13.8952 20.0014 13.1558 20.0014V20.4514V20.9014C14.3712 20.9014 15.3757 19.9371 15.3757 18.7244H14.9257ZM13.1558 20.4514V20.0014C12.4164 20.0014 11.836 19.4194 11.836 18.7244H11.386H10.936C10.936 19.9371 11.9402 20.9014 13.1558 20.9014V20.4514ZM11.386 18.7244H11.836C11.836 18.0293 12.4165 17.4473 13.1558 17.4473V16.9973V16.5473C11.9402 16.5473 10.936 17.5118 10.936 18.7244H11.386ZM13.1558 16.9973V17.4473C13.8951 17.4473 14.4757 18.0294 14.4757 18.7244H14.9257H15.3757C15.3757 17.5117 14.3713 16.5473 13.1558 16.5473V16.9973Z" fill="#96A0B1"/>
</svg>
