<svg width="20" height="20" viewBox="0 0 20 20" fill="none" xmlns="http://www.w3.org/2000/svg">
<path d="M0.694336 7.21822C0.694336 6.38828 0.825379 5.6301 1.08747 4.94368C1.35579 4.25102 1.7302 3.65197 2.21069 3.14652C2.69119 2.64106 3.2528 2.25105 3.89554 1.97649C4.54451 1.70192 5.24653 1.56464 6.00159 1.56464C6.86897 1.56464 7.64587 1.75496 8.33229 2.13561C9.01871 2.51626 9.57096 3.02171 9.98905 3.65197C10.4134 3.02171 10.9656 2.51626 11.6458 2.13561C12.3322 1.75496 13.1091 1.56464 13.9765 1.56464C14.7378 1.56464 15.4398 1.70192 16.0826 1.97649C16.7315 2.25105 17.2932 2.64106 17.7674 3.14652C18.2479 3.65197 18.6192 4.25102 18.8813 4.94368C19.1496 5.6301 19.2838 6.38828 19.2838 7.21822C19.2838 8.54737 18.9312 9.86405 18.2261 11.1682C17.5272 12.4662 16.5319 13.7329 15.2401 14.9685C13.9547 16.1978 12.4321 17.3741 10.6723 18.4973C10.5725 18.5597 10.4571 18.6159 10.326 18.6658C10.2012 18.722 10.0889 18.75 9.98905 18.75C9.89545 18.75 9.78313 18.722 9.65208 18.6658C9.52728 18.6159 9.41496 18.5597 9.31511 18.4973C7.55539 17.3741 6.02967 16.1978 4.73796 14.9685C3.44625 13.7329 2.44782 12.4662 1.74268 11.1682C1.04378 9.86405 0.694336 8.54737 0.694336 7.21822ZM2.20133 7.21822C2.20133 8.0856 2.41038 8.96547 2.82847 9.85781C3.24656 10.7439 3.81441 11.6144 4.53203 12.4693C5.24965 13.3242 6.06087 14.1417 6.96569 14.9217C7.87676 15.6955 8.82214 16.4069 9.80185 17.0558C9.90169 17.1307 9.96409 17.1682 9.98905 17.1682C10.014 17.1682 10.0795 17.1307 10.1856 17.0558C11.1653 16.4069 12.1076 15.6955 13.0124 14.9217C13.9235 14.1417 14.7347 13.3242 15.4461 12.4693C16.1637 11.6144 16.7315 10.7439 17.1496 9.85781C17.5677 8.96547 17.7768 8.0856 17.7768 7.21822C17.7768 6.38828 17.6114 5.66442 17.2807 5.04664C16.9562 4.42263 16.5069 3.93902 15.9328 3.59581C15.3649 3.24636 14.7191 3.07163 13.9952 3.07163C13.4087 3.07163 12.9032 3.17772 12.4789 3.38988C12.0608 3.59581 11.6989 3.85789 11.3931 4.17614C11.0936 4.48815 10.8377 4.79704 10.6255 5.10281C10.4883 5.28377 10.3759 5.40857 10.2886 5.47722C10.2012 5.54586 10.1014 5.58018 9.98905 5.58018C9.87673 5.58018 9.77377 5.54898 9.68016 5.48658C9.5928 5.41793 9.4836 5.29001 9.35256 5.10281C9.15287 4.7908 8.90326 4.47879 8.60374 4.16678C8.30421 3.85477 7.93916 3.59581 7.50859 3.38988C7.07802 3.17772 6.56944 3.07163 5.98287 3.07163C5.25901 3.07163 4.61003 3.24636 4.03594 3.59581C3.46809 3.93902 3.01879 4.42263 2.68807 5.04664C2.36358 5.66442 2.20133 6.38828 2.20133 7.21822Z" fill="#909CA8"/>
</svg>
