<svg width="20" height="20" viewBox="0 0 20 20" fill="none" xmlns="http://www.w3.org/2000/svg">
<path d="M13.0761 2.89474C11.5883 2.89474 10.2855 3.88499 9.47334 4.97368C8.66118 3.88499 7.35849 2.89474 5.87059 2.89474C4.68616 2.89608 3.55064 3.3672 2.71311 4.21771C1.87558 5.06823 1.40977 6.22173 1.40844 7.42096C1.40844 12.4234 8.77651 16.5135 9.09498 16.6847C9.17893 16.73 9.27276 16.7544 9.36808 16.7544C9.4634 16.7544 9.55723 16.73 9.64118 16.6847C9.95965 16.5135 17.3277 12.4234 17.3277 7.42096C17.3265 6.22173 16.8607 5.06823 16.0231 4.21771C15.1856 3.3672 14.0501 2.89608 12.8657 2.89474H13.0761Z" fill="#F74353"/>
</svg>