<svg width="24" height="24" viewBox="0 0 24 24" fill="none" xmlns="http://www.w3.org/2000/svg">
<path fill-rule="evenodd" clip-rule="evenodd" d="M9.99982 2.1001C5.63679 2.1001 2.09985 5.63705 2.09985 10.0001C2.09985 14.3631 5.63679 17.9001 9.99982 17.9001C11.8571 17.9001 13.5647 17.2592 14.9135 16.1864L19.8635 21.1365C20.215 21.4879 20.7849 21.4879 21.1363 21.1365C21.4878 20.785 21.4878 20.2151 21.1363 19.8637L16.1863 14.9136C17.2589 13.5648 17.8998 11.8573 17.8998 10.0001C17.8998 5.63705 14.3629 2.1001 9.99982 2.1001ZM3.89985 10.0001C3.89985 6.63116 6.6309 3.9001 9.99982 3.9001C13.3687 3.9001 16.0998 6.63116 16.0998 10.0001C16.0998 13.369 13.3687 16.1001 9.99982 16.1001C6.6309 16.1001 3.89985 13.369 3.89985 10.0001Z" fill="#171719"/>
</svg>
