<svg width="24" height="24" viewBox="0 0 24 24" fill="none" xmlns="http://www.w3.org/2000/svg">
<path fill-rule="evenodd" clip-rule="evenodd" d="M10.4328 3C6.32779 3 3 6.3278 3 10.4329C3 14.5379 6.32779 17.8657 10.4328 17.8657C12.0653 17.8657 13.5748 17.3394 14.801 16.4473L19.0127 20.659C19.4674 21.1137 20.2045 21.1137 20.6591 20.659C21.1138 20.2044 21.1138 19.4673 20.6591 19.0126L16.4474 14.8009C17.3394 13.5747 17.8656 12.0652 17.8656 10.4329C17.8656 6.3278 14.5379 3 10.4328 3ZM5.32835 10.4329C5.32835 7.61372 7.6137 5.32836 10.4328 5.32836C13.2519 5.32836 15.5373 7.61372 15.5373 10.4329C15.5373 13.252 13.2519 15.5373 10.4328 15.5373C7.6137 15.5373 5.32835 13.252 5.32835 10.4329Z" fill="#F4F8FB"/>
</svg>
