<svg width="16" height="16" viewBox="0 0 16 16" fill="none" xmlns="http://www.w3.org/2000/svg">
<mask id="mask0_3534_11143" style="mask-type:alpha" maskUnits="userSpaceOnUse" x="0" y="0" width="16" height="16">
<rect width="16" height="16" fill="#D9D9D9"/>
</mask>
<g mask="url(#mask0_3534_11143)">
<path d="M8.00386 14.1355C7.15453 14.1355 6.35736 13.9738 5.61236 13.6505C4.86736 13.3272 4.21875 12.8894 3.66653 12.3373C3.11431 11.7851 2.67658 11.1365 2.35336 10.3915C2.03003 9.64639 1.86836 8.84922 1.86836 8C1.86836 7.15078 2.03003 6.35361 2.35336 5.6085C2.67658 4.8635 3.11431 4.21489 3.66653 3.66267C4.21875 3.11056 4.86736 2.67283 5.61236 2.3495C6.35736 2.02617 7.15453 1.8645 8.00386 1.8645C8.92031 1.8645 9.7882 2.05628 10.6075 2.43984C11.4269 2.82339 12.1265 3.36806 12.7064 4.07384V3.26167C12.7064 3.06478 12.7736 2.89978 12.908 2.76667C13.0425 2.63356 13.2081 2.567 13.4049 2.567C13.6018 2.567 13.7668 2.63356 13.8999 2.76667C14.033 2.89978 14.0995 3.06478 14.0995 3.26167V5.90834C14.0995 6.12111 14.0263 6.30072 13.8799 6.44717C13.7335 6.5935 13.554 6.66667 13.3412 6.66667H10.6944C10.4976 6.66667 10.3313 6.59878 10.1955 6.463C10.0598 6.32734 9.99186 6.16106 9.99186 5.96417C9.99186 5.76728 10.0591 5.60161 10.1935 5.46717C10.328 5.33272 10.4936 5.2655 10.6904 5.2655H11.7137C11.266 4.67517 10.7195 4.21356 10.0742 3.88067C9.42875 3.54767 8.73864 3.38117 8.00386 3.38117C6.71708 3.38117 5.62558 3.82928 4.72936 4.7255C3.83314 5.62184 3.38503 6.71334 3.38503 8C3.38503 9.28667 3.83314 10.3782 4.72936 11.2745C5.62558 12.1707 6.71708 12.6188 8.00386 12.6188C9.03553 12.6188 9.95803 12.3134 10.7714 11.7027C11.5848 11.092 12.1315 10.3026 12.4115 9.3345C12.475 9.13806 12.5903 8.98945 12.7574 8.88867C12.9244 8.78778 13.1087 8.75111 13.3104 8.77867C13.5231 8.80622 13.6931 8.89806 13.8202 9.05417C13.9472 9.21028 13.9845 9.38234 13.932 9.57034C13.5913 10.9031 12.8727 11.9972 11.7764 12.8525C10.6799 13.7078 9.42242 14.1355 8.00386 14.1355ZM8.69836 7.73334L10.3292 9.36017C10.4594 9.49039 10.5245 9.65389 10.5245 9.85067C10.5245 10.0476 10.4594 10.2111 10.3292 10.3413C10.199 10.4716 10.0355 10.5367 9.8387 10.5367C9.64181 10.5367 9.47825 10.4716 9.34803 10.3413L7.5292 8.5225C7.45453 8.44784 7.39853 8.36417 7.3612 8.2715C7.32397 8.17895 7.30536 8.08156 7.30536 7.97934V5.36117C7.30536 5.16439 7.37253 4.99945 7.50686 4.86634C7.64131 4.73322 7.80697 4.66667 8.00386 4.66667C8.20075 4.66667 8.3657 4.73322 8.4987 4.86634C8.63181 4.99945 8.69836 5.16439 8.69836 5.36117V7.73334Z" fill="#77828F"/>
</g>
</svg>
