<svg width="10" height="12" viewBox="0 0 10 12" fill="none" xmlns="http://www.w3.org/2000/svg">
<path d="M5 11.8332C4.85417 11.8332 4.70833 11.808 4.5625 11.7577C4.41667 11.7074 4.28646 11.6319 4.17188 11.5313C3.49479 10.9276 2.89583 10.339 2.375 9.76547C1.85417 9.19195 1.41927 8.63603 1.07031 8.09772C0.721354 7.55942 0.455729 7.04123 0.273438 6.54318C0.0911458 6.04512 0 5.5697 0 5.11691C0 3.60764 0.502604 2.40526 1.50781 1.50976C2.51302 0.614255 3.67708 0.166504 5 0.166504C6.32292 0.166504 7.48698 0.614255 8.49219 1.50976C9.4974 2.40526 10 3.60764 10 5.11691C10 5.5697 9.90885 6.04512 9.72656 6.54318C9.54427 7.04123 9.27865 7.55942 8.92969 8.09772C8.58073 8.63603 8.14583 9.19195 7.625 9.76547C7.10417 10.339 6.50521 10.9276 5.82812 11.5313C5.71354 11.6319 5.58333 11.7074 5.4375 11.7577C5.29167 11.808 5.14583 11.8332 5 11.8332ZM5 6.20359C5.34375 6.20359 5.63802 6.08536 5.88281 5.84891C6.1276 5.61246 6.25 5.32821 6.25 4.99617C6.25 4.66413 6.1276 4.37989 5.88281 4.14343C5.63802 3.90698 5.34375 3.78876 5 3.78876C4.65625 3.78876 4.36198 3.90698 4.11719 4.14343C3.8724 4.37989 3.75 4.66413 3.75 4.99617C3.75 5.32821 3.8724 5.61246 4.11719 5.84891C4.36198 6.08536 4.65625 6.20359 5 6.20359Z" fill="white"/>
</svg>
