<svg width="20" height="20" viewBox="0 0 20 20" fill="none" xmlns="http://www.w3.org/2000/svg">
<mask id="mask0_900_19263" style="mask-type:alpha" maskUnits="userSpaceOnUse" x="0" y="0" width="20" height="20">
<rect width="20" height="20" fill="#D9D9D9"/>
</mask>
<g mask="url(#mask0_900_19263)">
<path d="M9.99935 15.4488C9.77018 15.4488 9.574 15.3672 9.41081 15.204C9.24761 15.0408 9.16602 14.8446 9.16602 14.6154C9.16602 14.3863 9.24761 14.1901 9.41081 14.0269C9.574 13.8637 9.77018 13.7821 9.99935 13.7821C10.2285 13.7821 10.4247 13.8637 10.5879 14.0269C10.7511 14.1901 10.8327 14.3863 10.8327 14.6154C10.8327 14.8446 10.7511 15.0408 10.5879 15.204C10.4247 15.3672 10.2285 15.4488 9.99935 15.4488ZM9.99935 10.8334C9.77018 10.8334 9.574 10.7518 9.41081 10.5886C9.24761 10.4254 9.16602 10.2292 9.16602 10C9.16602 9.77085 9.24761 9.57467 9.41081 9.41148C9.574 9.24828 9.77018 9.16669 9.99935 9.16669C10.2285 9.16669 10.4247 9.24828 10.5879 9.41148C10.7511 9.57467 10.8327 9.77085 10.8327 10C10.8327 10.2292 10.7511 10.4254 10.5879 10.5886C10.4247 10.7518 10.2285 10.8334 9.99935 10.8334ZM9.99935 6.21794C9.77018 6.21794 9.574 6.13634 9.41081 5.97314C9.24761 5.80995 9.16602 5.61377 9.16602 5.3846C9.16602 5.15544 9.24761 4.95926 9.41081 4.79606C9.574 4.63287 9.77018 4.55127 9.99935 4.55127C10.2285 4.55127 10.4247 4.63287 10.5879 4.79606C10.7511 4.95926 10.8327 5.15544 10.8327 5.3846C10.8327 5.61377 10.7511 5.80995 10.5879 5.97314C10.4247 6.13634 10.2285 6.21794 9.99935 6.21794Z" fill="#1C1B1F"/>
</g>
</svg>
