<svg width="100" height="100" viewBox="0 0 100 100" fill="none" xmlns="http://www.w3.org/2000/svg">
<g clip-path="url(#clip0_1900_6296)">
<rect width="100" height="100" rx="29.5858" fill="#E9F1F6"/>
<ellipse cx="7.47738" cy="5.2113" rx="7.47738" ry="5.2113" transform="matrix(0.987437 0.158013 -0.154835 0.98794 61.5962 39.8594)" fill="#BBC7D1"/>
<path d="M14.3054 52.4208C13.728 50.3965 14.9714 48.2955 17.0242 47.8269C19.0771 47.3583 21.0935 48.7151 21.4334 50.7937L24.7467 71.0585C24.9581 72.3513 24.1258 73.589 22.849 73.8804C21.5722 74.1719 20.2942 73.4159 19.935 72.1569L14.3054 52.4208Z" fill="#77828F"/>
<path d="M28.7181 77.262L28.0786 74.3544C27.7122 72.688 27.9931 70.9128 29.0976 69.6123C32.5066 65.5981 36.8558 63.4907 38.848 62.8943L39.7322 62.6957C40.6873 62.4813 41.6159 62.1673 42.5602 61.9098C45.4023 61.135 51.4206 60.2069 60.7588 60.55C70.3369 60.9019 76.4223 70.0709 79.1701 76.7315C79.9894 78.7173 79.2337 80.946 77.5325 82.2579C77.294 82.4418 77.0718 82.6459 76.8683 82.8679L76.3032 83.4845C73.467 86.579 72.0626 90.7233 72.4331 94.9044L73.2604 104.242L30.7188 103.876L32.5238 81.3226C32.6178 80.1486 31.7681 79.1099 30.5988 78.9692C29.6728 78.8577 28.9184 78.173 28.7181 77.262Z" fill="#77828F"/>
<ellipse cx="22.866" cy="75.6578" rx="6.44436" ry="6.51181" fill="#BBC7D1"/>
<ellipse cx="73.6861" cy="92.7628" rx="6.44436" ry="6.51181" fill="#BBC7D1"/>
<rect width="5.67393" height="2.60342" rx="1.30171" transform="matrix(0.974925 -0.222533 0.218167 0.975911 22.0927 82.3906)" fill="#77828F"/>
<path d="M32.6162 79.7532C32.6162 79.3832 30.2095 77.5178 29.1848 76.7469L26.2317 77.2094C23.7883 76.0531 18.4758 74.3418 17.7191 76.7469C17.9555 78.1345 17.8957 81.6827 21.0296 85.0721C24.1635 88.4615 29.9991 90.0293 31.8908 88.1792C32.5213 85.4812 32.6162 80.1232 32.6162 79.7532Z" fill="#BBC7D1"/>
<rect width="5.67393" height="2.60342" rx="1.30171" transform="matrix(0.974925 -0.222533 0.218167 0.975911 22.0927 81.0396)" fill="#77828F"/>
<path d="M76.8946 79.1734C79.3716 80.4048 79.1062 86.4297 78.6639 89.2882L68.7118 90.1679H68.3626L67.8272 83.5712C69.8176 81.5922 74.4177 77.9421 76.8946 79.1734Z" fill="#BBC7D1"/>
<ellipse cx="50.7056" cy="61.0713" rx="12.1154" ry="7.5537" fill="#BBC7D1"/>
<ellipse cx="50.7238" cy="44.1957" rx="21.277" ry="18.6547" fill="#BBC7D1"/>
<path d="M73.5476 42.993L65.8144 39.3463C63.2366 43.5139 50.3479 42.2115 45.708 40.1277C41.0681 38.0439 30.7571 38.3044 30.4993 38.5649C30.2931 38.7733 29.726 41.6037 29.4682 42.9929C25.7735 42.9929 18.951 42.2636 21.2194 39.3463C23.4879 36.429 28.523 34.1368 30.7571 33.3554C31.1695 30.6465 32.9911 27.7119 33.8504 26.5832C40.4494 17.8313 51.379 17.5535 56.019 18.5085C73.7538 22.051 75.0942 36.3075 73.5476 42.993Z" fill="#77828F"/>
<ellipse cx="52.8081" cy="18.8411" rx="3.73825" ry="2.84113" fill="#77828F"/>
</g>
<defs>
<clipPath id="clip0_1900_6296">
<rect width="100" height="100" rx="29.5858" fill="white"/>
</clipPath>
</defs>
</svg>
