<svg width="24" height="24" viewBox="0 0 24 24" fill="none" xmlns="http://www.w3.org/2000/svg">
<rect width="24" height="24" rx="12" fill="#38414C"/>
<path d="M7.49805 7.42102C7.49805 7.24028 7.64457 7.09375 7.82532 7.09375H8.47986C8.66061 7.09375 8.80714 7.24028 8.80714 7.42102V7.66648C8.80714 7.71166 8.77051 7.7483 8.72532 7.7483H7.57987C7.53468 7.7483 7.49805 7.71166 7.49805 7.66648V7.42102Z" fill="#F6FAFD"/>
<path d="M13.5278 6.76367C13.7609 6.76367 13.977 6.88745 14.0942 7.08887L14.6196 7.99121C14.6489 8.04144 14.7021 8.07311 14.7603 8.07324H16.5815C17.4852 8.07324 18.2182 8.80531 18.2183 9.70898V15.5996C18.2183 16.5033 17.4853 17.2363 16.5815 17.2363H7.41846C6.51472 17.2363 5.78174 16.5033 5.78174 15.5996V9.70898C5.78181 8.80531 6.51477 8.07324 7.41846 8.07324H9.23975C9.29791 8.07316 9.35208 8.04149 9.38135 7.99121L9.90576 7.08887C10.023 6.88745 10.2391 6.76367 10.4722 6.76367H13.5278ZM11.9995 10.0361C10.5537 10.0363 9.38138 11.2085 9.38135 12.6543C9.38135 14.1002 10.5537 15.2723 11.9995 15.2725C13.4455 15.2725 14.6177 14.1003 14.6177 12.6543C14.6176 11.2083 13.4455 10.0361 11.9995 10.0361ZM11.9995 11.0176C12.9032 11.0176 13.6362 11.7506 13.6362 12.6543C13.6362 13.558 12.9032 14.291 11.9995 14.291C11.0959 14.2908 10.3628 13.5579 10.3628 12.6543C10.3628 11.7507 11.0959 11.0178 11.9995 11.0176ZM14.9458 10.3633C14.7651 10.3633 14.6178 10.5098 14.6177 10.6904C14.6177 10.8712 14.7651 11.0176 14.9458 11.0176C15.1263 11.0173 15.2729 10.871 15.2729 10.6904C15.2728 10.51 15.1262 10.3635 14.9458 10.3633Z" fill="#F6FAFD"/>
</svg>
