<svg width="20" height="20" viewBox="0 0 20 20" fill="none" xmlns="http://www.w3.org/2000/svg">
<mask id="mask0_3073_14760" style="mask-type:alpha" maskUnits="userSpaceOnUse" x="0" y="0" width="20" height="20">
<rect width="20" height="20" fill="#D9D9D9"/>
</mask>
<g mask="url(#mask0_3073_14760)">
<path d="M4.42321 17.9167C4.00223 17.9167 3.64591 17.7708 3.35425 17.4792C3.06258 17.1875 2.91675 16.8312 2.91675 16.4102L2.91675 5.25647C2.91675 4.8355 3.06258 4.47918 3.35425 4.18751C3.64591 3.89585 4.00223 3.75001 4.42321 3.75001H5.57696V2.62814C5.57696 2.4455 5.63814 2.293 5.7605 2.17064C5.88286 2.04842 6.03536 1.9873 6.218 1.9873C6.40078 1.9873 6.55328 2.04842 6.6755 2.17064C6.79786 2.293 6.85904 2.4455 6.85904 2.62814V3.75001L13.1732 3.75001V2.6123C13.1732 2.43494 13.233 2.2864 13.3526 2.16668C13.4723 2.0471 13.6208 1.9873 13.7982 1.9873C13.9756 1.9873 14.124 2.0471 14.2436 2.16668C14.3633 2.2864 14.4232 2.43494 14.4232 2.6123V3.75001L15.577 3.75001C15.9979 3.75001 16.3542 3.89585 16.6459 4.18751C16.9376 4.47918 17.0834 4.8355 17.0834 5.25647V16.4102C17.0834 16.8312 16.9376 17.1875 16.6459 17.4792C16.3542 17.7708 15.9979 17.9167 15.577 17.9167H4.42321ZM4.42321 16.6667H15.577C15.6411 16.6667 15.6999 16.6399 15.7532 16.5865C15.8067 16.5331 15.8334 16.4744 15.8334 16.4102L15.8334 8.5898L4.16675 8.5898L4.16675 16.4102C4.16675 16.4744 4.19348 16.5331 4.24696 16.5865C4.30029 16.6399 4.35904 16.6667 4.42321 16.6667Z" fill="#909CA8"/>
</g>
</svg>
