<svg width="48" height="48" viewBox="0 0 48 48" fill="none" xmlns="http://www.w3.org/2000/svg">
<path d="M8.9939 8.73788C8.9939 8.13539 9.48231 7.64697 10.0848 7.64697H12.2666C12.8691 7.64697 13.3575 8.13539 13.3575 8.73788V9.55606C13.3575 9.70669 13.2354 9.82879 13.0848 9.82879H9.26662C9.116 9.82879 8.9939 9.70669 8.9939 9.55606V8.73788Z" fill="black"/>
<path fill-rule="evenodd" clip-rule="evenodd" d="M18.9064 6.54541C18.1296 6.54541 17.4114 6.95842 17.0207 7.62979L15.27 10.638C15.1723 10.8058 14.9928 10.909 14.7986 10.909H8.72725C5.71479 10.909 3.27271 13.3511 3.27271 16.3636V36C3.27271 39.0124 5.71479 41.4545 8.72725 41.4545H39.2727C42.2852 41.4545 44.7272 39.0124 44.7272 36V16.3636C44.7272 13.3511 42.2852 10.909 39.2727 10.909H33.2024C33.0082 10.909 32.8286 10.8058 32.731 10.638L30.9803 7.62979C30.5896 6.95842 29.8714 6.54541 29.0946 6.54541H18.9064ZM24 34.9091C28.8199 34.9091 32.7273 31.0018 32.7273 26.1818C32.7273 21.3619 28.8199 17.4545 24 17.4545C19.1801 17.4545 15.2727 21.3619 15.2727 26.1818C15.2727 31.0018 19.1801 34.9091 24 34.9091ZM24 31.6363C27.0125 31.6363 29.4546 29.1942 29.4546 26.1818C29.4546 23.1693 27.0125 20.7272 24 20.7272C20.9876 20.7272 18.5455 23.1693 18.5455 26.1818C18.5455 29.1942 20.9876 31.6363 24 31.6363ZM33.8182 20.7273C34.4207 20.7273 34.9091 20.2389 34.9091 19.6364C34.9091 19.0339 34.4207 18.5455 33.8182 18.5455C33.2157 18.5455 32.7273 19.0339 32.7273 19.6364C32.7273 20.2389 33.2157 20.7273 33.8182 20.7273Z" fill="black"/>
</svg>
