<svg width="14" height="14" viewBox="0 0 14 14" fill="none" xmlns="http://www.w3.org/2000/svg">
<path d="M9.81648 2.24902C8.75632 2.24902 7.82811 2.96707 7.24951 3.74902C6.67092 2.96707 5.7427 2.24902 4.68255 2.24902C3.83865 2.24999 3.02958 2.59059 2.43285 3.19611C1.83612 3.80163 1.50046 4.62262 1.49951 5.47895C1.49951 9.12564 6.82802 12.0774 7.05494 12.1993C7.11474 12.2319 7.1816 12.249 7.24951 12.249C7.31743 12.249 7.38428 12.2319 7.44409 12.1993C7.67101 12.0774 12.9995 9.12564 12.9995 5.47895C12.9986 4.62262 12.6629 3.80163 12.0662 3.19611C11.4694 2.59059 10.6604 2.24999 9.81648 2.24902Z" fill="#F4F8FB"/>
</svg>
