<svg width="12" height="11" viewBox="0 0 12 11" fill="none" xmlns="http://www.w3.org/2000/svg">
<path d="M8.81648 0.249023C7.75632 0.249023 6.82811 0.967068 6.24951 1.74902C5.67092 0.967068 4.7427 0.249023 3.68255 0.249023C2.83865 0.249989 2.02958 0.590594 1.43285 1.19611C0.836123 1.80163 0.500463 2.62262 0.499512 3.47895C0.499512 7.12564 5.82802 10.0774 6.05494 10.1993C6.11474 10.2319 6.1816 10.249 6.24951 10.249C6.31743 10.249 6.38428 10.2319 6.44409 10.1993C6.67101 10.0774 11.9995 7.12564 11.9995 3.47895C11.9986 2.62262 11.6629 1.80163 11.0662 1.19611C10.4694 0.590594 9.66038 0.249989 8.81648 0.249023Z" fill="#F4F8FB"/>
</svg>
