<svg width="28" height="28" viewBox="0 0 28 28" fill="none" xmlns="http://www.w3.org/2000/svg">
<path d="M14.2829 5.25C8.91857 5.25 4.56787 8.73331 4.56787 13.0221C4.56787 15.647 6.19112 17.968 8.67475 19.3811L7.91189 23.472C7.89826 23.5445 7.90606 23.6195 7.9343 23.6875C7.96255 23.7556 8.00998 23.8136 8.07065 23.8544C8.13131 23.8951 8.20251 23.9168 8.27528 23.9167C8.34805 23.9165 8.41917 23.8946 8.47968 23.8536L13.0463 20.7447C13.4572 20.7873 13.8699 20.8086 14.2829 20.8083C19.6473 20.8083 23.998 17.325 23.998 13.0362C23.998 8.74744 19.6473 5.25 14.2829 5.25Z" fill="currentColor"/>
</svg>
