<svg width="29" height="28" viewBox="0 0 29 28" fill="none" xmlns="http://www.w3.org/2000/svg">
<path fill-rule="evenodd" clip-rule="evenodd" d="M8.53723 5.19925C8.53723 4.36676 9.2121 3.69189 10.0446 3.69189C10.8771 3.69189 11.5519 4.36676 11.5519 5.19925V6.57381H17.448V5.19933C17.448 4.36684 18.1229 3.69198 18.9554 3.69198C19.7879 3.69198 20.4627 4.36684 20.4627 5.19933V6.57381H21.8387C23.3473 6.57381 24.5703 7.7968 24.5703 9.30543V10.2128C24.5703 10.8571 24.048 11.3794 23.4037 11.3794H5.59635C4.95202 11.3794 4.42969 10.8571 4.42969 10.2128V9.30543C4.42969 7.7968 5.65268 6.57381 7.16132 6.57381H8.53723V5.19925ZM23.112 12.8116C23.9174 12.8116 24.5703 13.4645 24.5703 14.2699V21.5767C24.5703 23.0853 23.3473 24.3083 21.8387 24.3083H7.16132C5.65268 24.3083 4.42969 23.0853 4.42969 21.5767V14.2699C4.42969 13.4645 5.08261 12.8116 5.88802 12.8116H23.112Z" fill="black"/>
</svg>
