<svg width="28" height="28" viewBox="0 0 28 28" fill="none" xmlns="http://www.w3.org/2000/svg">
<path fill-rule="evenodd" clip-rule="evenodd" d="M2.15137 14C2.15137 7.45618 7.45618 2.15137 14 2.15137C20.5438 2.15137 25.8486 7.45618 25.8486 14C25.8486 20.5438 20.5438 25.8486 14 25.8486C7.45618 25.8486 2.15137 20.5438 2.15137 14ZM7.49536 14.0001C7.49536 13.3539 8.01919 12.8301 8.66536 12.8301H12.8844V8.82015C12.8844 8.17397 13.4082 7.65015 14.0544 7.65015C14.7005 7.65015 15.2244 8.17397 15.2244 8.82015V12.8301H19.3345C19.9807 12.8301 20.5045 13.3539 20.5045 14.0001C20.5045 14.6463 19.9807 15.1701 19.3345 15.1701H15.2244V19.4893C15.2244 20.1355 14.7005 20.6593 14.0544 20.6593C13.4082 20.6593 12.8844 20.1355 12.8844 19.4893V15.1701H8.66536C8.01919 15.1701 7.49536 14.6463 7.49536 14.0001Z" fill="black"/>
</svg>
