<svg width="28" height="28" viewBox="0 0 28 28" fill="none" xmlns="http://www.w3.org/2000/svg">
<path d="M8.29034 12.3608C8.33846 12.6465 8.14736 12.9201 7.8698 13.0031C6.26441 13.4833 3.96328 15.1608 4.58921 18.0669C4.98199 19.8906 7.01149 20.7538 9.21842 21.2007C12.3599 21.8369 15.64 21.8369 18.7814 21.2007C20.9883 20.7538 23.0177 19.8906 23.4104 18.0669C24.0364 15.1608 21.7354 13.4833 20.13 13.0031C19.8525 12.9201 19.6614 12.6465 19.7095 12.3608C20.2858 8.93943 19.8672 2.54907 13.9999 2.54907C8.13268 2.54907 7.714 8.93943 8.29034 12.3608Z" fill="black"/>
<path d="M17.593 23.2153C17.2852 24.3458 16.1148 25.4509 14.2129 25.4509C12.0574 25.4509 10.7626 24.3292 10.4182 23.2151C10.3257 22.9158 10.6097 22.6738 10.919 22.7233C11.7102 22.85 13.1353 23.0478 14.2129 23.0274C15.1516 23.0095 16.37 22.8365 17.0828 22.7223C17.3914 22.6728 17.6751 22.9137 17.593 23.2153Z" fill="black"/>
</svg>
