<svg width="28" height="28" viewBox="0 0 28 28" fill="none" xmlns="http://www.w3.org/2000/svg">
<path d="M5.70495 3.90796C4.7125 3.90796 3.90796 4.7125 3.90796 5.70495V11.4843C3.90796 12.4767 4.7125 13.2813 5.70495 13.2813H11.4843C12.4767 13.2813 13.2813 12.4767 13.2813 11.4843V5.70495C13.2813 4.7125 12.4767 3.90796 11.4843 3.90796H5.70495Z" fill="black"/>
<path d="M5.70495 14.7187C4.7125 14.7187 3.90796 15.5232 3.90796 16.5157V22.295C3.90796 23.2875 4.7125 24.092 5.70495 24.092H11.4843C12.4767 24.092 13.2813 23.2875 13.2813 22.295V16.5157C13.2813 15.5232 12.4767 14.7187 11.4843 14.7187H5.70495Z" fill="black"/>
<path d="M14.7189 5.70495C14.7189 4.7125 15.5234 3.90796 16.5159 3.90796H22.2952C23.2877 3.90796 24.0922 4.7125 24.0922 5.70495V11.4843C24.0922 12.4767 23.2877 13.2813 22.2952 13.2813H16.5159C15.5234 13.2813 14.7189 12.4767 14.7189 11.4843V5.70495Z" fill="black"/>
<path d="M16.5159 14.7187C15.5234 14.7187 14.7189 15.5232 14.7189 16.5157V22.295C14.7189 23.2875 15.5234 24.092 16.5159 24.092H22.2952C23.2877 24.092 24.0922 23.2875 24.0922 22.295V16.5157C24.0922 15.5232 23.2877 14.7187 22.2952 14.7187H16.5159Z" fill="black"/>
</svg>
