<svg width="28" height="28" viewBox="0 0 28 28" fill="none" xmlns="http://www.w3.org/2000/svg">
<path fill-rule="evenodd" clip-rule="evenodd" d="M7.7085 3.91211C6.32778 3.91211 5.2085 5.0314 5.2085 6.41211V21.5878C5.2085 22.9685 6.32778 24.0878 7.7085 24.0878H20.2919C21.6726 24.0878 22.7919 22.9685 22.7919 21.5878V6.41211C22.7919 5.0314 21.6726 3.91211 20.2919 3.91211H7.7085ZM9.71511 7.39111C9.06964 7.39111 8.54639 7.91437 8.54639 8.55983C8.54639 9.2053 9.06964 9.72855 9.71511 9.72855H11.8315C12.4769 9.72855 13.0002 9.2053 13.0002 8.55983C13.0002 7.91437 12.4769 7.39111 11.8315 7.39111H9.71511ZM8.54639 12.6682C8.54639 12.0228 9.06964 11.4995 9.71511 11.4995H18.0544C18.6998 11.4995 19.2231 12.0228 19.2231 12.6682C19.2231 13.3137 18.6998 13.8369 18.0544 13.8369H9.7151C9.06964 13.8369 8.54639 13.3137 8.54639 12.6682ZM9.71511 15.6084C9.06964 15.6084 8.54639 16.1317 8.54639 16.7771C8.54639 17.4226 9.06964 17.9458 9.71511 17.9458H16.3259C16.9713 17.9458 17.4946 17.4226 17.4946 16.7771C17.4946 16.1317 16.9713 15.6084 16.3259 15.6084H9.71511Z" fill="black"/>
</svg>
