<svg width="28" height="28" viewBox="0 0 28 28" fill="none" xmlns="http://www.w3.org/2000/svg">
<path fill-rule="evenodd" clip-rule="evenodd" d="M16.6441 4.66989C15.1414 3.31577 12.8585 3.31577 11.3558 4.66989L4.47845 10.8673C3.27203 11.9545 2.85399 13.6693 3.42474 15.1897L5.91776 21.8308C6.49623 23.3717 7.96964 24.3924 9.61559 24.3924H18.3843C20.0302 24.3924 21.5037 23.3717 22.0821 21.8308L24.5752 15.1897C25.1459 13.6693 24.7279 11.9545 23.5214 10.8673L16.6441 4.66989ZM11.3061 19.2008C10.7677 19.2008 10.2878 19.5403 10.1087 20.048C9.81709 20.8742 10.43 21.7405 11.3061 21.7405H16.6936C17.5697 21.7405 18.1826 20.8742 17.891 20.048C17.7118 19.5403 17.232 19.2008 16.6936 19.2008H11.3061Z" fill="black"/>
</svg>
