<svg width="28" height="28" viewBox="0 0 28 28" fill="none" xmlns="http://www.w3.org/2000/svg">
<path d="M5.47071 3.75391C4.50031 3.75391 3.71364 4.57396 3.71364 5.58555L3.71362 10.841C3.71362 11.8526 4.50029 12.6726 5.47069 12.6726H22.5291C23.4995 12.6726 24.2862 11.8526 24.2862 10.841L24.2862 5.58555C24.2862 4.57396 23.4995 3.75391 22.5291 3.75391H5.47071Z" fill="black"/>
<path d="M5.47069 13.9831C4.50029 13.9831 3.71362 14.8031 3.71362 15.8147V17.4379C3.71362 18.4495 4.50029 19.2696 5.47069 19.2696H22.5291C23.4995 19.2696 24.2862 18.4495 24.2862 17.4379V15.8147C24.2862 14.8031 23.4995 13.9831 22.5291 13.9831H5.47069Z" fill="black"/>
<path d="M5.47071 20.5824C4.50031 20.5824 3.71364 21.4025 3.71364 22.4141C3.71364 23.4257 4.50031 24.246 5.47071 24.246H22.5291C23.4995 24.246 24.2862 23.426 24.2862 22.4144C24.2862 21.4028 23.4995 20.5824 22.5291 20.5824H5.47071Z" fill="black"/>
</svg>
