<svg width="104" height="104" viewBox="0 0 104 104" fill="none" xmlns="http://www.w3.org/2000/svg">
<g clip-path="url(#clip0_1165_22837)">
<path d="M16.0258 96.5744L76.6396 74.789L26.6468 24.9678L4.96281 85.5244C2.50061 92.404 9.15141 99.0444 16.0258 96.5744Z" fill="#84C3FF"/>
<path d="M26.9252 12.1203C29.6075 12.1203 31.782 9.94587 31.782 7.26354C31.782 4.5812 29.6075 2.40674 26.9252 2.40674C24.2428 2.40674 22.0684 4.5812 22.0684 7.26354C22.0684 9.94587 24.2428 12.1203 26.9252 12.1203Z" fill="#EDCCF8"/>
<path d="M78.8562 73.4665C84.065 68.2577 76.9047 52.6523 62.8633 38.6108C48.8218 24.5694 33.2164 17.4091 28.0076 22.6179C22.7988 27.8267 29.959 43.4322 44.0005 57.4736C58.0419 71.5151 73.6474 78.6753 78.8562 73.4665Z" fill="#266DB0"/>
<path d="M44.365 35.898C44.0712 35.898 43.7696 35.8564 43.4706 35.7732C41.7442 35.2818 40.7458 33.4826 41.2372 31.7562C42.7868 26.33 42.7036 20.5996 40.9954 15.1838C40.4546 13.4704 41.4062 11.6478 43.117 11.107C44.8278 10.5662 46.653 11.5152 47.1938 13.2286C49.2868 19.8612 49.3882 26.8864 47.4876 33.5398C47.0794 34.9672 45.782 35.898 44.365 35.898Z" fill="#B44BD7"/>
<path d="M76.3614 45.3881C75.3552 45.3881 74.362 44.9227 73.7276 44.0439C72.6746 42.5905 72.9996 40.5599 74.453 39.5043C81.3274 34.5227 89.468 31.6913 97.996 31.3195C99.803 31.3013 101.306 32.6325 101.386 34.4239C101.464 36.2179 100.073 37.7337 98.282 37.8143C91.028 38.1315 84.1094 40.5365 78.2672 44.7693C77.69 45.1879 77.0244 45.3881 76.364 45.3881H76.3614Z" fill="#84C3FF"/>
<path d="M89.3905 61.7913C88.9771 61.7913 88.5559 61.7107 88.1477 61.5417C85.9637 60.6369 83.6861 59.9401 81.3773 59.4695C74.1675 57.9979 66.7445 58.7129 59.9117 61.5417C58.2451 62.2255 56.3497 61.4403 55.6659 59.7841C54.9795 58.1253 55.7673 56.2247 57.4235 55.5383C65.4601 52.2103 74.1961 51.3679 82.6773 53.1021C85.3917 53.6559 88.0697 54.4749 90.6359 55.5383C92.2947 56.2247 93.0825 58.1253 92.3961 59.7841C91.8787 61.0347 90.6645 61.7913 89.3905 61.7913Z" fill="#7896FF"/>
<path d="M55.5287 45.6815C54.5537 45.6815 53.5865 45.2447 52.9469 44.4101C51.8549 42.9879 52.1227 40.9469 53.5475 39.8549C61.3657 33.8567 66.3785 25.1727 67.6655 15.4019C67.8995 13.6235 69.5349 12.3677 71.3107 12.6043C73.0917 12.8383 74.3449 14.4711 74.1083 16.2495C72.5951 27.7415 66.6983 37.9543 57.5021 45.0107C56.9119 45.4631 56.2203 45.6815 55.5287 45.6815Z" fill="#4A81EC"/>
<path d="M40.8987 51.3161L40.8999 46.4359C40.9002 45.4206 40.0774 44.5975 39.0622 44.5972L34.182 44.596C33.1668 44.5958 32.3436 45.4186 32.3433 46.4338L32.3421 51.314C32.3419 52.3292 33.1647 53.1524 34.1799 53.1526L39.0601 53.1538C40.0753 53.1541 40.8985 52.3313 40.8987 51.3161Z" fill="white"/>
<path d="M61.4011 1.4429L56.944 3.69103C56.0171 4.15858 55.6446 5.28904 56.1122 6.21598L58.3603 10.6731C58.8279 11.6001 59.9583 11.9725 60.8853 11.5049L65.3424 9.25679C66.2693 8.78925 66.6418 7.65879 66.1742 6.73184L63.9261 2.27472C63.4585 1.34777 62.3281 0.975354 61.4011 1.4429Z" fill="#7896FF"/>
<path d="M97.0687 76.4454L98.5809 71.688C98.8954 70.6986 98.3483 69.6415 97.3589 69.327L92.6015 67.8148C91.6121 67.5003 90.5551 68.0474 90.2406 69.0368L88.7283 73.7942C88.4138 74.7836 88.9609 75.8406 89.9503 76.1551L94.7078 77.6674C95.6972 77.9819 96.7542 77.4348 97.0687 76.4454Z" fill="#A8BFFF"/>
<path d="M87.1917 27.3359C89.3513 27.3359 91.102 25.5852 91.102 23.4255C91.102 21.2659 89.3513 19.5151 87.1917 19.5151C85.032 19.5151 83.2812 21.2659 83.2812 23.4255C83.2812 25.5852 85.032 27.3359 87.1917 27.3359Z" fill="#FFC84D"/>
<path d="M9.11157 44.2905C11.2712 44.2905 13.022 42.5398 13.022 40.3801C13.022 38.2205 11.2712 36.4697 9.11157 36.4697C6.95192 36.4697 5.20117 38.2205 5.20117 40.3801C5.20117 42.5398 6.95192 44.2905 9.11157 44.2905Z" fill="#A8BFFF"/>
<path d="M63.8657 95.2837C66.3858 95.2837 68.4287 93.2408 68.4287 90.7207C68.4287 88.2006 66.3858 86.1577 63.8657 86.1577C61.3457 86.1577 59.3027 88.2006 59.3027 90.7207C59.3027 93.2408 61.3457 95.2837 63.8657 95.2837Z" fill="#FFC84D"/>
</g>
<defs>
<clipPath id="clip0_1165_22837">
<rect width="104" height="104" fill="white"/>
</clipPath>
</defs>
</svg>
