<svg width="36" height="36" viewBox="0 0 36 36" fill="none" xmlns="http://www.w3.org/2000/svg">
<path fill-rule="evenodd" clip-rule="evenodd" d="M5.196 5.196C3 7.395 3 10.929 3 18C3 25.071 3 28.6065 5.196 30.8025C7.395 33 10.929 33 18 33C25.071 33 28.6065 33 30.8025 30.8025C33 28.608 33 25.071 33 18C33 10.929 33 7.3935 30.8025 5.196C28.608 3 25.071 3 18 3C10.929 3 7.3935 3 5.196 5.196ZM24 15C24.7956 15 25.5587 14.6839 26.1213 14.1213C26.6839 13.5587 27 12.7956 27 12C27 11.2043 26.6839 10.4413 26.1213 9.87868C25.5587 9.31607 24.7956 9 24 9C23.2043 9 22.4413 9.31607 21.8787 9.87868C21.3161 10.4413 21 11.2043 21 12C21 12.7956 21.3161 13.5587 21.8787 14.1213C22.4413 14.6839 23.2043 15 24 15ZM9.48 19.656C9.92982 19.2379 10.5268 19.0147 11.1406 19.0352C11.7544 19.0558 12.3351 19.3183 12.756 19.7655L16.728 23.9805C17.307 24.5954 18.092 24.9759 18.9335 25.0495C19.7749 25.1231 20.614 24.8846 21.291 24.3795C21.7367 24.048 22.2852 23.8846 22.8397 23.9184C23.3941 23.9522 23.9188 24.1808 24.321 24.564L27.723 27.813C27.9403 28.0097 28.2258 28.1138 28.5187 28.1032C28.8116 28.0926 29.0888 27.9681 29.2913 27.7562C29.4938 27.5444 29.6056 27.2618 29.6029 26.9687C29.6003 26.6756 29.4833 26.3952 29.277 26.187L25.875 22.935C25.0882 22.1847 24.0613 21.737 22.9761 21.6711C21.8908 21.6052 20.8173 21.9254 19.9455 22.575C19.7108 22.7498 19.42 22.8322 19.1284 22.8065C18.8369 22.7807 18.565 22.6487 18.3645 22.4355L14.394 18.2205C13.5657 17.3413 12.4234 16.8254 11.2162 16.7852C10.009 16.745 8.83489 17.1839 7.95 18.006L6.735 19.134C6.5162 19.3369 6.38695 19.6184 6.3757 19.9166C6.36445 20.2148 6.47211 20.5052 6.675 20.724C6.87789 20.9428 7.15939 21.072 7.45757 21.0833C7.75576 21.0946 8.0462 20.9869 8.265 20.784L9.48 19.656Z" fill="#5F6775"/>
</svg>
