<svg width="25" height="24" viewBox="0 0 25 24" fill="none" xmlns="http://www.w3.org/2000/svg">
<path d="M12.4999 2.6001C12.7575 2.6001 12.9897 2.70826 13.1538 2.88163L17.6363 7.36419C17.9878 7.71566 17.9878 8.28551 17.6363 8.63698C17.2848 8.98845 16.715 8.98845 16.3635 8.63698L13.3999 5.67338V15.0001C13.3999 15.4972 12.997 15.9001 12.4999 15.9001C12.0029 15.9001 11.5999 15.4972 11.5999 15.0001V5.67338L8.63635 8.63698C8.28488 8.98845 7.71503 8.98845 7.36356 8.63698C7.01209 8.28551 7.01209 7.71566 7.36356 7.36419L11.8461 2.88163C12.0101 2.70826 12.2424 2.6001 12.4999 2.6001Z" fill="#F6FAFD"/>
<path d="M21.6501 14.9002C21.6501 14.4031 21.2472 14.0002 20.7501 14.0002C20.2531 14.0002 19.8502 14.4031 19.8502 14.9002V17.4503C19.8502 18.2649 19.8391 18.4587 19.7963 18.5902C19.6875 18.9251 19.425 19.1876 19.0901 19.2965C18.9586 19.3392 18.7647 19.3503 17.9502 19.3503H7.0502C6.23564 19.3503 6.04181 19.3392 5.91029 19.2965C5.57541 19.1876 5.31285 18.9251 5.20405 18.5902C5.16131 18.4587 5.15021 18.2649 5.15021 17.4503V14.9002C5.15021 14.4031 4.74726 14.0002 4.2502 14.0002C3.75314 14.0002 3.35019 14.4031 3.35019 14.9002V17.0857C3.35018 17.6155 3.35017 18.0668 3.38043 18.4372C3.41223 18.8263 3.48186 19.2049 3.66627 19.5669C3.94431 20.1125 4.38795 20.5562 4.93362 20.8342C5.29555 21.0186 5.67414 21.0883 6.0633 21.1201C6.43371 21.1503 6.88487 21.1503 7.4147 21.1503H17.5855C18.1154 21.1503 18.5666 21.1503 18.937 21.1201C19.3262 21.0883 19.7048 21.0186 20.0667 20.8342C20.6124 20.5562 21.056 20.1125 21.334 19.5669C21.5185 19.2049 21.5881 18.8263 21.6199 18.4372C21.6502 18.0668 21.6501 17.6156 21.6501 17.0858V14.9002Z" fill="#F6FAFD"/>
</svg>
