<svg width="82" height="83" viewBox="0 0 82 83" fill="none" xmlns="http://www.w3.org/2000/svg">
<mask id="path-1-inside-1_2703_29601" fill="white">
<path d="M76.766 19.145C79.6566 19.6061 81.6266 22.3241 81.1655 25.2147L80.0355 32.2979C80.0246 32.3661 79.9599 32.4105 79.8917 32.3996C77.0696 31.9496 74.4165 33.8724 73.9662 36.6945C73.5163 39.5165 75.4395 42.1686 78.2613 42.619C78.3296 42.6299 78.3772 42.6922 78.3664 42.7604L77.2362 49.8446C76.7749 52.735 74.0572 54.7043 71.1667 54.2431L22.523 46.4829C19.6325 46.0218 17.6634 43.3048 18.1243 40.4143L18.8586 35.8119C19.0879 34.3741 20.5031 33.4602 21.8697 32.9581C23.5711 32.3329 24.8934 30.8307 25.1993 28.9136C25.6352 26.1797 23.8436 23.6052 21.1654 23.0378C21.0201 23.0107 20.9228 22.8728 20.946 22.7268L22.0536 15.7844C22.5147 12.8938 25.2317 10.9236 28.1223 11.3847L76.766 19.145Z"/>
</mask>
<g filter="url(#filter0_i_2703_29601)">
<path d="M76.766 19.145C79.6566 19.6061 81.6266 22.3241 81.1655 25.2147L80.0355 32.2979C80.0246 32.3661 79.9599 32.4105 79.8917 32.3996C77.0696 31.9496 74.4165 33.8724 73.9662 36.6945C73.5163 39.5165 75.4395 42.1686 78.2613 42.619C78.3296 42.6299 78.3772 42.6922 78.3664 42.7604L77.2362 49.8446C76.7749 52.735 74.0572 54.7043 71.1667 54.2431L22.523 46.4829C19.6325 46.0218 17.6634 43.3048 18.1243 40.4143L18.8586 35.8119C19.0879 34.3741 20.5031 33.4602 21.8697 32.9581C23.5711 32.3329 24.8934 30.8307 25.1993 28.9136C25.6352 26.1797 23.8436 23.6052 21.1654 23.0378C21.0201 23.0107 20.9228 22.8728 20.946 22.7268L22.0536 15.7844C22.5147 12.8938 25.2317 10.9236 28.1223 11.3847L76.766 19.145Z" fill="url(#paint0_linear_2703_29601)"/>
</g>
<path d="M81.1655 25.2147L81.6862 25.2977L81.1655 25.2147ZM73.9662 36.6945L73.4456 36.6115L73.4456 36.6115L73.9662 36.6945ZM77.2362 49.8446L77.7569 49.9277L77.7569 49.9277L77.2362 49.8446ZM18.1243 40.4143L17.6036 40.3313L17.6036 40.3313L18.1243 40.4143ZM25.1993 28.9136L25.72 28.9967L25.72 28.9967L25.1993 28.9136ZM22.0536 15.7844L21.5329 15.7013L22.0536 15.7844ZM21.8697 32.9581L21.6878 32.4632L21.8697 32.9581ZM80.0355 32.2979L79.5148 32.2148L80.0355 32.2979ZM76.766 19.145L76.6829 19.6657C79.2859 20.0809 81.0601 22.5286 80.6448 25.1316L81.1655 25.2147L81.6862 25.2977C82.1932 22.1196 80.0272 19.1313 76.849 18.6243L76.766 19.145ZM81.1655 25.2147L80.6448 25.1316L79.5148 32.2148L80.0355 32.2979L80.5562 32.381L81.6862 25.2977L81.1655 25.2147ZM79.8917 32.3996L79.9747 31.8789C76.8651 31.383 73.9417 33.5018 73.4456 36.6115L73.9662 36.6945L74.4869 36.7776C74.8913 34.2431 77.2741 32.5161 79.8086 32.9203L79.8917 32.3996ZM73.9662 36.6945L73.4456 36.6115C72.9498 39.7211 75.0689 42.6434 78.1782 43.1397L78.2613 42.619L78.3444 42.0983C75.81 41.6938 74.0829 39.3118 74.4869 36.7776L73.9662 36.6945ZM78.3664 42.7604L77.8457 42.6773L76.7155 49.7615L77.2362 49.8446L77.7569 49.9277L78.887 42.8435L78.3664 42.7604ZM77.2362 49.8446L76.7155 49.7615C76.3001 52.3643 73.8528 54.1377 71.2497 53.7225L71.1667 54.2431L71.0836 54.7638C74.2616 55.2708 77.2497 53.1058 77.7569 49.9277L77.2362 49.8446ZM71.1667 54.2431L71.2497 53.7225L22.6061 45.9622L22.523 46.4829L22.4399 47.0036L71.0836 54.7638L71.1667 54.2431ZM22.523 46.4829L22.6061 45.9622C20.0032 45.547 18.2299 43.1003 18.645 40.4974L18.1243 40.4143L17.6036 40.3313C17.0968 43.5093 19.2619 46.4966 22.4399 47.0036L22.523 46.4829ZM18.1243 40.4143L18.645 40.4974L19.3792 35.8949L18.8586 35.8119L18.3379 35.7288L17.6036 40.3313L18.1243 40.4143ZM21.8697 32.9581L22.0516 33.453C23.9248 32.7646 25.3829 31.1099 25.72 28.9967L25.1993 28.9136L24.6786 28.8306C24.404 30.5516 23.2173 31.9011 21.6878 32.4632L21.8697 32.9581ZM25.1993 28.9136L25.72 28.9967C26.2003 25.9839 24.2261 23.1473 21.2747 22.522L21.1654 23.0378L21.0561 23.5536C23.4611 24.0631 25.07 26.3755 24.6786 28.8306L25.1993 28.9136ZM20.946 22.7268L21.4667 22.8099L22.5743 15.8675L22.0536 15.7844L21.5329 15.7013L20.4254 22.6437L20.946 22.7268ZM22.0536 15.7844L22.5743 15.8675C22.9896 13.2643 25.4363 11.4902 28.0392 11.9054L28.1223 11.3847L28.2054 10.8641C25.0271 10.357 22.0399 12.5233 21.5329 15.7013L22.0536 15.7844ZM28.1223 11.3847L28.0392 11.9054L76.6829 19.6657L76.766 19.145L76.849 18.6243L28.2054 10.8641L28.1223 11.3847ZM21.1654 23.0378L21.2619 22.5194C21.3976 22.5447 21.4885 22.6735 21.4667 22.8099L20.946 22.7268L20.4254 22.6437C20.357 23.0721 20.6425 23.4768 21.069 23.5562L21.1654 23.0378ZM18.8586 35.8119L19.3792 35.8949C19.4686 35.3348 19.7912 34.8512 20.2794 34.4356C20.7703 34.0178 21.4047 33.6907 22.0516 33.453L21.8697 32.9581L21.6878 32.4632C20.9681 32.7276 20.2116 33.1085 19.5959 33.6326C18.9775 34.1589 18.4779 34.8512 18.3379 35.7288L18.8586 35.8119ZM78.2613 42.619L78.1783 43.1397C77.9749 43.1072 77.8082 42.9123 77.8457 42.6773L78.3664 42.7604L78.887 42.8435C78.9463 42.472 78.6843 42.1525 78.3444 42.0983L78.2613 42.619ZM80.0355 32.2979L79.5148 32.2148C79.5523 31.9799 79.7713 31.8465 79.9747 31.8789L79.8917 32.3996L79.8086 32.9203C80.1485 32.9745 80.4969 32.7524 80.5562 32.381L80.0355 32.2979Z" fill="url(#paint1_linear_2703_29601)" mask="url(#path-1-inside-1_2703_29601)"/>
<mask id="path-3-inside-2_2703_29601" fill="white">
<path d="M49.1332 28.3346C51.7692 28.0943 54.1012 30.0366 54.3415 32.6727L54.9304 39.1322C54.936 39.1941 54.8895 39.2477 54.8277 39.2534C52.2542 39.488 50.3577 41.7641 50.5921 44.3376C50.8267 46.9113 53.1037 48.8077 55.6773 48.5731C55.7392 48.5675 55.7945 48.6109 55.8002 48.6728L56.3891 55.1332C56.6295 57.7692 54.6871 60.1012 52.0511 60.3416L7.69115 64.3857C5.05513 64.626 2.72313 62.6837 2.48282 60.0477L2.01741 54.9427C1.94363 54.1334 2.55805 53.4389 3.30492 53.1185C5.11762 52.3409 6.30806 50.4625 6.1193 48.3921C5.89179 45.8991 3.74833 44.0419 1.27491 44.1415C1.14101 44.1504 1.02444 44.0509 1.01225 43.9173L0.435156 37.5871C0.194838 34.9511 2.13715 32.6191 4.77317 32.3788L49.1332 28.3346Z"/>
</mask>
<path d="M49.1332 28.3346C51.7692 28.0943 54.1012 30.0366 54.3415 32.6727L54.9304 39.1322C54.936 39.1941 54.8895 39.2477 54.8277 39.2534C52.2542 39.488 50.3577 41.7641 50.5921 44.3376C50.8267 46.9113 53.1037 48.8077 55.6773 48.5731C55.7392 48.5675 55.7945 48.6109 55.8002 48.6728L56.3891 55.1332C56.6295 57.7692 54.6871 60.1012 52.0511 60.3416L7.69115 64.3857C5.05513 64.626 2.72313 62.6837 2.48282 60.0477L2.01741 54.9427C1.94363 54.1334 2.55805 53.4389 3.30492 53.1185C5.11762 52.3409 6.30806 50.4625 6.1193 48.3921C5.89179 45.8991 3.74833 44.0419 1.27491 44.1415C1.14101 44.1504 1.02444 44.0509 1.01225 43.9173L0.435156 37.5871C0.194838 34.9511 2.13715 32.6191 4.77317 32.3788L49.1332 28.3346Z" fill="url(#paint2_linear_2703_29601)" fill-opacity="0.9"/>
<path d="M49.1332 28.3346L49.0605 27.5379L49.1332 28.3346ZM54.3415 32.6727L55.1382 32.6L54.3415 32.6727ZM50.5921 44.3376L49.7954 44.4102L49.7954 44.4102L50.5921 44.3376ZM52.0511 60.3416L52.1238 61.1383L52.0511 60.3416ZM6.1193 48.3921L6.916 48.3194L6.91599 48.3194L6.1193 48.3921ZM0.435156 37.5871L1.23185 37.5145L0.435156 37.5871ZM4.77317 32.3788L4.84581 33.1755L4.77317 32.3788ZM3.30492 53.1185L2.98955 52.3833L3.30492 53.1185ZM54.9304 39.1322L54.1337 39.2048L54.9304 39.1322ZM49.1332 28.3346L49.2058 29.1313C51.4018 28.9311 53.3446 30.5493 53.5448 32.7453L54.3415 32.6727L55.1382 32.6C54.8577 29.524 52.1365 27.2575 49.0605 27.5379L49.1332 28.3346ZM54.3415 32.6727L53.5448 32.7453L54.1337 39.2048L54.9304 39.1322L55.7271 39.0596L55.1382 32.6L54.3415 32.6727ZM54.8277 39.2534L54.755 38.4567C51.7417 38.7314 49.5209 41.3966 49.7954 44.4102L50.5921 44.3376L51.3888 44.2651C51.1945 42.1317 52.7666 40.2446 54.9003 40.0501L54.8277 39.2534ZM50.5921 44.3376L49.7954 44.4102C50.0701 47.4239 52.7363 49.6445 55.75 49.3698L55.6773 48.5731L55.6047 47.7764C53.471 47.9709 51.5833 46.3986 51.3888 44.265L50.5921 44.3376ZM55.8002 48.6728L55.0035 48.7454L55.5924 55.2059L56.3891 55.1332L57.1858 55.0606L56.5969 48.6001L55.8002 48.6728ZM56.3891 55.1332L55.5924 55.2059C55.7927 57.4019 54.1745 59.3447 51.9785 59.5449L52.0511 60.3416L52.1238 61.1383C55.1998 60.8578 57.4663 58.1366 57.1858 55.0606L56.3891 55.1332ZM52.0511 60.3416L51.9785 59.5449L7.61851 63.589L7.69115 64.3857L7.76378 65.1824L52.1238 61.1383L52.0511 60.3416ZM7.69115 64.3857L7.61851 63.589C5.4225 63.7892 3.47972 62.1711 3.27951 59.9751L2.48282 60.0477L1.68612 60.1203C1.96655 63.1964 4.68776 65.4628 7.76378 65.1824L7.69115 64.3857ZM2.48282 60.0477L3.27951 59.9751L2.81411 54.8701L2.01741 54.9427L1.22071 55.0154L1.68612 60.1203L2.48282 60.0477ZM3.30492 53.1185L3.62029 53.8537C5.74204 52.9436 7.13714 50.7451 6.916 48.3194L6.1193 48.3921L5.32261 48.4647C5.47898 50.1799 4.4932 51.7383 2.98955 52.3833L3.30492 53.1185ZM6.1193 48.3921L6.91599 48.3194C6.64956 45.3999 4.13968 43.2255 1.24271 43.3421L1.27491 44.1415L1.3071 44.9408C3.35698 44.8583 5.13402 46.3982 5.32261 48.4648L6.1193 48.3921ZM1.01225 43.9173L1.80895 43.8446L1.23185 37.5145L0.435156 37.5871L-0.36154 37.6598L0.215557 43.9899L1.01225 43.9173ZM0.435156 37.5871L1.23185 37.5145C1.03165 35.3185 2.64979 33.3757 4.84581 33.1755L4.77317 32.3788L4.70054 31.5821C1.62452 31.8625 -0.641972 34.5837 -0.36154 37.6598L0.435156 37.5871ZM4.77317 32.3788L4.84581 33.1755L49.2058 29.1313L49.1332 28.3346L49.0605 27.5379L4.70054 31.5821L4.77317 32.3788ZM1.27491 44.1415L1.22164 43.3433C1.52104 43.3233 1.78171 43.5458 1.80895 43.8446L1.01225 43.9173L0.215557 43.9899C0.267168 44.556 0.760979 44.9776 1.32817 44.9397L1.27491 44.1415ZM2.01741 54.9427L2.81411 54.8701C2.78387 54.5384 3.0496 54.0985 3.62029 53.8537L3.30492 53.1185L2.98955 52.3833C2.06649 52.7792 1.10338 53.7283 1.22071 55.0154L2.01741 54.9427ZM55.6773 48.5731L55.75 49.3698C55.3989 49.4018 55.0404 49.1501 55.0035 48.7454L55.8002 48.6728L56.5969 48.6001C56.5487 48.0716 56.0795 47.7331 55.6047 47.7764L55.6773 48.5731ZM54.9304 39.1322L54.1337 39.2048C54.0976 38.8089 54.3949 38.4895 54.7551 38.4567L54.8277 39.2534L54.9003 40.0501C55.3842 40.0059 55.7744 39.5792 55.7271 39.0596L54.9304 39.1322Z" fill="url(#paint3_linear_2703_29601)" mask="url(#path-3-inside-2_2703_29601)"/>
<path d="M65.5535 57.1316C65.5121 56.8006 65.9603 56.6592 66.1161 56.9543L67.198 59.0031C67.2928 59.1825 67.4868 59.2869 67.6888 59.2672L69.9805 59.0436C70.303 59.0124 70.439 59.444 70.1569 59.6033L68.1511 60.7341C67.9743 60.8338 67.8753 61.0306 67.9005 61.2319L68.1888 63.5309C68.2304 63.8619 67.7821 64.0031 67.6263 63.7082L66.5444 61.6593C66.4496 61.4799 66.2555 61.3756 66.0536 61.3952L63.7619 61.6188C63.4391 61.6503 63.3029 61.2184 63.5855 61.0591L65.5913 59.9283C65.768 59.8285 65.8672 59.6318 65.8419 59.4305L65.5535 57.1316Z" fill="url(#paint4_linear_2703_29601)" stroke="url(#paint5_linear_2703_29601)" stroke-width="0.2"/>
<path d="M10.8401 27.0375C10.8167 27.3511 11.2459 27.4632 11.3787 27.1781L12.7001 24.3376C12.7887 24.1475 12.9841 24.0296 13.1937 24.0395L16.2553 24.1843C16.5605 24.1984 16.6683 23.7853 16.3951 23.6486L13.653 22.2791C13.4652 22.1853 13.3523 21.9871 13.368 21.7778L13.6027 18.6539C13.626 18.3404 13.1971 18.2286 13.0641 18.5133L11.7417 21.3535C11.6531 21.5438 11.4578 21.6616 11.2481 21.6517L8.18651 21.5068C7.88133 21.4928 7.77359 21.9058 8.04672 22.0426L10.7888 23.4121C10.9766 23.5058 11.0894 23.7041 11.0739 23.9133L10.8401 27.0375Z" fill="url(#paint6_linear_2703_29601)" stroke="url(#paint7_linear_2703_29601)" stroke-width="0.234143"/>
<path d="M71.2546 61.1087C71.2992 60.9618 71.5146 60.9859 71.5254 61.1391L71.5981 62.2056C71.6046 62.2991 71.6672 62.3797 71.7561 62.4091L72.7642 62.7425C72.9063 62.7896 72.8829 62.998 72.7339 63.0123L71.6769 63.1137C71.5837 63.1227 71.5048 63.1874 71.4778 63.277L71.1701 64.3008C71.1257 64.448 70.91 64.4238 70.8993 64.2704L70.8266 63.2038C70.8201 63.1104 70.7575 63.0298 70.6686 63.0004L69.6605 62.667C69.5184 62.6199 69.5419 62.4115 69.6908 62.3972L70.7478 62.2958C70.841 62.2868 70.92 62.2221 70.947 62.1325L71.2546 61.1087Z" fill="url(#paint8_linear_2703_29601)" stroke="url(#paint9_linear_2703_29601)" stroke-width="0.0922659"/>
<path d="M6.24264 18.8948C6.20664 18.9426 6.26426 19.0051 6.31486 18.973L7.65628 18.1225C7.70639 18.0907 7.77085 18.0919 7.81923 18.1262L9.05784 19.0056C9.10534 19.0393 9.16515 18.9841 9.13533 18.9341L8.35734 17.6294C8.32697 17.5784 8.33096 17.5141 8.36659 17.4667L9.32185 16.1965C9.35736 16.1488 9.30005 16.0867 9.24964 16.1183L7.90749 16.9694C7.85742 17.0012 7.79292 17 7.74455 16.9657L6.50527 16.0856C6.45793 16.0525 6.39847 16.1073 6.42778 16.1572L7.20643 17.4626C7.23671 17.5135 7.2328 17.5779 7.19718 17.6253L6.24264 18.8948Z" fill="url(#paint10_linear_2703_29601)" stroke="url(#paint11_linear_2703_29601)" stroke-width="0.0922659"/>
<defs>
<filter id="filter0_i_2703_29601" x="18.0576" y="11.3179" width="63.1748" height="43.6513" filterUnits="userSpaceOnUse" color-interpolation-filters="sRGB">
<feFlood flood-opacity="0" result="BackgroundImageFix"/>
<feBlend mode="normal" in="SourceGraphic" in2="BackgroundImageFix" result="shape"/>
<feColorMatrix in="SourceAlpha" type="matrix" values="0 0 0 0 0 0 0 0 0 0 0 0 0 0 0 0 0 0 127 0" result="hardAlpha"/>
<feOffset dy="0.659088"/>
<feGaussianBlur stdDeviation="0.790905"/>
<feComposite in2="hardAlpha" operator="arithmetic" k2="-1" k3="1"/>
<feColorMatrix type="matrix" values="0 0 0 0 0.628643 0 0 0 0 0.14892 0 0 0 0 0.198633 0 0 0 1 0"/>
<feBlend mode="normal" in2="shape" result="effect1_innerShadow_2703_29601"/>
</filter>
<linearGradient id="paint0_linear_2703_29601" x1="32.7162" y1="3.96884" x2="43.7523" y2="59.937" gradientUnits="userSpaceOnUse">
<stop stop-color="#FF4126"/>
<stop offset="1" stop-color="#FF9C61"/>
</linearGradient>
<linearGradient id="paint1_linear_2703_29601" x1="40.887" y1="13.4211" x2="51.2891" y2="62.5923" gradientUnits="userSpaceOnUse">
<stop stop-color="#FF5906" stop-opacity="0.83"/>
<stop offset="0.754808" stop-color="#FFE4C7" stop-opacity="0.75"/>
<stop offset="1" stop-color="#FF5112" stop-opacity="0.38"/>
</linearGradient>
<linearGradient id="paint2_linear_2703_29601" x1="13.787" y1="31.2388" x2="20.7165" y2="70.649" gradientUnits="userSpaceOnUse">
<stop stop-color="#FFF9F4"/>
<stop offset="0.855769" stop-color="#FFD7D1"/>
<stop offset="1" stop-color="#FFF9F4" stop-opacity="0.67"/>
</linearGradient>
<linearGradient id="paint3_linear_2703_29601" x1="4.87335" y1="38.4955" x2="59.5914" y2="59.3265" gradientUnits="userSpaceOnUse">
<stop stop-color="#FFC09A" stop-opacity="0.16"/>
<stop offset="0.47997" stop-color="#FFF8F3" stop-opacity="0.96"/>
<stop offset="1" stop-color="#FFF1E8"/>
</linearGradient>
<linearGradient id="paint4_linear_2703_29601" x1="60.8739" y1="53.6567" x2="73.3439" y2="63.6812" gradientUnits="userSpaceOnUse">
<stop stop-color="#FFAC26"/>
<stop offset="1" stop-color="#FFAD61"/>
</linearGradient>
<linearGradient id="paint5_linear_2703_29601" x1="63.2313" y1="55.5832" x2="74.2979" y2="64.1302" gradientUnits="userSpaceOnUse">
<stop stop-color="#FFA806" stop-opacity="0.83"/>
<stop offset="0.754808" stop-color="#FFE4C7" stop-opacity="0.75"/>
<stop offset="1" stop-color="#EBFF12" stop-opacity="0.38"/>
</linearGradient>
<linearGradient id="paint6_linear_2703_29601" x1="5.60012" y1="31.0015" x2="19.593" y2="18.5493" gradientUnits="userSpaceOnUse">
<stop stop-color="#FFAC26"/>
<stop offset="1" stop-color="#FFAD61"/>
</linearGradient>
<linearGradient id="paint7_linear_2703_29601" x1="8.24358" y1="28.6107" x2="20.6821" y2="17.9684" gradientUnits="userSpaceOnUse">
<stop stop-color="#FFA806" stop-opacity="0.83"/>
<stop offset="0.754808" stop-color="#FFE4C7" stop-opacity="0.75"/>
<stop offset="1" stop-color="#EBFF12" stop-opacity="0.38"/>
</linearGradient>
<linearGradient id="paint8_linear_2703_29601" x1="69.9307" y1="58.7687" x2="73.316" y2="65.3277" gradientUnits="userSpaceOnUse">
<stop stop-color="#FFAC26"/>
<stop offset="1" stop-color="#FFAD61"/>
</linearGradient>
<linearGradient id="paint9_linear_2703_29601" x1="70.5648" y1="60.0219" x2="73.6344" y2="65.6954" gradientUnits="userSpaceOnUse">
<stop stop-color="#FFA806" stop-opacity="0.83"/>
<stop offset="0.754808" stop-color="#FFE4C7" stop-opacity="0.75"/>
<stop offset="1" stop-color="#EBFF12" stop-opacity="0.38"/>
</linearGradient>
<linearGradient id="paint10_linear_2703_29601" x1="3.85107" y1="18.8436" x2="11.1412" y2="17.6882" gradientUnits="userSpaceOnUse">
<stop stop-color="#FFAC26"/>
<stop offset="1" stop-color="#FFAD61"/>
</linearGradient>
<linearGradient id="paint11_linear_2703_29601" x1="5.23644" y1="18.6126" x2="11.6261" y2="17.727" gradientUnits="userSpaceOnUse">
<stop stop-color="#FFA806" stop-opacity="0.83"/>
<stop offset="0.754808" stop-color="#FFE4C7" stop-opacity="0.75"/>
<stop offset="1" stop-color="#EBFF12" stop-opacity="0.38"/>
</linearGradient>
</defs>
</svg>
