<svg width="21" height="20" viewBox="0 0 21 20" fill="none" xmlns="http://www.w3.org/2000/svg">
    <path fill-rule="evenodd" clip-rule="evenodd" d="M12.0095 0.684881C12.9203 -0.227377 14.3972 -0.228498 15.308 0.682381L18.2165 3.5908C19.1196 4.49391 19.1284 5.95648 18.2363 6.8718L16.3004 8.85807L10.0698 2.6275L12.0095 0.684881ZM8.83282 3.86634L15.0783 10.1119L7.46583 17.9223C6.80676 18.5986 5.90291 18.9799 4.95937 18.9799L1.74795 18.9797C0.753504 18.9797 -0.0402627 18.1511 0.00156109 17.1567L0.139431 13.879C0.176317 13.0021 0.540936 12.1708 1.16107 11.5497L8.83282 3.86634ZM11.5408 18.8946C11.5408 19.378 11.9324 19.7699 12.4154 19.7699H19.5573C20.0403 19.7699 20.4319 19.378 20.4319 18.8946C20.4319 18.4111 20.0403 18.0192 19.5573 18.0192H12.4154C11.9324 18.0192 11.5408 18.4111 11.5408 18.8946Z" fill="#5F6775"/>
</svg>
