<svg width="400" height="78" viewBox="0 0 400 78" fill="none" xmlns="http://www.w3.org/2000/svg">
<path fill-rule="evenodd" clip-rule="evenodd" d="M238.481 42.6526L256.155 23.4511L321.928 23.4504L322.363 8.07195H349.627L338.6 23.4504H362.738L358.831 41.7182H339.381L337.211 52.0388C336.255 56.3735 339.294 58.3347 344.591 58.3347C348.585 58.3347 351.798 58.0247 355.358 57.3022L354.695 61.4237C357.513 57.6642 362.546 55.5482 368.904 55.5482C377.674 55.5482 382.189 59.573 380.8 66.3847C379.411 73.0932 373.159 77.1184 364.39 77.1185C358.541 77.1185 354.546 75.328 352.972 72.1455L352.405 75.6734C348.151 76.6023 343.288 77.1185 336.081 77.1185C320.018 77.1184 309.773 69.7902 313.767 50.8L315.677 41.7182H306.839L299.121 77.015L275.78 77.0157L283.222 42.4404H278.793L282.27 25.5406L258.586 50.0785L275.78 77.0157H250.513L236.419 52.0215L230.895 77.1185H207.104L211.473 57.3022C207.441 67.6047 196.903 77.1177 173.404 77.1178C154.59 77.1178 143.36 68.2947 142.465 55.1059C139.101 66.2107 128.798 77.1178 103.636 77.1178C86.6068 77.1178 75.7915 69.8889 73.2291 58.7373L69.7602 75.4665H1.68652L16.7944 3.22101H43.1036L32.5973 53.2769H72.6389C72.6792 39.9721 80.5362 21.7985 112.84 21.7985C131.748 21.7985 142.903 30.6323 143.779 43.9258C147.155 32.7841 157.493 21.7985 182.608 21.7985C202.318 21.7986 213.605 31.3968 213.605 45.6394C213.605 46.4152 213.578 47.2073 213.522 48.0115L222.09 9.15487L207.104 0.0219727H247.872L238.481 42.6526ZM110.235 39.8594C99.7287 39.8594 96.6026 47.0841 96.6025 51.7284C96.6025 56.3728 99.9891 58.9528 106.328 58.9528C116.747 58.9527 119.872 51.8319 119.872 47.0844C119.872 42.4401 116.4 39.8594 110.235 39.8594ZM180.003 39.8594C169.497 39.8594 166.371 47.0841 166.371 51.7284C166.371 56.3728 169.757 58.9528 176.096 58.9528C186.515 58.9527 189.64 51.8319 189.64 47.0844C189.64 42.4401 186.168 39.8595 180.003 39.8594Z" fill="black"/>
<path d="M379.15 51.8326H360.048L370.294 3.11822H398.687L379.15 51.8326Z" fill="black"/>
<path d="M301.812 2.00938C293.045 2.00938 287.836 5.02672 286.621 11.0614C285.406 16.992 289.312 20.0094 298.079 20.0094C306.847 20.0094 311.969 16.992 313.184 11.0614C314.399 5.02672 310.58 2.00938 301.812 2.00938Z" fill="black"/>
</svg>
