<svg width="82" height="16" viewBox="0 0 82 16" fill="none" xmlns="http://www.w3.org/2000/svg">
<path fill-rule="evenodd" clip-rule="evenodd" d="M48.8936 8.74913L52.519 4.81036L66.0109 4.81022L66.1 1.65567H71.6927L69.4307 4.81022H74.3821L73.5806 8.55746H69.591L69.1458 10.6745C68.9498 11.5637 69.5732 11.966 70.6596 11.966C71.4789 11.966 72.138 11.9024 72.8682 11.7542L72.7323 12.5996C73.3103 11.8284 74.3429 11.3944 75.6471 11.3944C77.446 11.3944 78.3722 12.22 78.0872 13.6173C77.8022 14.9934 76.5199 15.819 74.721 15.8191C73.5213 15.8191 72.7018 15.4518 72.3788 14.799L72.2626 15.5226C71.3899 15.7132 70.3924 15.8191 68.9141 15.8191C65.6191 15.819 63.5175 14.3158 64.3368 10.4204L64.7286 8.55746H62.9157L61.3324 15.7978L56.5445 15.798L58.0711 8.7056H57.1627L57.8759 5.23899L53.0177 10.2724L56.5445 15.798H51.3616L48.4706 10.671L47.3374 15.8191H42.4572L43.3534 11.7542C42.5264 13.8675 40.3647 15.8189 35.5444 15.8189C31.6851 15.8189 29.3815 14.0091 29.198 11.3037C28.5078 13.5816 26.3946 15.8189 21.233 15.8189C17.7399 15.8189 15.5213 14.3361 14.9957 12.0486L14.2841 15.4802H0.320312L3.41937 0.660607H8.81611L6.66098 10.9285H14.8747C14.8829 8.19928 16.4946 4.47137 23.121 4.47137C26.9997 4.47138 29.2878 6.28343 29.4675 9.01031C30.1601 6.72482 32.2806 4.47137 37.4324 4.47137C41.4754 4.47139 43.7908 6.44025 43.7908 9.36181C43.7908 9.52095 43.7852 9.68344 43.7737 9.8484L45.5312 1.87781L42.4572 0.00439453H50.8198L48.8936 8.74913ZM22.5866 8.17617C20.4315 8.17617 19.7903 9.65816 19.7903 10.6108C19.7903 11.5635 20.485 12.0928 21.7851 12.0928C23.9224 12.0928 24.5636 10.6321 24.5636 9.65823C24.5636 8.70554 23.8512 8.17618 22.5866 8.17617ZM36.898 8.17617C34.7429 8.17617 34.1017 9.65816 34.1016 10.6108C34.1016 11.5635 34.7963 12.0928 36.0965 12.0928C38.2338 12.0927 38.8749 10.6321 38.875 9.65823C38.875 8.70555 38.1626 8.17618 36.898 8.17617Z" fill="black"/>
<path d="M77.7487 10.6322H73.8304L75.9321 0.639522H81.7562L77.7487 10.6322Z" fill="black"/>
<path d="M61.8846 0.412068C60.0861 0.412068 59.0177 1.03101 58.7684 2.26889C58.5191 3.48543 59.3204 4.10438 61.1189 4.10438C62.9173 4.10438 63.9679 3.48543 64.2172 2.26889C64.4665 1.03101 63.683 0.412068 61.8846 0.412068Z" fill="black"/>
</svg>
