<svg width="102" height="102" viewBox="0 0 102 102" fill="none" xmlns="http://www.w3.org/2000/svg">
<g filter="url(#filter0_d_2123_417)">
<circle cx="51" cy="49" r="44" fill="white"/>
</g>
<path d="M77.5 74.5C77.7859 78.0784 62.8364 78.0542 51 79C39.1636 79.9458 32.768 79.5583 32.4821 75.9798C32.1962 72.4014 41.5596 68.7338 53.396 67.7879C65.2324 66.8421 77.2141 70.9216 77.5 74.5Z" fill="#848B94" fill-opacity="0.21"/>
<path d="M52.2034 16C61.0582 16 68.7852 20.1369 72.8986 26.2786C74.3771 28.4862 75.9298 30.6786 77.68 32.6776C81.615 37.1718 84 43.0572 84 49.5C84 63.6113 72.5605 75.0508 58.4492 75.0508C56.6984 75.0508 53.9937 75.2767 52.2349 75.4436C51.0804 75.5531 49.9196 75.5531 48.7651 75.4436C47.0063 75.2767 44.3015 75.0508 42.5508 75.0508C28.4395 75.0508 17 63.6113 17 49.5C17 40.9876 21.163 33.4483 27.5639 28.8052C29.8998 27.1108 32.0721 25.1569 34.1159 23.1197C38.4892 18.7607 44.97 16 52.2034 16Z" fill="#90B7EB"/>
<g opacity="0.8">
<path d="M42.306 47.3994C42.1703 46.7792 42.7587 46.2455 43.3628 46.441C43.7338 46.561 43.9695 46.925 43.9273 47.3127L43.4999 51.236C43.4574 51.6269 43.4743 52.0219 43.5502 52.4077L44.2305 55.8652C44.2609 56.0193 44.2526 56.1785 44.2064 56.3286C44.0836 56.7277 43.7149 57 43.2973 57H43.0426C42.4337 57 41.907 56.5761 41.7767 55.9813L41.6503 55.404C41.5955 55.1539 41.5885 54.8958 41.6297 54.6431L42.5507 48.9905C42.5799 48.8113 42.5749 48.6282 42.5361 48.4509L42.306 47.3994Z" fill="#FCFCFC"/>
<path d="M44.1349 48.2498C44.1373 48.3528 44.124 48.5055 44.1068 48.6555C44.0923 48.7832 44.075 48.9088 44.0625 49.0001C44.062 49.0038 44.0615 49.0074 44.061 49.0111C44.0545 49.0582 44.0493 49.1029 44.0432 49.1553C44.0381 49.1989 44.0324 49.2479 44.0249 49.3082C44.0108 49.4204 43.9901 49.5715 43.9548 49.7995C43.9493 49.8531 43.9437 49.9068 43.938 49.9604C43.9328 50.0094 43.9275 50.0583 43.9222 50.1072C43.9038 50.2762 43.8849 50.4452 43.8656 50.6142C43.8407 50.832 43.8151 51.0498 43.7889 51.2675C43.7813 51.33 43.7758 51.3868 43.7714 51.4483C43.7671 51.5087 43.7642 51.5692 43.7628 51.6298C43.7614 51.6904 43.7615 51.751 43.7631 51.8117C43.7647 51.8723 43.7677 51.9329 43.7723 51.9935C43.7769 52.054 43.7829 52.1145 43.7905 52.1748C43.7982 52.236 43.8067 52.2929 43.8176 52.3551C43.8518 52.5479 43.8857 52.7408 43.9194 52.9336C43.9429 53.068 43.9662 53.2023 43.9896 53.3366C43.9924 53.3504 43.9953 53.3644 43.9982 53.3786C44.0071 53.4215 44.0162 53.4659 44.0256 53.5113C44.0657 53.7065 44.1083 53.918 44.138 54.0877C44.1455 54.1304 44.1522 54.1703 44.1577 54.2068C44.1869 54.397 44.2082 54.545 44.2254 54.6691C44.233 54.7236 44.2398 54.7735 44.2461 54.8203C44.2709 54.9632 44.2957 55.1061 44.3206 55.2489C44.3542 55.4418 44.388 55.6347 44.4221 55.8275C44.4272 55.8558 44.4321 55.8906 44.4349 55.9207C44.438 55.9519 44.4397 55.9832 44.4401 56.0145C44.4406 56.0458 44.4398 56.0771 44.4377 56.1083C44.4356 56.1395 44.4322 56.1706 44.4275 56.2015C44.4229 56.2323 44.417 56.263 44.4099 56.2934C44.4027 56.3237 44.3943 56.3538 44.3848 56.3834C44.36 56.4599 44.3273 56.5337 44.2872 56.6032C44.2471 56.6727 44.1996 56.7378 44.146 56.7972C44.0923 56.8565 44.0325 56.9101 43.9678 56.9567C43.9032 57.0034 43.8337 57.0432 43.7608 57.0753C43.6879 57.1074 43.6117 57.1317 43.5339 57.1478C43.4745 57.1601 43.413 57.1677 43.3504 57.1703C43.332 57.171 43.3144 57.1712 43.2973 57.1711C43.2831 57.171 43.269 57.1709 43.2548 57.1708C43.2407 57.1707 43.2265 57.1706 43.2124 57.1705C43.1983 57.1704 43.1841 57.1703 43.17 57.1702C43.1558 57.1701 43.1417 57.17 43.1275 57.1699C43.1134 57.1698 43.0992 57.1697 43.0851 57.1696C43.0709 57.1696 43.0568 57.1695 43.0426 57.1694C42.939 57.1693 42.8193 57.1559 42.7147 57.1312C42.6275 57.1109 42.5423 57.0828 42.4602 57.0472C42.4412 57.0389 42.4222 57.0302 42.4035 57.0211C42.3044 56.973 42.2106 56.9138 42.1246 56.8449C42.0386 56.776 41.9602 56.6975 41.8915 56.6111C41.8621 56.5741 41.8344 56.5357 41.8087 56.4961C41.7721 56.443 41.7395 56.3885 41.7109 56.3334C41.6653 56.246 41.6279 56.1503 41.6025 56.0628C41.5985 56.0489 41.5947 56.0353 41.5912 56.0219C41.5825 55.9895 41.574 55.9577 41.5657 55.9267C41.5571 55.8941 41.5487 55.8623 41.5405 55.8314C41.5319 55.7986 41.5237 55.7667 41.5158 55.7359C41.5073 55.7029 41.4993 55.671 41.4917 55.6404C41.4876 55.6235 41.4836 55.607 41.4798 55.591C41.4761 55.5756 41.4725 55.5601 41.4688 55.5446C41.4615 55.5129 41.4541 55.4808 41.4469 55.4485C41.4371 55.4052 41.4278 55.3559 41.421 55.3103C41.414 55.2639 41.4086 55.2172 41.4048 55.1705C41.401 55.1235 41.3988 55.0765 41.3983 55.0301C41.3976 54.9826 41.3987 54.9356 41.4011 54.8897C41.4037 54.8419 41.4079 54.7951 41.4133 54.7499C41.419 54.7027 41.4266 54.6534 41.4345 54.6113C41.4383 54.5913 41.442 54.5717 41.4456 54.5526C41.454 54.5084 41.4618 54.4667 41.4691 54.4282C41.5008 54.2121 41.5323 53.9959 41.5637 53.7798C41.5681 53.7658 41.5726 53.7516 41.5772 53.7372C41.5841 53.7158 41.5907 53.6936 41.597 53.6707C41.6437 53.5018 41.678 53.289 41.7286 52.9756C41.7408 52.9003 41.7539 52.8192 41.7683 52.7315C41.7836 52.6386 41.8004 52.5383 41.8191 52.4297C41.8426 52.2937 41.8649 52.2254 41.8831 52.1697C41.8884 52.1533 41.8935 52.1379 41.898 52.1222C41.9137 52.0686 41.9158 52.0097 41.9183 51.9401C41.9199 51.8951 41.9217 51.8457 41.9273 51.7903C41.9331 51.7345 41.9428 51.6727 41.9603 51.6034C42.0627 51.199 42.076 50.9964 42.0809 50.8482C42.0813 50.835 42.0817 50.8223 42.082 50.8098C42.0833 50.7652 42.0845 50.7248 42.0882 50.6838C42.1001 50.5508 42.14 50.3651 42.1759 50.2257C42.1947 50.1529 42.2126 50.0297 42.2269 49.9049C42.2343 49.8404 42.2407 49.7755 42.2457 49.7168C42.2513 49.6516 42.2654 49.5645 42.282 49.462C42.2992 49.3559 42.319 49.2331 42.335 49.1009C42.3411 49.0498 42.3469 49.0024 42.3522 48.9582C42.3556 48.9289 42.3572 48.906 42.3586 48.8806C42.36 48.8532 42.3605 48.8274 42.3602 48.803C42.3599 48.7755 42.3587 48.7498 42.357 48.7257C42.355 48.6982 42.3522 48.6728 42.349 48.649C42.3452 48.6217 42.3409 48.5966 42.3362 48.5732C42.3326 48.5552 42.3287 48.5376 42.3249 48.5223C42.323 48.5147 42.321 48.5067 42.3188 48.4984C42.3112 48.4688 42.3038 48.4404 42.2965 48.4121C42.2893 48.3844 42.2818 48.3551 42.2741 48.3246C42.2602 48.2699 42.2456 48.2112 42.2306 48.1505C42.2187 48.1023 42.2066 48.0529 42.1944 48.0033C42.1922 47.9943 42.19 47.9852 42.1877 47.9762C42.1733 47.9176 42.1589 47.859 42.1448 47.802C42.1297 47.7414 42.115 47.6827 42.101 47.6279C42.0907 47.5874 42.0807 47.549 42.0713 47.5136C42.0673 47.4936 42.0633 47.4735 42.0593 47.4534C42.0362 47.3476 42.0292 47.1981 42.0485 47.0807C42.0669 46.9564 42.108 46.8361 42.1682 46.7274C42.2283 46.6187 42.3071 46.5216 42.3995 46.4407C42.4515 46.3952 42.5078 46.3548 42.5675 46.3202C42.6145 46.2929 42.6637 46.2705 42.7135 46.2532C42.839 46.2093 42.9672 46.2002 43.0728 46.2161C43.1085 46.2214 43.1424 46.2293 43.1724 46.2391C43.3285 46.2917 43.3849 46.3745 43.3685 46.4231C43.3514 46.4747 43.2664 46.4958 43.1529 46.5271C43.1308 46.5334 43.1074 46.54 43.0841 46.5473C43.0148 46.5687 42.9417 46.5966 42.8704 46.6342C42.8421 46.6491 42.8141 46.6654 42.7866 46.6831C42.7517 46.7056 42.7191 46.7315 42.6893 46.7602C42.6362 46.8111 42.5924 46.871 42.5604 46.9357C42.5284 47.0005 42.5083 47.0699 42.5009 47.1406C42.4942 47.2169 42.4974 47.2695 42.5162 47.3534C42.5239 47.3856 42.5315 47.4178 42.5392 47.4499C42.5454 47.476 42.5515 47.502 42.5577 47.528C42.5715 47.5862 42.5852 47.6444 42.5989 47.7026C42.6126 47.7608 42.6263 47.819 42.6399 47.8773C42.6534 47.9355 42.667 47.9938 42.6804 48.052C42.6939 48.1103 42.7073 48.1686 42.7206 48.2269C42.7339 48.2852 42.7472 48.3435 42.7603 48.4018C42.7675 48.4336 42.7748 48.4713 42.7801 48.5049C42.7855 48.5394 42.7899 48.5742 42.7931 48.609C42.7964 48.6439 42.7985 48.6788 42.7995 48.7138C42.8005 48.7488 42.8004 48.7838 42.7992 48.8188C42.7988 48.8309 42.7982 48.843 42.7975 48.8551C42.7962 48.8779 42.7944 48.9008 42.7921 48.9235C42.7888 48.9573 42.7837 48.9955 42.7784 49.0276C42.7347 49.2937 42.6902 49.5597 42.6449 49.8256C42.6394 49.858 42.6338 49.8904 42.6283 49.9229C42.6265 49.9384 42.6248 49.9539 42.623 49.9694C42.5945 50.2207 42.5653 50.4672 42.5406 50.6434C42.5254 50.7524 42.5083 50.8398 42.492 50.9152C42.4853 50.9466 42.4786 50.9759 42.4723 51.0039C42.4574 51.0693 42.4443 51.1272 42.4352 51.1865C42.4303 51.2183 42.4241 51.2619 42.4165 51.3144C42.3969 51.4505 42.3686 51.6469 42.3335 51.8565C42.3133 51.977 42.2908 52.1019 42.2665 52.2222C42.2369 52.3682 42.198 52.5372 42.1609 52.6985C42.1536 52.73 42.1464 52.7612 42.1394 52.792C42.0949 52.9859 42.0565 53.1592 42.0448 53.2546C42.0262 53.4057 41.9964 53.5726 41.9663 53.7309C41.9578 53.7757 41.9493 53.8198 41.941 53.8627C41.9052 54.0481 41.874 54.2102 41.8676 54.3043C41.8601 54.4167 41.8404 54.5104 41.8112 54.6497C41.8097 54.657 41.8082 54.6644 41.8066 54.6719C41.7989 54.7084 41.7923 54.7436 41.7863 54.7868C41.7813 54.8222 41.7772 54.8608 41.7746 54.903C41.7727 54.9335 41.7716 54.9659 41.7717 55.0004C41.7717 55.007 41.7717 55.0135 41.7718 55.02C41.7722 55.0619 41.7737 55.1007 41.7758 55.1371C41.7782 55.1793 41.7815 55.2181 41.7852 55.2542C41.7898 55.2971 41.7945 55.3333 41.8005 55.3711C41.8023 55.3826 41.8042 55.3939 41.806 55.4049C41.8095 55.4268 41.8129 55.4479 41.8163 55.4685C41.8218 55.5018 41.8272 55.5339 41.833 55.5656C41.8388 55.5978 41.8451 55.6297 41.8521 55.6623C41.8587 55.6933 41.8661 55.7249 41.8746 55.7582C41.8823 55.7884 41.8908 55.8199 41.9005 55.8533C41.9009 55.8545 41.9012 55.8557 41.9016 55.8569C41.9104 55.8871 41.9192 55.9177 41.9278 55.9482C41.9278 55.9482 41.9278 55.9482 41.9278 55.9482C41.954 56.0388 41.9844 56.1114 42.0216 56.1866C42.0474 56.2382 42.0749 56.2856 42.1014 56.3282C42.1167 56.3529 42.1345 56.3783 42.1544 56.4038C42.1793 56.4356 42.2074 56.4673 42.238 56.4979C42.2681 56.528 42.3006 56.557 42.3343 56.5843C42.3823 56.6231 42.4328 56.6583 42.4821 56.6897C42.5041 56.7037 42.5252 56.7169 42.5453 56.7292C42.5884 56.7557 42.6276 56.7787 42.6649 56.7982C42.6819 56.8071 42.6987 56.8153 42.7151 56.8226C42.7371 56.829 42.7592 56.8347 42.7816 56.8398C42.8244 56.8495 42.8687 56.8569 42.9115 56.8615C42.9221 56.861 42.9333 56.8602 42.9449 56.8593C42.9731 56.857 43.0051 56.8536 43.0426 56.8489C43.0563 56.8473 43.0704 56.8457 43.0851 56.8442C43.0988 56.8428 43.1129 56.8415 43.1275 56.8403C43.1413 56.8391 43.1554 56.8381 43.17 56.8371C43.1748 56.8368 43.1796 56.8365 43.1846 56.8363C43.1939 56.8357 43.2032 56.8352 43.2124 56.8348C43.2267 56.8341 43.2408 56.8335 43.2548 56.8331C43.2691 56.8326 43.2833 56.8322 43.2973 56.832C43.3604 56.8302 43.4061 56.8259 43.4626 56.8163C43.4988 56.8099 43.5348 56.8014 43.5707 56.7902C43.5884 56.7847 43.6059 56.7785 43.6235 56.7715C43.6734 56.7517 43.7233 56.7257 43.7715 56.6909C43.7945 56.6744 43.817 56.6559 43.8388 56.6351C43.8578 56.617 43.8765 56.597 43.8944 56.5752C43.9291 56.5332 43.9603 56.485 43.9855 56.4343C43.9864 56.4325 43.9873 56.4306 43.9882 56.4287C44.0124 56.3794 44.0309 56.3281 44.0441 56.2786C44.0441 56.2786 44.0441 56.2786 44.0441 56.2786C44.0498 56.2573 44.0546 56.2364 44.0586 56.2162C44.0629 56.1942 44.0663 56.1731 44.069 56.1531C44.0718 56.1327 44.074 56.1135 44.0758 56.0959C44.0761 56.0937 44.0763 56.0916 44.0765 56.0895C44.0792 56.0666 44.0832 56.0457 44.087 56.0251C44.0882 56.0185 44.0894 56.0118 44.0905 56.0052C44.0905 56.0051 44.0906 56.0049 44.0906 56.0048C44.0909 56.0028 44.0912 56.0009 44.0916 55.9989C44.0904 55.9858 44.089 55.9728 44.0872 55.9599C44.0842 55.9374 44.0809 55.919 44.0758 55.8956C44.0343 55.7043 43.9925 55.513 43.9505 55.3217C43.9451 55.2968 43.9396 55.2719 43.9341 55.247C43.9281 55.225 43.922 55.2027 43.916 55.1806C43.8867 55.0728 43.8582 54.968 43.8339 54.9008C43.8227 54.8699 43.8083 54.8185 43.792 54.7544C43.7698 54.6672 43.7439 54.5567 43.7172 54.4428C43.6967 54.3551 43.6756 54.2653 43.6555 54.1827C43.6459 54.1435 43.6365 54.1059 43.6275 54.0709C43.6111 54.0074 43.6056 53.9451 43.6001 53.881C43.5949 53.8212 43.5895 53.7598 43.575 53.6944C43.5687 53.6661 43.5606 53.6362 43.5519 53.6045C43.5505 53.5995 43.549 53.5944 43.5476 53.5892C43.5385 53.5563 43.5288 53.5215 43.5199 53.4849C43.5116 53.4508 43.5001 53.3736 43.4853 53.2746C43.4762 53.2134 43.4658 53.1439 43.4542 53.0711C43.451 53.0564 43.4478 53.0417 43.4446 53.0271C43.4061 52.8514 43.3678 52.6757 43.3297 52.5C43.324 52.4838 43.3183 52.4686 43.3123 52.4545C43.3039 52.4343 43.2954 52.4158 43.2867 52.3997C43.2759 52.3798 43.2644 52.3628 43.2528 52.3455C43.2371 52.3222 43.221 52.2979 43.2061 52.2629C43.2057 52.2618 43.2052 52.2607 43.2047 52.2596C43.1939 52.2329 43.1871 52.2014 43.1873 52.1793C43.1875 52.1686 43.1892 52.1602 43.1908 52.1525C43.1926 52.1438 43.1943 52.136 43.1932 52.1269C43.1924 52.1203 43.1896 52.1137 43.1863 52.1055C43.1811 52.0926 43.1743 52.0758 43.1716 52.0497C43.1715 52.0493 43.1715 52.0489 43.1714 52.0485C43.1649 51.9828 43.1603 51.9109 43.1581 51.8376C43.1569 51.7996 43.1563 51.7613 43.1563 51.7232C43.1562 51.6902 43.1566 51.6574 43.1572 51.6252C43.1587 51.5492 43.162 51.4767 43.1652 51.413C43.1657 51.4023 43.1662 51.3918 43.1667 51.3816C43.1692 51.3313 43.1759 51.2657 43.1853 51.2017C43.1953 51.1339 43.2073 51.0601 43.2192 50.9862C43.2352 50.8878 43.2511 50.7893 43.2625 50.7045C43.2693 50.6541 43.2739 50.6021 43.2776 50.5501C43.28 50.5166 43.2821 50.483 43.2841 50.4498C43.2903 50.3484 43.2962 50.2509 43.3117 50.1692C43.3148 50.1527 43.3251 50.1329 43.338 50.108C43.3472 50.0904 43.3577 50.0701 43.3678 50.0468C43.3732 49.9979 43.3786 49.949 43.384 49.9001C43.3903 49.8441 43.3966 49.7881 43.4031 49.7322C43.4024 49.7283 43.4017 49.7244 43.401 49.7205C43.4009 49.7204 43.4009 49.7203 43.4009 49.7203C43.3846 49.6313 43.3624 49.5096 43.4014 49.3462C43.4113 49.3046 43.424 49.2792 43.4354 49.2563C43.4374 49.2524 43.4393 49.2485 43.4412 49.2447C43.45 49.2264 43.4576 49.2083 43.4617 49.1831C43.4674 49.1485 43.4665 49.1068 43.4656 49.0613C43.4643 48.9974 43.4629 48.926 43.479 48.8564C43.4801 48.8516 43.4813 48.8465 43.4826 48.8412C43.4942 48.7906 43.5113 48.7158 43.5375 48.6424C43.5396 48.6263 43.5417 48.6103 43.5438 48.5942C43.571 48.3871 43.5988 48.1801 43.6271 47.9732C43.6285 47.9628 43.6299 47.9524 43.6313 47.9421C43.6611 47.7248 43.6913 47.5075 43.7217 47.2903C43.729 47.2356 43.7303 47.2001 43.7268 47.1496C43.7231 47.1025 43.7141 47.0558 43.6997 47.0103C43.695 46.9954 43.6897 46.9807 43.6838 46.9662C43.6717 46.9359 43.6583 46.9063 43.6437 46.8777C43.6206 46.8323 43.5948 46.7894 43.5678 46.7494C43.5387 46.7064 43.5083 46.6668 43.4797 46.6306C43.477 46.6271 43.4743 46.6238 43.4717 46.6204C43.4036 46.535 43.3531 46.472 43.3685 46.4231C43.3828 46.3766 43.4692 46.3446 43.6136 46.384C43.6191 46.3855 43.6247 46.3872 43.6303 46.389C43.6906 46.4081 43.7567 46.4407 43.8208 46.4878C43.8804 46.5316 43.9382 46.588 43.9877 46.6549C44.019 46.6971 44.0471 46.7433 44.0706 46.7925C44.0819 46.8161 44.0924 46.8402 44.1019 46.8646C44.131 46.9393 44.1517 47.0176 44.1631 47.0974C44.1748 47.1731 44.1766 47.2681 44.1701 47.3391C44.1582 47.4909 44.1463 47.6428 44.1342 47.7945C44.1336 47.8102 44.1329 47.8258 44.1322 47.8415C44.1298 47.8944 44.1291 47.9458 44.1294 47.9963C44.1297 48.0566 44.1313 48.1157 44.1329 48.1748C44.1336 48.1998 44.1343 48.2248 44.1349 48.2498Z" fill="#FCFCFC"/>
</g>
<g opacity="0.8">
<path d="M58.2255 47.0001C58.8493 46.9854 59.2966 46.3494 59.7745 46.8592C60.0765 47.1813 60.4901 50.4105 60.4929 52.4901C60.4946 53.701 59.9681 54.7279 59.9687 55.8607C59.9695 57.1673 60.2888 59.5705 60.286 60.9994C60.2822 62.9368 59.9263 63.75 59.6201 63.8352C59.0881 63.9831 58.7232 64.1162 58.2255 63.8352C57.7278 63.5541 57.0962 62.5563 57.1152 60.9994C57.1341 59.4424 58.6489 52.5512 58.5741 50.9873C58.4994 49.4235 57.6017 47.0147 58.2255 47.0001Z" fill="#FCFCFC"/>
<path d="M58.3183 47.5442C58.3341 47.6183 58.3502 47.7368 58.3736 47.8859C58.4016 48.0678 58.4419 48.3027 58.4753 48.4844C58.4763 48.4898 58.4773 48.4953 58.4783 48.5008C58.4784 48.5012 58.4785 48.5017 58.4786 48.5021C58.4934 48.5825 58.5082 48.6566 58.5282 48.7546C58.5557 48.8912 58.589 49.0498 58.6488 49.3624C58.6913 49.6121 58.7533 49.8491 58.8411 50.6069C58.8556 50.7388 58.8657 50.8655 58.8708 50.9731C58.8772 51.1002 58.8739 51.2329 58.8668 51.3687C58.8399 51.8307 58.7817 52.2631 58.7185 52.7069C58.6375 53.2635 58.5425 53.8228 58.4439 54.3776C58.3447 54.9342 58.2412 55.4858 58.1361 56.0397C58.0989 56.2355 58.0618 56.4301 58.0243 56.6261C58.0206 56.6481 58.0168 56.6704 58.013 56.693C57.9584 57.0135 57.8943 57.3905 57.8376 57.7016C57.817 57.8151 57.7977 57.9175 57.7798 58.0074C57.6942 58.4363 57.6347 58.7286 57.5863 58.9681C57.5636 59.0962 57.5403 59.2308 57.5189 59.3559C57.428 59.9099 57.3294 60.4732 57.3048 61.0017C57.299 61.4603 57.3427 61.7727 57.3935 62.0355C57.4458 62.2962 57.5095 62.4985 57.5756 62.6709C57.642 62.8426 57.711 62.9817 57.7784 63.0984C57.8464 63.2158 57.9127 63.3102 57.9763 63.3889C57.9773 63.3901 57.9783 63.3914 57.9793 63.3926C58.0415 63.469 58.1012 63.5301 58.1558 63.578C58.2129 63.6277 58.256 63.6586 58.3081 63.6888C58.3779 63.7281 58.4349 63.7543 58.5 63.7777C58.5078 63.7804 58.5158 63.7831 58.5236 63.7857C58.5788 63.8037 58.634 63.8164 58.6902 63.8238C58.7545 63.8322 58.8206 63.8338 58.8906 63.8288C58.9605 63.8238 59.0343 63.8121 59.1107 63.7957C59.1871 63.7793 59.2656 63.7586 59.3437 63.7369C59.4215 63.7152 59.4991 63.6926 59.5745 63.6713C59.5758 63.6709 59.5771 63.6705 59.5782 63.67C59.5928 63.6606 59.5928 63.654 59.5997 63.6445C59.604 63.639 59.61 63.6318 59.6161 63.6236C59.6255 63.611 59.6365 63.5953 59.6481 63.5769C59.6697 63.543 59.6943 63.4986 59.7198 63.4469C59.7218 63.4429 59.7237 63.439 59.7257 63.4349C59.7566 63.3707 59.7935 63.2865 59.8355 63.1582C59.8774 63.0282 59.9242 62.8597 59.9708 62.593C60.02 62.2812 60.0808 61.9123 60.0897 60.999C60.0898 60.9983 60.0898 60.9977 60.0898 60.997C60.091 60.922 60.0913 60.8477 60.091 60.7833C60.0846 60.5512 60.0721 60.3232 60.0571 60.0964C60.0483 59.9649 60.0386 59.834 60.0284 59.7041C60.0288 59.6803 60.0293 59.6562 60.0298 59.6316C60.0326 59.5075 60.0292 59.3716 60.0209 59.2156C60.009 58.9915 59.9867 58.7251 59.958 58.3896C59.957 58.3775 59.956 58.3653 59.9549 58.3531C59.9346 58.1141 59.911 57.8402 59.8878 57.5245C59.8874 57.5182 59.8869 57.5119 59.8865 57.5058C59.8724 57.304 59.8754 57.1984 59.8778 57.1109C59.8786 57.0845 59.8793 57.0599 59.8796 57.0351C59.8805 56.949 59.8672 56.8613 59.8519 56.7561C59.8481 56.7295 59.8441 56.7023 59.8402 56.673C59.8245 56.5553 59.8101 56.416 59.8138 56.2445C59.817 56.099 59.8201 55.9702 59.8231 55.8607C59.8297 55.6263 59.8456 55.4455 59.8562 55.3047C59.8652 55.1908 59.8723 55.099 59.8797 55.0163C59.886 54.947 59.8926 54.8842 59.9025 54.8202C59.9063 54.7956 59.9107 54.7697 59.9157 54.743C59.9471 54.5734 60.0019 54.3678 60.0533 54.1919C60.0619 54.1624 60.0704 54.1337 60.0787 54.1061C60.1108 53.9988 60.1517 53.8214 60.1853 53.6363C60.2057 53.5239 60.2232 53.4085 60.2355 53.3051C60.2434 53.2395 60.2547 53.1595 60.2659 53.0674C60.2724 53.0143 60.2788 52.9572 60.2844 52.8965C60.2957 52.7729 60.3034 52.6415 60.3013 52.4904C60.2997 52.228 60.2939 52.0695 60.2875 51.9091C60.2481 51.0993 60.2121 50.8065 60.1868 50.5245C60.1725 50.3799 60.1603 50.2661 60.1487 50.1619C60.1394 50.0779 60.1311 50.0056 60.1222 49.9308C60.1013 49.7564 60.0773 49.5601 60.0521 49.3707C60.0442 49.3111 60.036 49.2498 60.028 49.1926C59.9889 48.9096 59.9482 48.6526 59.9143 48.4691C59.9132 48.4635 59.9122 48.4579 59.9112 48.4526C59.8749 48.1907 59.8384 47.9565 59.8019 47.7522C59.7709 47.579 59.7397 47.4268 59.7091 47.3019C59.7029 47.2765 59.6973 47.2519 59.6925 47.2289C59.6711 47.1257 59.6651 47.0531 59.6762 47.0046C59.6905 46.9468 59.724 46.9117 59.7608 46.872C59.7973 46.8341 59.8608 46.8197 59.9329 46.8726C59.9911 46.9148 60.0465 46.996 60.0901 47.1088C60.0999 47.134 60.1092 47.1611 60.1177 47.1889C60.1595 47.326 60.1998 47.4853 60.2394 47.6646C60.287 47.8804 60.3335 48.1251 60.3786 48.3987C60.3806 48.4104 60.3825 48.4221 60.3844 48.4339C60.4276 48.6992 60.4696 48.99 60.5101 49.3173C60.5521 49.6578 60.5929 50.0353 60.6307 50.4884C60.643 50.6373 60.6548 50.7924 60.6662 50.9623C60.689 51.3569 60.7152 51.6325 60.7231 52.4898C60.7232 52.699 60.7068 52.9173 60.6801 53.12C60.6657 53.23 60.6483 53.3384 60.6289 53.4452C60.6189 53.4997 60.6084 53.5538 60.5975 53.6075C60.5912 53.6449 60.5847 53.682 60.5781 53.7189C60.5417 53.9209 60.5008 54.1148 60.4637 54.29C60.4274 54.4608 60.3948 54.614 60.369 54.7411C60.3623 54.7735 60.356 54.8045 60.3498 54.8343C60.3119 55.0179 60.2823 55.155 60.2599 55.2746C60.2548 55.302 60.25 55.3285 60.2457 55.3544C60.235 55.4183 60.2268 55.4785 60.222 55.5389C60.2184 55.5847 60.2148 55.6448 60.2128 55.7184C60.2117 55.7613 60.2112 55.8083 60.2118 55.8605C60.2118 55.8605 60.2118 55.8605 60.2118 55.8605C60.2142 56.0722 60.2267 56.3518 60.2419 56.6497C60.2488 56.7875 60.2562 56.9293 60.2626 57.0682C60.2684 57.1944 60.274 57.3324 60.2797 57.4747C60.2843 57.5885 60.2889 57.7053 60.2936 57.82C60.3009 57.9976 60.3084 58.1708 60.3163 58.3225C60.3248 58.4857 60.3336 58.6241 60.3435 58.7154C60.3596 58.8643 60.3731 59.0244 60.3846 59.1872C60.3971 59.364 60.4071 59.5429 60.4155 59.7124C60.422 59.8413 60.4274 59.9642 60.4326 60.0753C60.4398 60.2321 60.4464 60.3652 60.4552 60.458C60.4713 60.6308 60.4733 60.7864 60.4678 60.9997C60.4671 61.1102 60.4652 61.219 60.4623 61.32C60.4426 61.9514 60.3943 62.3296 60.3395 62.6541C60.3238 62.7443 60.3072 62.8281 60.29 62.9062C60.2519 63.0775 60.2186 63.1845 60.1887 63.2713C60.1478 63.3875 60.113 63.4614 60.0825 63.5206C60.0675 63.5495 60.054 63.5733 60.0404 63.5967C59.9936 63.6755 59.9552 63.731 59.9136 63.7925C59.9072 63.8017 59.9014 63.8102 59.8951 63.8193C59.865 63.8624 59.8334 63.8979 59.7985 63.9268C59.7499 63.9671 59.6983 63.9894 59.6667 63.9952C59.666 63.9953 59.6654 63.9955 59.6647 63.9956C59.595 64.0138 59.5181 64.0357 59.4324 64.0594C59.384 64.0728 59.3334 64.0865 59.2807 64.0996C59.2478 64.1078 59.2142 64.1157 59.1801 64.1231C59.0934 64.1417 59.0032 64.1563 58.914 64.1619C58.8265 64.1676 58.74 64.1646 58.6591 64.1526C58.655 64.152 58.651 64.1514 58.647 64.1507C58.5505 64.1353 58.4673 64.1079 58.3942 64.0763C58.3489 64.0566 58.3082 64.0357 58.2682 64.0132C58.235 63.9944 58.2043 63.9754 58.1759 63.957C58.171 63.9543 58.1661 63.9516 58.1613 63.9489C58.1224 63.9271 58.0795 63.8996 58.0341 63.8658C58.0255 63.8614 58.0163 63.8567 58.0068 63.8516C57.989 63.8421 57.9694 63.8311 57.9485 63.818C57.9131 63.7956 57.8731 63.767 57.8285 63.7263C57.7882 63.6895 57.7503 63.6492 57.7139 63.6053C57.6483 63.526 57.5867 63.4348 57.5238 63.3263C57.5132 63.3081 57.5019 63.2881 57.491 63.2683C57.4246 63.1472 57.354 63.0055 57.2731 62.8089C57.271 62.8036 57.2688 62.7984 57.2667 62.7931C57.2044 62.6393 57.1334 62.441 57.0732 62.1946C57.0661 62.1652 57.0592 62.1356 57.0525 62.1058C56.9841 61.8012 56.9362 61.4136 56.9429 60.9973C56.9434 60.9705 56.9445 60.9436 56.946 60.9172C56.9502 60.8476 56.9602 60.7938 56.9707 60.7392C56.9708 60.739 56.9708 60.7387 56.9709 60.7385C56.9716 60.7347 56.9723 60.7309 56.9731 60.7271C57.0029 60.2981 57.058 59.8838 57.114 59.47C57.1178 59.434 57.1217 59.3973 57.1258 59.3605C57.1281 59.339 57.1305 59.3174 57.1329 59.2959C57.1489 59.1475 57.166 58.9962 57.1719 58.8998C57.1794 58.7787 57.2224 58.4755 57.2695 58.1563C57.2968 57.9709 57.3252 57.7807 57.3482 57.6166C57.3511 57.5957 57.3539 57.5752 57.3566 57.5552C57.3707 57.4518 57.3941 57.3572 57.4185 57.2579C57.4413 57.165 57.4645 57.0711 57.4812 56.9664C57.4896 56.914 57.4969 56.8568 57.5046 56.7957C57.5115 56.7415 57.5186 56.6856 57.5273 56.6265C57.5353 56.5718 57.5604 56.4505 57.5925 56.2953C57.6123 56.1995 57.6348 56.0906 57.6577 55.976C57.6587 55.9694 57.6598 55.9628 57.6609 55.9561C57.7091 55.6584 57.7573 55.3604 57.8051 55.0629C57.8103 54.9984 57.8122 54.9422 57.81 54.8972C57.8084 54.8649 57.8047 54.837 57.8009 54.8084C57.7956 54.7699 57.7904 54.7287 57.79 54.674C57.7897 54.6312 57.795 54.5818 57.8037 54.5496C57.8077 54.5346 57.8124 54.5234 57.8166 54.5132C57.8215 54.5015 57.8258 54.4911 57.828 54.4779C57.8295 54.4684 57.8292 54.4581 57.8289 54.4455C57.8283 54.4253 57.8276 54.3997 57.834 54.3607C57.8384 54.3336 57.843 54.3059 57.8477 54.2778C57.8686 54.1535 57.8912 54.0254 57.9143 53.8921C57.9451 53.7144 57.9748 53.5399 57.995 53.4009C58.0175 53.2465 58.059 53.0258 58.0987 52.8037C58.1096 52.7427 58.1202 52.6826 58.1302 52.6247C58.1462 52.5308 58.1605 52.4426 58.1721 52.3642C58.1915 52.2324 58.2038 52.0994 58.2147 51.9667C58.2275 51.8117 58.2382 51.6539 58.2541 51.535C58.2576 51.5081 58.2681 51.4759 58.2809 51.4372C58.29 51.4098 58.3002 51.3789 58.3096 51.345C58.3159 51.2254 58.3195 51.1107 58.3149 50.9997C58.3098 50.8892 58.2991 50.76 58.2846 50.6311C58.2815 50.6139 58.2783 50.5961 58.275 50.5781C58.2749 50.5778 58.2749 50.5775 58.2748 50.5772C58.203 50.1918 58.1036 49.8459 58.0449 49.484C58.041 49.4599 58.0366 49.433 58.0334 49.4105C58.0194 49.3146 58.0164 49.2516 58.0151 49.2016C58.0137 49.1515 58.0115 49.1025 58.0009 49.0439C57.9883 48.9743 57.9667 48.8968 57.9442 48.8167C57.9258 48.7509 57.9076 48.6869 57.8921 48.6188C57.881 48.5706 57.8717 48.5215 57.8658 48.4724C57.8648 48.4644 57.8639 48.4564 57.8629 48.4478C57.8532 48.3663 57.8405 48.2502 57.8402 48.1416C57.8311 48.0831 57.8226 48.0247 57.8153 47.9702C57.7902 47.781 57.7758 47.6138 57.7767 47.4636C57.7769 47.4253 57.7782 47.3879 57.7808 47.3515C57.7888 47.2456 57.8049 47.1477 57.8464 47.0522C57.8713 46.9367 58.0935 46.7645 58.2207 46.7956C58.2971 46.7946 58.3561 46.7877 58.451 46.763C58.5412 46.7391 58.6434 46.6987 58.742 46.6568C58.7496 46.6536 58.7572 46.6504 58.7648 46.6472C58.8576 46.6077 58.9467 46.5713 59.0332 46.5456C59.1338 46.5154 59.232 46.4994 59.3242 46.504C59.4149 46.508 59.4983 46.5327 59.5647 46.5702C59.5781 46.5777 59.5908 46.5856 59.6027 46.5938C59.7611 46.7084 59.7947 46.8433 59.7608 46.872C59.7267 46.9078 59.6111 46.8458 59.4977 46.8402C59.4893 46.8397 59.4808 46.8395 59.4725 46.8395C59.4307 46.8398 59.3921 46.8462 59.3462 46.8588C59.2997 46.8717 59.244 46.8922 59.1701 46.9252C59.1068 46.9532 59.0305 46.9909 58.9373 47.0345C58.9296 47.038 58.9219 47.0416 58.9141 47.0452C58.8131 47.0921 58.6931 47.1449 58.5721 47.1816C58.4575 47.2179 58.3224 47.2394 58.2312 47.242C58.1834 47.2831 58.3275 47.1918 58.2846 47.2301C58.2834 47.2352 58.2817 47.2432 58.28 47.2534C58.2797 47.2587 58.2794 47.2647 58.2791 47.2712C58.2769 47.315 58.285 47.3789 58.2996 47.4538C58.3014 47.4627 58.3032 47.4718 58.305 47.481C58.3091 47.5011 58.3136 47.5222 58.3183 47.5442Z" fill="#FCFCFC"/>
</g>
<circle cx="43" cy="46" r="2" fill="black"/>
<circle cx="59" cy="46" r="2" fill="black"/>
<rect x="46.8096" y="54.8818" width="7.77635" height="1.29606" rx="0.648029" fill="black"/>
<g filter="url(#filter1_f_2123_417)">
<ellipse cx="36.5" cy="50.5" rx="3.5" ry="2.5" fill="#436EFC" fill-opacity="0.2"/>
</g>
<g filter="url(#filter2_f_2123_417)">
<ellipse cx="65.5" cy="50.5" rx="3.5" ry="2.5" fill="#436EFC" fill-opacity="0.2"/>
</g>
<defs>
<filter id="filter0_d_2123_417" x="0" y="0" width="102" height="102" filterUnits="userSpaceOnUse" color-interpolation-filters="sRGB">
<feFlood flood-opacity="0" result="BackgroundImageFix"/>
<feColorMatrix in="SourceAlpha" type="matrix" values="0 0 0 0 0 0 0 0 0 0 0 0 0 0 0 0 0 0 127 0" result="hardAlpha"/>
<feOffset dy="2"/>
<feGaussianBlur stdDeviation="3.5"/>
<feComposite in2="hardAlpha" operator="out"/>
<feColorMatrix type="matrix" values="0 0 0 0 0 0 0 0 0 0 0 0 0 0 0 0 0 0 0.05 0"/>
<feBlend mode="normal" in2="BackgroundImageFix" result="effect1_dropShadow_2123_417"/>
<feBlend mode="normal" in="SourceGraphic" in2="effect1_dropShadow_2123_417" result="shape"/>
</filter>
<filter id="filter1_f_2123_417" x="31" y="46" width="11" height="9" filterUnits="userSpaceOnUse" color-interpolation-filters="sRGB">
<feFlood flood-opacity="0" result="BackgroundImageFix"/>
<feBlend mode="normal" in="SourceGraphic" in2="BackgroundImageFix" result="shape"/>
<feGaussianBlur stdDeviation="1" result="effect1_foregroundBlur_2123_417"/>
</filter>
<filter id="filter2_f_2123_417" x="60" y="46" width="11" height="9" filterUnits="userSpaceOnUse" color-interpolation-filters="sRGB">
<feFlood flood-opacity="0" result="BackgroundImageFix"/>
<feBlend mode="normal" in="SourceGraphic" in2="BackgroundImageFix" result="shape"/>
<feGaussianBlur stdDeviation="1" result="effect1_foregroundBlur_2123_417"/>
</filter>
</defs>
</svg>
