<svg width="103" height="103" viewBox="0 0 103 103" fill="none" xmlns="http://www.w3.org/2000/svg">
    <g transform="translate(51.5, 49.5) scale(1.3) translate(-51.5, -49.5)">

        <path d="M78.0005 75C78.2864 78.5784 63.3369 78.5542 51.5005 79.5C39.6641 80.4458 33.2685 80.0583 32.9826 76.4798C32.6966 72.9014 42.0601 69.2338 53.8965 68.2879C65.7329 67.3421 77.7145 71.4216 78.0005 75Z" fill="#848B94" fill-opacity="0.21"/>

        <path d="M52.7034 16.5C61.5582 16.5 69.2852 20.6369 73.3986 26.7786C74.8771 28.9862 76.4298 31.1786 78.18 33.1776C82.115 37.6718 84.5 43.5572 84.5 50C84.5 64.1113 73.0605 75.5508 58.9492 75.5508C57.1984 75.5508 54.4937 75.7767 52.7349 75.9436C51.5804 76.0531 50.4196 76.0531 49.2651 75.9436C47.5063 75.7767 44.8015 75.5508 43.0508 75.5508C28.9395 75.5508 17.5 64.1113 17.5 50C17.5 41.4876 21.663 33.9483 28.0639 29.3052C30.3998 27.6108 32.5721 25.6569 34.6159 23.6197C38.9892 19.2607 45.47 16.5 52.7034 16.5Z" fill="#FFBC86"/>

        <path d="M41.5769 39.2546L41.7885 39.2788C43.552 39.4803 45.3043 38.8179 46.4933 37.5" stroke="black" stroke-linecap="round" stroke-linejoin="round"/>
        <path d="M60.5198 39.2546L60.3082 39.2788C58.5447 39.4803 56.7924 38.8179 55.6033 37.5" stroke="black" stroke-linecap="round" stroke-linejoin="round"/>

        <g opacity="0.8">
            <path d="M46.3271 45.2456C46.8516 45.2457 47.3789 45.724 47.3789 46.1799C47.3788 46.6357 46.9531 47.0059 46.4287 47.006C46.3184 47.006 46.2112 47.0547 46.1311 47.1305C45.849 47.3979 45.2763 47.582 44.6143 47.5821C44.1021 47.5821 43.643 47.4721 43.3305 47.2986C43.1109 47.1768 42.836 47.1124 42.585 47.1124C42.0603 47.1124 41.6348 46.7414 41.6348 46.2854C41.6349 45.8295 42.0604 45.2456 42.585 45.2456C42.667 45.2456 42.7466 45.2615 42.8225 45.2897C43.3742 45.4947 44.0258 45.9289 44.6143 45.9289C45.0896 45.929 45.5522 45.5587 45.9709 45.3338C46.0746 45.2782 46.1935 45.2456 46.3271 45.2456Z" fill="#FCFCFC"/>
            <path d="M47.563 45.7023C47.635 45.7923 47.7081 45.9973 47.7 46.1799C47.6987 46.2283 47.6938 46.2725 47.6879 46.3095C47.6874 46.3126 47.6869 46.3156 47.6864 46.3187C47.6797 46.3581 47.6724 46.3951 47.6612 46.4377C47.6319 46.5353 47.5931 46.6872 47.3963 46.8884C47.3425 46.9489 47.2827 47.0029 47.2188 47.0499C46.9868 47.2208 46.7041 47.3015 46.4288 47.2972C46.405 47.2942 46.3607 47.3071 46.3263 47.3365C46.0056 47.6137 45.6536 47.7055 45.3096 47.7671C45.3009 47.769 45.2921 47.7708 45.2831 47.7727C45.1099 47.8096 44.8925 47.8332 44.7562 47.8282C44.7041 47.8267 44.6572 47.824 44.6143 47.8206C44.5147 47.8128 44.4378 47.8021 44.3714 47.7913C43.9844 47.7495 43.5986 47.6593 43.2429 47.4564C43.1326 47.391 43.0052 47.3433 42.8738 47.314C42.7788 47.2929 42.6811 47.2813 42.585 47.2808C42.5235 47.2805 42.462 47.2759 42.401 47.2669C42.2306 47.2419 42.0638 47.1816 41.9165 47.0859C41.8282 47.0339 41.7494 46.9725 41.6837 46.9058C41.5911 46.8122 41.5255 46.708 41.488 46.6142C41.4473 46.5141 41.4256 46.3979 41.4278 46.2854C41.4304 46.1444 41.4654 46.02 41.5032 45.9222C41.5143 45.8934 41.5258 45.8667 41.5369 45.8426C41.5913 45.7045 41.666 45.5764 41.7594 45.4605C41.7675 45.4543 41.7757 45.4482 41.7841 45.4421C41.8903 45.3689 41.9949 45.2532 42.2271 45.1492C42.322 45.1091 42.4416 45.0749 42.585 45.0763C42.5947 45.0764 42.6045 45.0767 42.6143 45.0772C42.7164 45.0833 42.7641 45.109 42.8011 45.1277C42.8119 45.1335 42.8219 45.139 42.8321 45.1444C42.8443 45.1508 42.8571 45.1559 42.8706 45.1603C42.8924 45.1673 42.9176 45.1715 42.9447 45.1762C42.9997 45.1859 43.0653 45.1985 43.1379 45.2445C43.367 45.3915 43.4802 45.4189 43.5684 45.4373C43.5941 45.4428 43.6173 45.4477 43.6399 45.4549C43.7134 45.4784 43.8077 45.531 43.8773 45.5739C43.9325 45.6083 44.0555 45.6453 44.1488 45.6609C44.1842 45.667 44.2298 45.6807 44.2834 45.6941C44.3387 45.7079 44.4029 45.7213 44.4708 45.7243C44.528 45.7268 44.5749 45.7252 44.6143 45.722C44.6879 45.715 44.7388 45.7016 44.7826 45.6889C44.8013 45.6833 44.8189 45.6776 44.8363 45.6713C44.8915 45.6518 44.9609 45.6235 45.0314 45.5885C45.1157 45.5468 45.2015 45.4961 45.2658 45.4529C45.444 45.3613 45.625 45.2522 45.8252 45.1505C45.8377 45.1442 45.8503 45.1382 45.8629 45.1327C45.9753 45.0806 46.0966 45.0711 46.1827 45.0935C46.2816 45.119 46.3274 45.1742 46.3271 45.2269C46.3269 45.2805 46.2837 45.3302 46.2267 45.3788C46.176 45.4216 46.1193 45.4617 46.0612 45.502C46.0511 45.5087 46.0407 45.5152 46.03 45.5217C45.8523 45.6297 45.6731 45.758 45.4751 45.8751C45.2354 46.0148 44.9564 46.1562 44.6176 46.1598C44.6165 46.1598 44.6154 46.1598 44.6142 46.1598C44.3922 46.1593 44.1869 46.1088 43.9976 46.0444C43.9779 46.0377 43.9586 46.0308 43.9392 46.0237C43.7763 45.9805 43.6218 45.9254 43.5168 45.8825C43.43 45.847 43.3722 45.8118 43.323 45.782C43.2891 45.7614 43.2594 45.7433 43.2276 45.7288C43.2106 45.7211 43.187 45.7109 43.159 45.6987C43.0552 45.6541 42.8886 45.5817 42.7381 45.5169C42.7259 45.5114 42.7138 45.5064 42.7018 45.5016C42.6661 45.4875 42.6267 45.4749 42.5849 45.4681C42.5621 45.4645 42.5387 45.4625 42.5151 45.4621C42.4162 45.4593 42.3154 45.494 42.2736 45.5253C42.1995 45.5788 42.1138 45.646 42.0465 45.7185C41.9819 45.787 41.9349 45.8576 41.921 45.9032C41.9046 45.9577 41.8812 45.9982 41.8533 46.0623C41.8345 46.1065 41.8133 46.1628 41.8048 46.239C41.803 46.2554 41.8018 46.2711 41.801 46.2854C41.7978 46.3477 41.8012 46.3963 41.8076 46.439C41.8196 46.5125 41.8389 46.5712 41.8985 46.6349C41.9651 46.7053 42.0458 46.7638 42.1104 46.8101C42.1397 46.8314 42.1765 46.8515 42.2164 46.8689C42.2693 46.8922 42.3274 46.9106 42.381 46.9277C42.4252 46.9418 42.462 46.9574 42.4959 46.9698C42.5065 46.9736 42.5167 46.9771 42.5268 46.9802C42.5463 46.9812 42.5654 46.9817 42.585 46.9816C42.6084 46.9815 42.6318 46.9819 42.6552 46.9828C42.6629 46.9814 42.671 46.98 42.6795 46.9785C42.7222 46.9714 42.7754 46.9641 42.8405 46.9678C42.9436 46.9739 43.0313 47.0005 43.1203 47.0349C43.1897 47.062 43.26 47.0939 43.3413 47.1317C43.3619 47.1413 43.3837 47.1516 43.4059 47.1627C43.4361 47.1772 43.4687 47.1909 43.5019 47.2034C43.5802 47.2332 43.6606 47.2561 43.715 47.278C43.7352 47.2861 43.7514 47.298 43.7675 47.3096C43.7676 47.3096 43.7676 47.3097 43.7677 47.3098C43.7688 47.3105 43.7699 47.3113 43.771 47.3121C43.9104 47.3483 44.0544 47.3717 44.1991 47.3845C44.2119 47.3845 44.2247 47.3844 44.2374 47.3842C44.2995 47.3835 44.3597 47.3806 44.3991 47.3722C44.4362 47.3643 44.5202 47.3624 44.6143 47.356C44.6288 47.355 44.6435 47.354 44.6582 47.3528C44.7307 47.3471 44.8052 47.3385 44.8652 47.3272C44.9002 47.3206 44.9342 47.3241 44.9695 47.3271C45.0023 47.3299 45.0363 47.3323 45.072 47.3254C45.09 47.322 45.1087 47.3163 45.129 47.3099C45.1467 47.3043 45.1652 47.2982 45.1849 47.2927C45.203 47.2877 45.2446 47.2834 45.298 47.2757C45.3308 47.271 45.3681 47.2649 45.4065 47.2568C45.5053 47.2246 45.6006 47.1863 45.6888 47.1415C45.7053 47.1274 45.7175 47.1129 45.7255 47.0978C45.7312 47.0871 45.7346 47.0758 45.738 47.0643C45.7428 47.0486 45.7471 47.0325 45.7559 47.0164C45.7629 47.0037 45.7731 46.9942 45.7828 46.9918C45.7873 46.9907 45.7916 46.9913 45.7955 46.9918C45.8 46.9923 45.8039 46.9928 45.8071 46.9907C45.8093 46.9892 45.8106 46.9859 45.8122 46.982C45.8147 46.9757 45.8178 46.9676 45.8263 46.9614C45.8546 46.9411 45.8845 46.919 45.9097 46.8969C45.9185 46.8888 45.9275 46.881 45.9366 46.8733C46.0222 46.801 46.1217 46.7508 46.2081 46.7218C46.265 46.7023 46.3424 46.6878 46.4287 46.6914C46.4519 46.6938 46.4764 46.6958 46.5009 46.6966C46.543 46.6981 46.5856 46.6957 46.621 46.6889C46.6558 46.6823 46.6895 46.6669 46.7201 46.6499C46.757 46.6295 46.7892 46.6071 46.8207 46.5952C46.8271 46.5928 46.8385 46.5952 46.853 46.5976C46.8634 46.5992 46.8753 46.601 46.8881 46.601C46.9239 46.5746 46.9568 46.5453 46.9859 46.5136C46.9861 46.5118 46.9863 46.5099 46.9865 46.5079C46.9865 46.5079 46.9865 46.5079 46.9865 46.5078C46.9908 46.4634 46.9878 46.4111 47.032 46.3689C47.0433 46.3578 47.0561 46.3529 47.0676 46.3481C47.0789 46.3433 47.0891 46.3385 47.0944 46.3279C47.1004 46.3159 47.0997 46.2992 47.0977 46.2818C47.095 46.257 47.0896 46.2317 47.0996 46.2069C47.1003 46.2052 47.1011 46.2033 47.1018 46.2014C47.1041 46.1953 47.1067 46.188 47.1097 46.1798C47.1155 46.1662 47.1225 46.149 47.1318 46.1291C47.1258 46.0471 47.0919 45.9537 47.0376 45.8662C46.9469 45.7197 46.8039 45.5893 46.6413 45.5071C46.5622 45.4669 46.4882 45.4233 46.4283 45.376C46.3689 45.3285 46.3274 45.2795 46.3271 45.2269C46.3266 45.175 46.3722 45.1217 46.4654 45.0937C46.5578 45.0657 46.6877 45.0716 46.8077 45.1172C47.0032 45.1911 47.1801 45.3054 47.3294 45.4566C47.3377 45.4642 47.3458 45.4718 47.3539 45.4797C47.4138 45.5379 47.4719 45.5933 47.5263 45.657C47.5388 45.6717 47.551 45.6867 47.563 45.7023Z" fill="#FCFCFC"/>
        </g>
        <circle cx="44.5" cy="44.5" r="2" fill="black"/>
        <circle cx="44.15" cy="44.15" r="0.65" fill="white"/>
        <circle cx="45.0791" cy="45.1387" r="0.338867" fill="white"/>
        <path d="M48.6775 49.3819C49.1407 49.9659 50.9068 50.7531 54.2656 49.2305" stroke="black" stroke-linecap="round" stroke-linejoin="round"/>
        <path d="M53.6523 48.3966C53.9858 48.3438 54.953 49.055 54.8518 50.226" stroke="black" stroke-linecap="round" stroke-linejoin="round"/>
        <g opacity="0.8">
            <path d="M56.0736 47.2876C55.9379 46.6673 56.5262 46.1337 57.1304 46.3291C57.5014 46.4492 57.7371 46.8132 57.6949 47.2008L57.2675 51.1242C57.2249 51.5151 57.2419 51.9101 57.3178 52.2959L57.9981 55.7534C58.0284 55.9075 58.0201 56.0666 57.974 56.2167C57.8512 56.6158 57.4824 56.8882 57.0649 56.8882H56.8102C56.2013 56.8882 55.6745 56.4643 55.5443 55.8695L55.4178 55.2922C55.3631 55.0421 55.3561 54.784 55.3973 54.5313L56.3183 48.8787C56.3475 48.6995 56.3425 48.5164 56.3037 48.3391L56.0736 47.2876Z" fill="#FCFCFC"/>
            <path d="M55.2388 55.9136C55.1908 55.7813 55.1413 55.5515 55.1035 55.361C55.0878 55.2828 55.078 55.2097 55.0719 55.1493C55.0715 55.1451 55.071 55.1409 55.0706 55.1366C55.0655 55.0819 55.0613 55.03 55.0587 54.9692C55.0554 54.8594 55.0512 54.7178 55.0954 54.4821C55.1083 54.4175 55.1233 54.3444 55.1408 54.2609C55.1568 54.159 55.173 54.0572 55.1896 53.9554C55.3687 52.8561 55.5684 51.7601 55.7722 50.6648C55.7743 50.6509 55.7765 50.6368 55.7787 50.6225C55.8211 50.3463 55.8736 50.0039 55.9177 49.7906C55.9737 49.5193 56.0145 49.3355 56.0486 49.1847C56.0697 49.0715 56.0907 48.9583 56.1117 48.8451C56.1406 48.693 56.1404 48.5347 56.1104 48.3814C56.0408 48.0293 55.9703 47.6775 55.8985 47.3259C55.8395 47.0546 55.9035 46.7542 56.0693 46.5319C56.2653 46.2612 56.6028 46.0976 56.939 46.1224C57.022 46.1279 57.1038 46.144 57.1821 46.1692C57.396 46.2373 57.5855 46.3814 57.7088 46.5696C57.8116 46.7169 57.8696 46.885 57.8858 47.0455C57.892 47.1058 57.8925 47.165 57.8884 47.2219C57.8802 47.3484 57.8723 47.4627 57.8633 47.5616C57.8339 47.8867 57.7845 48.2537 57.7479 48.5263C57.7419 48.5709 57.7362 48.6129 57.7311 48.6518C57.7108 48.8693 57.6908 49.0868 57.6709 49.3043C57.6672 49.3185 57.6635 49.3329 57.6597 49.3475C57.6118 49.5298 57.5874 49.7575 57.5488 50.1161C57.5321 50.2722 57.5126 50.4532 57.4874 50.666C57.4712 50.8031 57.4525 50.8724 57.4373 50.9291C57.4328 50.9457 57.4286 50.9614 57.4249 50.9772C57.4133 51.0263 57.413 51.0791 57.414 51.1402C57.4141 51.1465 57.4143 51.1529 57.4144 51.1594C57.4169 51.2464 57.4223 51.3493 57.4076 51.485C57.3662 51.9204 57.4382 52.1119 57.4818 52.2485C57.4834 52.2533 57.485 52.258 57.4866 52.2627C57.499 52.2992 57.5102 52.3332 57.5198 52.3682C57.5549 52.497 57.5822 52.6849 57.597 52.8281C57.6088 52.9416 57.6628 53.1628 57.7089 53.3295C57.7264 53.3926 57.7435 53.4791 57.7637 53.581C57.7846 53.6864 57.8087 53.8084 57.8398 53.9379C57.9185 54.2651 57.9596 54.4392 57.9927 54.5791C58.0021 54.6189 58.0109 54.6561 58.0197 54.6932C58.0475 54.8105 58.0801 54.9564 58.1131 55.1041C58.1526 55.2808 58.1927 55.4602 58.2258 55.5962C58.2322 55.6324 58.2387 55.6686 58.2451 55.7048C58.2805 55.8992 58.2664 56.1016 58.2053 56.2879C58.1397 56.4899 58.0185 56.673 57.86 56.8115C57.6858 56.9662 57.4621 57.033 57.3038 57.0254C57.1433 57.0186 57.0642 56.9587 57.0649 56.9069C57.0652 56.8528 57.139 56.806 57.2419 56.7435C57.3454 56.6811 57.4683 56.6013 57.5748 56.4977C57.6724 56.4041 57.7429 56.2851 57.7784 56.1566C57.8114 56.0384 57.8144 55.9129 57.788 55.7947C57.7775 55.7465 57.7671 55.6982 57.7567 55.65C57.6604 55.2033 57.5666 54.7562 57.4785 54.3079C57.4168 53.9944 57.3563 53.6806 57.2968 53.3666C57.2907 53.3342 57.2846 53.3019 57.2785 53.2696C57.2138 53.0087 57.1503 52.7481 57.1097 52.5637C57.0913 52.4802 57.0785 52.4086 57.0685 52.345C57.0596 52.2891 57.0539 52.239 57.0492 52.1924C57.0422 52.1214 57.0376 52.0586 57.0301 51.9954C57.0261 51.9615 57.0206 51.9151 57.0153 51.859C56.9973 51.6758 56.987 51.3863 57.0243 51.0977C57.0328 51.0304 57.0419 51.0963 57.0517 51.03C57.0735 50.8825 57.1033 50.7118 57.1319 50.5488C57.1727 50.3157 57.2107 50.0983 57.2184 49.9873C57.2318 49.7924 57.2626 49.5705 57.2897 49.3745C57.3156 49.1875 57.3383 49.0239 57.3396 48.9297C57.3412 48.817 57.3559 48.7224 57.3776 48.5818C57.3927 48.4842 57.4112 48.3645 57.4312 48.2012C57.4543 48.0126 57.4762 47.8799 57.4949 47.767C57.5207 47.611 57.5402 47.493 57.5478 47.3178C57.5479 47.3152 57.5479 47.3125 57.548 47.3099C57.552 47.1438 57.49 46.9832 57.418 46.8737C57.3858 46.8231 57.3391 46.7714 57.2826 46.7278C57.2223 46.681 57.1513 46.644 57.0798 46.6185C57.0623 46.6123 57.0454 46.6068 57.0284 46.6017C56.9557 46.5803 56.8936 46.5668 56.8365 46.5608C56.8187 46.5589 56.8014 46.5579 56.7846 46.5577C56.7227 46.5661 56.662 46.5833 56.6047 46.6085C56.5961 46.6141 56.5872 46.6202 56.5781 46.6268C56.5325 46.6599 56.4812 46.705 56.4258 46.7649C56.3391 46.8601 56.277 46.9551 56.2385 47.0676C56.2094 47.1549 56.1963 47.2547 56.2187 47.3659C56.2201 47.3731 56.2218 47.3804 56.2236 47.3878C56.2437 47.4725 56.2681 47.5661 56.2924 47.659C56.3321 47.8114 56.3713 47.9619 56.3906 48.0682C56.3978 48.108 56.3989 48.1434 56.3999 48.1784C56.3999 48.1785 56.3999 48.1787 56.3999 48.1788C56.3999 48.1812 56.4 48.1836 56.4001 48.186C56.4201 48.27 56.4402 48.354 56.4604 48.4378C56.5059 48.6288 56.5161 48.8288 56.4898 49.0248C56.4894 49.0297 56.489 49.0346 56.4885 49.0394C56.4868 49.0579 56.4852 49.0765 56.4835 49.0949C56.4734 49.2062 56.4636 49.3144 56.463 49.3859C56.4624 49.4633 56.4383 49.6544 56.4128 49.8557C56.3962 49.9876 56.3789 50.1239 56.3674 50.2356C56.3606 50.3009 56.344 50.3612 56.3269 50.4232C56.311 50.4811 56.2946 50.5405 56.2854 50.6069C56.2808 50.6401 56.2777 50.6763 56.2745 50.715C56.2716 50.749 56.2685 50.785 56.2641 50.8225C56.26 50.8573 56.2439 50.9337 56.2232 51.0316C56.2105 51.0921 56.196 51.1609 56.1815 51.2332C56.1543 51.4261 56.1269 51.6191 56.0993 51.8119C56.0985 51.853 56.1004 51.889 56.1056 51.9181C56.1093 51.939 56.1148 51.9572 56.1205 51.9759C56.1282 52.0013 56.1361 52.0276 56.1402 52.0626C56.1433 52.0901 56.1412 52.1215 56.1348 52.1417C56.1318 52.1512 56.1278 52.1582 56.1243 52.1645C56.1202 52.1718 56.1166 52.1783 56.1153 52.1867C56.1144 52.1928 56.1153 52.1994 56.1165 52.2076C56.1183 52.2206 56.1206 52.2375 56.1168 52.2621C56.1026 52.3535 56.0841 52.4571 56.0659 52.5585C56.0458 52.6713 56.0261 52.7816 56.0132 52.8699C55.9988 52.9688 55.9685 53.1082 55.9382 53.2478C55.9171 53.3452 55.8959 53.4428 55.8801 53.5269C55.8645 53.6092 55.8546 53.696 55.845 53.7801C55.8335 53.881 55.8224 53.978 55.8026 54.0588C55.7986 54.0751 55.7872 54.0944 55.773 54.1185C55.7629 54.1356 55.7514 54.1553 55.74 54.178C55.7231 54.2822 55.7058 54.3863 55.6882 54.4904C55.6887 54.4942 55.6891 54.4982 55.6897 54.5022C55.6897 54.5023 55.6897 54.5023 55.6897 54.5024C55.697 54.5591 55.706 54.6291 55.6995 54.7136C55.697 54.7554 55.6909 54.8011 55.679 54.8524C55.6708 54.8879 55.66 54.9102 55.6504 54.9306C55.641 54.9507 55.6327 54.9689 55.6311 54.9959C55.6294 55.0264 55.6357 55.0625 55.6439 55.1012C55.6555 55.1556 55.6711 55.2147 55.6727 55.2765C55.6728 55.2807 55.673 55.2852 55.6731 55.29C55.6739 55.3118 55.6753 55.3387 55.6767 55.3685C55.6792 55.4046 55.6808 55.4442 55.6801 55.4842C55.7108 55.6403 55.7411 55.7965 55.7711 55.9528C55.781 55.9562 55.795 55.9589 55.8128 55.9602C55.9129 55.963 56.1498 55.9682 56.4483 55.957C56.5738 55.9523 56.7009 55.9344 56.8102 55.904C56.8287 55.8995 56.8464 55.8946 56.8633 55.8894C56.9924 55.85 57.0649 55.7995 57.0649 55.7471C57.0648 55.6947 56.9924 55.6441 56.8633 55.6048C56.8464 55.5996 56.8287 55.5947 56.8102 55.59C56.6722 55.5586 56.4875 55.5621 56.3091 55.6195C55.9745 55.7252 55.6764 55.9517 55.4836 56.2526C55.4729 56.268 55.4625 56.2838 55.4524 56.2996C55.378 56.4176 55.3162 56.5342 55.2683 56.6585C55.2606 56.6785 55.2533 56.6987 55.2464 56.7193C55.2439 56.7263 55.2413 56.7333 55.2388 56.7404Z" fill="#FCFCFC"/>
        </g>
        <circle cx="44.5" cy="44.5" r="2" fill="black"/>
        <circle cx="44.15" cy="44.15" r="0.65" fill="white"/>
        <circle cx="45.0791" cy="45.1387" r="0.338867" fill="white"/>
        <path d="M48.6775 49.3819C49.1407 49.9659 50.9068 50.7531 54.2656 49.2305" stroke="black" stroke-linecap="round" stroke-linejoin="round"/>
        <path d="M53.6523 48.3966C53.9858 48.3438 54.953 49.055 54.8518 50.226" stroke="black" stroke-linecap="round" stroke-linejoin="round"/>
        <g opacity="0.8">
            <path d="M56.0736 47.2876C55.9379 46.6673 56.5262 46.1337 57.1304 46.3291C57.5014 46.4492 57.7371 46.8132 57.6949 47.2008L57.2675 51.1242C57.2249 51.5151 57.2419 51.9101 57.3178 52.2959L57.9981 55.7534C58.0284 55.9075 58.0201 56.0666 57.974 56.2167C57.8512 56.6158 57.4824 56.8882 57.0649 56.8882H56.8102C56.2013 56.8882 55.6745 56.4643 55.5443 55.8695L55.4178 55.2922C55.3631 55.0421 55.3561 54.784 55.3973 54.5313L56.3183 48.8787C56.3475 48.6995 56.3425 48.5164 56.3037 48.3391L56.0736 47.2876Z" fill="#FCFCFC"/>
            <path d="M55.2388 55.9136C55.1908 55.7813 55.1413 55.5515 55.1035 55.361C55.0878 55.2828 55.078 55.2097 55.0719 55.1493C55.0715 55.1451 55.071 55.1409 55.0706 55.1366C55.0655 55.0819 55.0613 55.03 55.0587 54.9692C55.0554 54.8594 55.0512 54.7178 55.0954 54.4821C55.1083 54.4175 55.1233 54.3444 55.1408 54.2609C55.1568 54.159 55.173 54.0572 55.1896 53.9554C55.3687 52.8561 55.5684 51.7601 55.7722 50.6648C55.7743 50.6509 55.7765 50.6368 55.7787 50.6225C55.8211 50.3463 55.8736 50.0039 55.9177 49.7906C55.9737 49.5193 56.0145 49.3355 56.0486 49.1847C56.0697 49.0715 56.0907 48.9583 56.1117 48.8451C56.1406 48.693 56.1404 48.5347 56.1104 48.3814C56.0408 48.0293 55.9703 47.6775 55.8985 47.3259C55.8395 47.0546 55.9035 46.7542 56.0693 46.5319C56.2653 46.2612 56.6028 46.0976 56.939 46.1224C57.022 46.1279 57.1038 46.144 57.1821 46.1692C57.396 46.2373 57.5855 46.3814 57.7088 46.5696C57.8116 46.7169 57.8696 46.885 57.8858 47.0455C57.892 47.1058 57.8925 47.165 57.8884 47.2219C57.8802 47.3484 57.8723 47.4627 57.8633 47.5616C57.8339 47.8867 57.7845 48.2537 57.7479 48.5263C57.7419 48.5709 57.7362 48.6129 57.7311 48.6518C57.7108 48.8693 57.6908 49.0868 57.6709 49.3043C57.6672 49.3185 57.6635 49.3329 57.6597 49.3475C57.6118 49.5298 57.5874 49.7575 57.5488 50.1161C57.5321 50.2722 57.5126 50.4532 57.4874 50.666C57.4712 50.8031 57.4525 50.8724 57.4373 50.9291C57.4328 50.9457 57.4286 50.9614 57.4249 50.9772C57.4133 51.0263 57.413 51.0791 57.414 51.1402C57.4141 51.1465 57.4143 51.1529 57.4144 51.1594C57.4169 51.2464 57.4223 51.3493 57.4076 51.485C57.3662 51.9204 57.4382 52.1119 57.4818 52.2485C57.4834 52.2533 57.485 52.258 57.4866 52.2627C57.499 52.2992 57.5102 52.3332 57.5198 52.3682C57.5549 52.497 57.5822 52.6849 57.597 52.8281C57.6088 52.9416 57.6628 53.1628 57.7089 53.3295C57.7264 53.3926 57.7435 53.4791 57.7637 53.581C57.7846 53.6864 57.8087 53.8084 57.8398 53.9379C57.9185 54.2651 57.9596 54.4392 57.9927 54.5791C58.0021 54.6189 58.0109 54.6561 58.0197 54.6932C58.0475 54.8105 58.0801 54.9564 58.1131 55.1041C58.1526 55.2808 58.1927 55.4602 58.2258 55.5962C58.2322 55.6324 58.2387 55.6686 58.2451 55.7048C58.2805 55.8992 58.2664 56.1016 58.2053 56.2879C58.1397 56.4899 58.0185 56.673 57.86 56.8115C57.6858 56.9662 57.4621 57.033 57.3038 57.0254C57.1433 57.0186 57.0642 56.9587 57.0649 56.9069C57.0652 56.8528 57.139 56.806 57.2419 56.7435C57.3454 56.6811 57.4683 56.6013 57.5748 56.4977C57.6724 56.4041 57.7429 56.2851 57.7784 56.1566C57.8114 56.0384 57.8144 55.9129 57.788 55.7947C57.7775 55.7465 57.7671 55.6982 57.7567 55.65C57.6604 55.2033 57.5666 54.7562 57.4785 54.3079C57.4168 53.9944 57.3563 53.6806 57.2968 53.3666C57.2907 53.3342 57.2846 53.3019 57.2785 53.2696C57.2138 53.0087 57.1503 52.7481 57.1097 52.5637C57.0913 52.4802 57.0785 52.4086 57.0685 52.345C57.0596 52.2891 57.0539 52.239 57.0492 52.1924C57.0422 52.1214 57.0376 52.0586 57.0301 51.9954C57.0261 51.9615 57.0206 51.9151 57.0153 51.859C56.9973 51.6758 56.987 51.3863 57.0243 51.0977C57.0328 51.0304 57.0419 51.0963 57.0517 51.03C57.0735 50.8825 57.1033 50.7118 57.1319 50.5488C57.1727 50.3157 57.2107 50.0983 57.2184 49.9873C57.2318 49.7924 57.2626 49.5705 57.2897 49.3745C57.3156 49.1875 57.3383 49.0239 57.3396 48.9297C57.3412 48.817 57.3559 48.7224 57.3776 48.5818C57.3927 48.4842 57.4112 48.3645 57.4312 48.2012C57.4543 48.0126 57.4762 47.8799 57.4949 47.767C57.5207 47.611 57.5402 47.493 57.5478 47.3178C57.5479 47.3152 57.5479 47.3125 57.548 47.3099C57.552 47.1438 57.49 46.9832 57.418 46.8737C57.3858 46.8231 57.3391 46.7714 57.2826 46.7278C57.2223 46.681 57.1513 46.644 57.0798 46.6185C57.0623 46.6123 57.0454 46.6068 57.0284 46.6017C56.9557 46.5803 56.8936 46.5668 56.8365 46.5608C56.8187 46.5589 56.8014 46.5579 56.7846 46.5577C56.7227 46.5661 56.662 46.5833 56.6047 46.6085C56.5961 46.6141 56.5872 46.6202 56.5781 46.6268C56.5325 46.6599 56.4812 46.705 56.4258 46.7649C56.3391 46.8601 56.277 46.9551 56.2385 47.0676C56.2094 47.1549 56.1963 47.2547 56.2187 47.3659C56.2201 47.3731 56.2218 47.3804 56.2236 47.3878C56.2437 47.4725 56.2681 47.5661 56.2924 47.659C56.3321 47.8114 56.3713 47.9619 56.3906 48.0682C56.3978 48.108 56.3989 48.1434 56.3999 48.1784C56.3999 48.1785 56.3999 48.1787 56.3999 48.1788C56.3999 48.1812 56.4 48.1836 56.4001 48.186C56.4201 48.27 56.4402 48.354 56.4604 48.4378C56.5059 48.6288 56.5161 48.8288 56.4898 49.0248C56.4894 49.0297 56.489 49.0346 56.4885 49.0394C56.4868 49.0579 56.4852 49.0765 56.4835 49.0949C56.4734 49.2062 56.4636 49.3144 56.463 49.3859C56.4624 49.4633 56.4383 49.6544 56.4128 49.8557C56.3962 49.9876 56.3789 50.1239 56.3674 50.2356C56.3606 50.3009 56.344 50.3612 56.3269 50.4232C56.311 50.4811 56.2946 50.5405 56.2854 50.6069C56.2808 50.6401 56.2777 50.6763 56.2745 50.715C56.2716 50.749 56.2685 50.785 56.2641 50.8225C56.26 50.8573 56.2439 50.9337 56.2232 51.0316C56.2105 51.0921 56.196 51.1609 56.1815 51.2332C56.1543 51.4261 56.1269 51.6191 56.0993 51.8119C56.0985 51.853 56.1004 51.889 56.1056 51.9181C56.1093 51.939 56.1148 51.9572 56.1205 51.9759C56.1282 52.0013 56.1361 52.0276 56.1402 52.0626C56.1433 52.0901 56.1412 52.1215 56.1348 52.1417C56.1318 52.1512 56.1278 52.1582 56.1243 52.1645C56.1202 52.1718 56.1166 52.1783 56.1153 52.1867C56.1144 52.1928 56.1153 52.1994 56.1165 52.2076C56.1183 52.2206 56.1206 52.2375 56.1168 52.2621C56.1026 52.3535 56.0841 52.4571 56.0659 52.5585C56.0458 52.6713 56.0261 52.7816 56.0132 52.8699C55.9988 52.9688 55.9685 53.1082 55.9382 53.2478C55.9171 53.3452 55.8959 53.4428 55.8801 53.5269C55.8645 53.6092 55.8546 53.696 55.845 53.7801C55.8335 53.881 55.8224 53.978 55.8026 54.0588C55.7986 54.0751 55.7872 54.0944 55.773 54.1185C55.7629 54.1356 55.7514 54.1553 55.74 54.178C55.7231 54.2822 55.7058 54.3863 55.6882 54.4904C55.6887 54.4942 55.6891 54.4982 55.6897 54.5022C55.6897 54.5023 55.6897 54.5023 55.6897 54.5024C55.697 54.5591 55.706 54.6291 55.6995 54.7136C55.697 54.7554 55.6909 54.8011 55.679 54.8524C55.6708 54.8879 55.66 54.9102 55.6504 54.9306C55.641 54.9507 55.6327 54.9689 55.6311 54.9959C55.6294 55.0264 55.6357 55.0625 55.6439 55.1012C55.6555 55.1556 55.6711 55.2147 55.6727 55.2765C55.6728 55.2807 55.673 55.2852 55.6731 55.29C55.6739 55.3118 55.6753 55.3387 55.6767 55.3685C55.6792 55.4046 55.6808 55.4442 55.6801 55.4842C55.7108 55.6403 55.7411 55.7965 55.7711 55.9528C55.781 55.9562 55.795 55.9589 55.8128 55.9602C55.9129 55.963 56.1498 55.9682 56.4483 55.957C56.5738 55.9523 56.7009 55.9344 56.8102 55.904C56.8287 55.8995 56.8464 55.8946 56.8633 55.8894C56.9924 55.85 57.0649 55.7995 57.0649 55.7471C57.0648 55.6947 56.9924 55.6441 56.8633 55.6048C56.8464 55.5996 56.8287 55.5947 56.8102 55.59C56.6722 55.5586 56.4875 55.5621 56.3091 55.6195C55.9745 55.7252 55.6764 55.9517 55.4836 56.2526C55.4729 56.268 55.4625 56.2838 55.4524 56.2996C55.378 56.4176 55.3162 56.5342 55.2683 56.6585C55.2606 56.6785 55.2533 56.6987 55.2464 56.7193C55.2439 56.7263 55.2413 56.7333 55.2388 56.7404Z" fill="#FCFCFC"/>
        </g>
        <circle cx="56.5645" cy="44.5" r="2" fill="black"/>
        <circle cx="56.2145" cy="44.15" r="0.65" fill="white"/>
        <circle cx="57.1436" cy="45.1387" r="0.338867" fill="white"/>
    </g>

</svg>