<svg width="103" height="103" viewBox="0 0 103 103" fill="none" xmlns="http://www.w3.org/2000/svg">
    <g transform="translate(51.5, 49.5) scale(1.3) translate(-51.5, -49.5)">

        <path d="M78.0005 75C78.2864 78.5784 63.3369 78.5542 51.5005 79.5C39.6641 80.4458 33.2685 80.0583 32.9826 76.4798C32.6966 72.9014 42.0601 69.2338 53.8965 68.2879C65.7329 67.3421 77.7145 71.4216 78.0005 75Z" fill="#848B94" fill-opacity="0.21"/>

        <path d="M52.7034 16.5C61.5582 16.5 69.2852 20.6369 73.3986 26.7786C74.8771 28.9862 76.4298 31.1786 78.18 33.1776C82.115 37.6718 84.5 43.5572 84.5 50C84.5 64.1113 73.0605 75.5508 58.9492 75.5508C57.1984 75.5508 54.4937 75.7767 52.7349 75.9436C51.5804 76.0531 50.4196 76.0531 49.2651 75.9436C47.5063 75.7767 44.8015 75.5508 43.0508 75.5508C28.9395 75.5508 17.5 64.1113 17.5 50C17.5 41.4876 21.663 33.9483 28.0639 29.3052C30.3998 27.6108 32.5721 25.6569 34.6159 23.6197C38.9892 19.2607 45.47 16.5 52.7034 16.5Z" fill="#90B7EB"/>

        <g opacity="0.8">
            <path d="M42.806 47.8994C42.6703 47.2792 43.2587 46.7455 43.8628 46.941C44.2338 47.061 44.4695 47.425 44.4273 47.8127L43.9999 51.736C43.9574 52.1269 43.9743 52.5219 44.0502 52.9077L44.7305 56.3652C44.7609 56.5193 44.7526 56.6785 44.7064 56.8286C44.5836 57.2277 44.2149 57.5 43.7973 57.5H43.5426C42.9337 57.5 42.407 57.0761 42.2767 56.4813L42.1503 55.904C42.0955 55.6539 42.0885 55.3958 42.1297 55.1431L43.0507 49.4905C43.0799 49.3113 43.0749 49.1282 43.0361 48.9509L42.806 47.8994Z" fill="#FCFCFC"/>
            <path d="M41.9712 56.5255C41.9233 56.3932 41.8737 56.1633 41.836 55.9728C41.8202 55.8946 41.8104 55.8215 41.8043 55.7611C41.8039 55.7569 41.8035 55.7527 41.8031 55.7484C41.7979 55.6937 41.7937 55.6419 41.7911 55.581C41.7878 55.4712 41.7836 55.3296 41.8278 55.0939C41.8407 55.0293 41.8557 54.9562 41.8732 54.8727C41.8892 54.7708 41.9055 54.669 41.922 54.5672C42.1012 53.4679 42.3009 52.3719 42.5046 51.2766C42.5068 51.2627 42.5089 51.2486 42.5111 51.2343C42.5535 50.9581 42.606 50.6157 42.6501 50.4024C42.7061 50.1311 42.747 49.9474 42.781 49.7965C42.8021 49.6833 42.8231 49.5701 42.8441 49.4569C42.873 49.3048 42.8728 49.1465 42.8429 48.9932C42.7732 48.6412 42.7027 48.2893 42.6309 47.9377C42.572 47.6664 42.6359 47.366 42.8017 47.1438C42.9978 46.873 43.3352 46.7094 43.6715 46.7342C43.7544 46.7397 43.8363 46.7558 43.9145 46.781C44.1284 46.8492 44.3179 46.9932 44.4412 47.1814C44.544 47.3287 44.602 47.4968 44.6182 47.6573C44.6244 47.7176 44.6249 47.7768 44.6208 47.8337C44.6127 47.9602 44.6047 48.0745 44.5958 48.1734C44.5663 48.4985 44.5169 48.8655 44.4803 49.1381C44.4743 49.1827 44.4687 49.2247 44.4635 49.2636C44.4432 49.4811 44.4232 49.6986 44.4033 49.9161C44.3997 49.9304 44.3959 49.9447 44.3921 49.9593C44.3443 50.1416 44.3198 50.3694 44.2813 50.7279C44.2645 50.884 44.245 51.065 44.2198 51.2778C44.2036 51.4149 44.1849 51.4842 44.1697 51.5409C44.1652 51.5575 44.1611 51.5732 44.1573 51.589C44.1457 51.6382 44.1455 51.691 44.1464 51.752C44.1465 51.7583 44.1467 51.7647 44.1469 51.7712C44.1494 51.8583 44.1547 51.9612 44.14 52.0968C44.0986 52.5322 44.1707 52.7237 44.2142 52.8604C44.2158 52.8651 44.2174 52.8698 44.2191 52.8745C44.2314 52.911 44.2426 52.945 44.2522 52.98C44.2873 53.1088 44.3146 53.2967 44.3295 53.4399C44.3412 53.5535 44.3952 53.7746 44.4413 53.9413C44.4588 54.0044 44.4759 54.0909 44.4961 54.1928C44.517 54.2982 44.5411 54.4203 44.5722 54.5497C44.6509 54.877 44.692 55.051 44.7251 55.1909C44.7345 55.2308 44.7433 55.2679 44.7521 55.305C44.7799 55.4223 44.8125 55.5682 44.8455 55.7159C44.885 55.8926 44.9251 56.072 44.9582 56.208C44.9647 56.2442 44.9711 56.2804 44.9775 56.3166C45.0129 56.5111 44.9988 56.7134 44.9377 56.8997C44.8721 57.1018 44.7509 57.2849 44.5924 57.4233C44.4183 57.5781 44.1945 57.6448 44.0362 57.6372C43.8758 57.6304 43.7966 57.5706 43.7973 57.5188C43.7976 57.4646 43.8715 57.4178 43.9743 57.3553C44.0778 57.2929 44.2007 57.2131 44.3072 57.1096C44.4048 57.0159 44.4753 56.8969 44.5109 56.7684C44.5438 56.6502 44.5468 56.5247 44.5204 56.4066C44.5099 56.3583 44.4995 56.31 44.4891 56.2618C44.3928 55.8151 44.2991 55.368 44.2109 54.9198C44.1492 54.6062 44.0887 54.2924 44.0293 53.9784C44.0231 53.9461 44.0171 53.9137 44.0109 53.8814C43.9462 53.6205 43.8828 53.3599 43.8421 53.1755C43.8237 53.092 43.8109 53.0204 43.8009 52.9568C43.7921 52.901 43.7863 52.8508 43.7817 52.8042C43.7746 52.7332 43.7701 52.6704 43.7625 52.6072C43.7585 52.5733 43.753 52.5269 43.7477 52.4708C43.7297 52.2876 43.7194 51.9981 43.7567 51.7095C43.7652 51.6422 43.7743 51.5748 43.7841 51.5088C43.8059 51.3614 43.8358 51.1906 43.8643 51.0276C43.9051 50.7945 43.9431 50.5771 43.9508 50.4661C43.9643 50.2712 43.995 50.0493 44.0222 49.8533C44.0481 49.6663 44.0707 49.5028 44.072 49.4085C44.0736 49.2958 44.0883 49.2012 44.1101 49.0606C44.1252 48.963 44.1437 48.8433 44.1636 48.68C44.1867 48.4915 44.2087 48.3587 44.2273 48.2458C44.2531 48.0899 44.2726 47.9718 44.2802 47.7966C44.2803 47.794 44.2803 47.7913 44.2804 47.7887C44.2844 47.6226 44.2224 47.462 44.1504 47.3525C44.1182 47.3019 44.0715 47.2502 44.015 47.2067C43.9547 47.1598 43.8837 47.1228 43.8122 47.0974C43.7947 47.0911 43.7778 47.0856 43.7608 47.0806C43.6881 47.0591 43.6261 47.0457 43.5689 47.0396C43.5511 47.0377 43.5338 47.0367 43.517 47.0365C43.4552 47.0449 43.3945 47.0621 43.3371 47.0874C43.3285 47.0929 43.3196 47.0991 43.3105 47.1056C43.2649 47.1387 43.2136 47.1838 43.1582 47.2437C43.0715 47.3389 43.0095 47.4339 42.9709 47.5464C42.9418 47.6337 42.9287 47.7335 42.9511 47.8447C42.9526 47.8519 42.9542 47.8592 42.956 47.8666C42.9762 47.9513 43.0006 48.0449 43.0248 48.1378C43.0645 48.2902 43.1037 48.4407 43.123 48.547C43.1302 48.5868 43.1313 48.6222 43.1323 48.6572C43.1323 48.6573 43.1323 48.6575 43.1323 48.6577C43.1324 48.66 43.1325 48.6624 43.1325 48.6648C43.1526 48.7487 43.1727 48.8327 43.1928 48.9166C43.2383 49.1076 43.2485 49.3077 43.2222 49.5036C43.2218 49.5085 43.2214 49.5134 43.2209 49.5183C43.2193 49.5367 43.2176 49.5553 43.2159 49.5737C43.2058 49.685 43.196 49.7932 43.1954 49.8647C43.1948 49.9421 43.1707 50.1332 43.1452 50.3346C43.1286 50.4664 43.1113 50.6027 43.0998 50.7144C43.0931 50.7797 43.0765 50.84 43.0593 50.9021C43.0434 50.9599 43.027 51.0193 43.0178 51.0857C43.0133 51.1189 43.0102 51.1552 43.0069 51.1938C43.004 51.2278 43.0009 51.2638 42.9965 51.3013C42.9925 51.3361 42.9763 51.4125 42.9557 51.5104C42.9429 51.5709 42.9284 51.6397 42.9139 51.712C42.8867 51.905 42.8593 52.0979 42.8317 52.2907C42.8309 52.3318 42.8328 52.3678 42.838 52.3969C42.8417 52.4178 42.8472 52.436 42.8529 52.4547C42.8606 52.4801 42.8685 52.5064 42.8726 52.5415C42.8757 52.5689 42.8737 52.6003 42.8672 52.6206C42.8642 52.63 42.8603 52.637 42.8567 52.6433C42.8526 52.6506 42.849 52.6571 42.8477 52.6655C42.8468 52.6716 42.8477 52.6782 42.8489 52.6864C42.8507 52.6994 42.853 52.7163 42.8492 52.7409C42.835 52.8324 42.8165 52.9359 42.7984 53.0374C42.7782 53.1502 42.7585 53.2604 42.7456 53.3487C42.7312 53.4477 42.7009 53.587 42.6706 53.7267C42.6495 53.8241 42.6283 53.9216 42.6125 54.0057C42.597 54.088 42.587 54.1748 42.5774 54.2589C42.5659 54.3598 42.5548 54.4568 42.535 54.5376C42.531 54.5539 42.5196 54.5732 42.5054 54.5973C42.4954 54.6144 42.4838 54.6341 42.4724 54.6569C42.4555 54.761 42.4382 54.8652 42.4206 54.9692C42.4211 54.9731 42.4216 54.977 42.4221 54.981C42.4221 54.9811 42.4221 54.9811 42.4221 54.9812C42.4294 55.0379 42.4384 55.1079 42.432 55.1924C42.4294 55.2342 42.4233 55.2799 42.4114 55.3312C42.4033 55.3667 42.3924 55.389 42.3828 55.4094C42.3734 55.4295 42.3652 55.4477 42.3636 55.4747C42.3618 55.5053 42.3681 55.5413 42.3764 55.58C42.388 55.6345 42.4036 55.6936 42.4052 55.7553C42.4053 55.7595 42.4054 55.764 42.4056 55.7688C42.4063 55.7906 42.4077 55.8175 42.4091 55.8473C42.4116 55.8834 42.4132 55.923 42.4125 55.9631C42.4432 56.1192 42.4735 56.2754 42.5035 56.4316C42.5135 56.485 42.5274 56.5377 42.5452 56.5891C42.6453 56.8818 42.8823 57.131 43.1808 57.2458C43.3063 57.2951 43.4333 57.3313 43.5426 57.3617C43.5611 57.3663 43.5788 57.3712 43.5958 57.3764C43.7248 57.4158 43.7973 57.4664 43.7973 57.5188C43.7973 57.5711 43.7248 57.6217 43.5958 57.6611C43.5788 57.6662 43.5611 57.6711 43.5426 57.6758C43.4047 57.7072 43.2199 57.7037 43.0416 57.6463C42.7069 57.5406 42.4088 57.3142 42.216 57.0132C42.2053 56.9978 42.1949 56.9821 42.1849 56.9662C42.1104 56.8482 42.0486 56.7316 42.0007 56.6073C41.9931 56.5873 41.9858 56.5671 41.9788 56.5465C41.9763 56.5395 41.9737 56.5325 41.9712 56.5255Z" fill="#FCFCFC"/>
        </g>
        <g opacity="0.8">
            <path d="M58.725 47.5001C59.3488 47.4854 59.7961 46.8494 60.274 47.3592C60.576 47.6813 60.9896 50.9105 60.9924 52.9901C60.9941 54.201 60.4676 55.2279 60.4682 56.3607C60.469 57.6673 60.7883 60.0705 60.7855 61.4994C60.7818 63.4368 60.4258 64.25 60.1196 64.3352C59.5876 64.4831 59.2227 64.6162 58.725 64.3352C58.2273 64.0541 57.5957 63.0563 57.6147 61.4994C57.6337 59.9424 59.1484 53.0512 59.0737 51.4873C58.9989 49.9235 58.1012 47.5147 58.725 47.5001Z" fill="#FCFCFC"/>
            <path d="M58.9439 48.8759C59.0244 49.1597 59.1362 49.7265 59.1915 50.0439C59.1925 50.0497 59.1935 50.0555 59.1946 50.0613C59.2078 50.1364 59.221 50.2077 59.2359 50.2912C59.2682 50.4918 59.3288 50.7571 59.3623 51.346C59.3655 51.3887 59.3682 51.4311 59.3704 51.4731C59.3768 51.6058 59.3731 51.7385 59.3662 51.8713C59.2186 53.6805 58.8444 55.3892 58.5234 57.1286C58.5197 57.1506 58.5159 57.1729 58.512 57.1954C58.4377 57.6316 58.346 58.173 58.279 58.5092C58.1934 58.938 58.1338 59.231 58.0857 59.4691C57.9693 60.1497 57.8376 60.8456 57.8044 61.5017C57.7884 62.1821 57.8998 62.8753 58.2039 63.4719C58.3533 63.761 58.5578 64.0422 58.8077 64.1888C58.8785 64.229 58.95 64.2618 59.0237 64.2859C59.3385 64.3984 59.6927 64.2791 60.074 64.1713C60.0768 64.1705 60.0806 64.1691 60.0847 64.1671C60.1819 64.1149 60.285 63.8913 60.337 63.7154C60.4158 63.4567 60.453 63.2058 60.4819 63.001C60.5513 62.5058 60.5821 61.9284 60.5893 61.499C60.5893 61.4984 60.5893 61.4978 60.5893 61.4972C60.5905 61.4291 60.5909 61.3609 60.5909 61.3009C60.5815 60.96 60.5591 60.6182 60.5327 60.2747C60.5332 60.2518 60.5338 60.2287 60.5344 60.205C60.5421 59.9097 60.5138 59.5494 60.4652 58.9806C60.4442 58.7329 60.4192 58.446 60.3939 58.1066C60.3777 57.8882 60.3803 57.7745 60.3826 57.6827C60.3832 57.6553 60.3838 57.6297 60.384 57.6039C60.3846 57.5161 60.3708 57.4235 60.3551 57.3142C60.3349 57.1736 60.3108 57.0018 60.3144 56.7749C60.317 56.619 60.3196 56.4816 60.3226 56.3607C60.3388 55.904 60.3713 55.6655 60.387 55.4731C60.3941 55.4015 60.4014 55.3368 60.412 55.2713C60.4458 55.0586 60.5266 54.7667 60.5915 54.5501C60.6432 54.378 60.7136 54.0284 60.7417 53.7644C60.7528 53.6645 60.7722 53.5307 60.786 53.3731C60.7961 53.2569 60.8031 53.1276 60.8008 52.9904C60.7999 52.9341 60.7984 52.8756 60.7961 52.815C60.7743 52.2894 60.7498 52.0075 60.7325 51.7833C60.7273 51.7186 60.7223 51.6596 60.717 51.5997C60.7005 51.411 60.6798 51.177 60.656 50.9402C60.6276 50.6569 60.5946 50.3695 60.5647 50.152C60.5099 49.5857 60.4444 49.0175 60.3525 48.461C60.3047 48.1743 60.2704 47.9031 60.2496 47.7006C60.2325 47.5016 60.2225 47.4057 60.2603 47.372C60.2955 47.3219 60.4308 47.4232 60.5256 47.6161C60.6281 47.8164 60.7119 48.0913 60.7696 48.3852C60.8843 48.9751 60.9689 49.5683 61.0391 50.1615C61.1235 50.8844 61.185 51.6109 61.2109 52.3405C61.2184 52.5571 61.2227 52.7736 61.2226 52.9898C61.2226 53.2981 61.1887 53.6031 61.1363 53.8996C61.127 53.9527 61.1171 54.0052 61.1067 54.0578C61.0362 54.4892 60.9381 54.9032 60.8797 55.1903C60.8302 55.4274 60.7922 55.5962 60.7643 55.7413C60.7452 55.841 60.7309 55.9293 60.7233 56.0189C60.7193 56.067 60.7149 56.1327 60.7126 56.2114C60.7113 56.2571 60.7107 56.3068 60.7113 56.3605C60.7144 56.6968 60.7447 57.1853 60.7672 57.6388C60.7786 57.8735 60.7893 58.1461 60.8004 58.4074C60.8163 58.7811 60.8317 59.1299 60.8504 59.3053C60.8836 59.613 60.905 59.9685 60.9197 60.2827C60.9342 60.5832 60.9419 60.846 60.9561 60.996C60.9716 61.1597 60.9729 61.301 60.9674 61.4997C60.9668 61.5187 60.9662 61.538 60.9655 61.5578C60.96 61.7139 60.9521 61.9102 60.9368 62.1727C60.9186 62.4782 60.8898 62.6926 60.861 62.8747C60.8185 63.1317 60.7824 63.323 60.7197 63.613C60.6309 63.9265 60.5812 64.3019 60.1788 64.4914C60.174 64.4929 60.1691 64.4943 60.1642 64.4956C60.0523 64.5246 59.9251 64.5631 59.7857 64.5983C59.598 64.6461 59.3765 64.6838 59.1696 64.6539C58.9997 64.6303 58.8698 64.571 58.7666 64.5126C58.7343 64.4943 58.704 64.4756 58.6755 64.4571C58.6706 64.4544 58.6657 64.4516 58.6608 64.4489C58.5487 64.3854 58.4526 64.305 58.3667 64.2193C58.351 64.2058 58.3344 64.1913 58.3179 64.1763C58.2343 64.1002 58.1368 63.9981 58.0405 63.8586C57.8882 63.6362 57.7952 63.4181 57.7176 63.1866C57.6575 63.0049 57.608 62.815 57.5609 62.5937C57.5289 62.4435 57.4981 62.2712 57.4771 62.0992C57.4501 61.8815 57.4392 61.6657 57.4424 61.4973C57.4429 61.4695 57.444 61.4419 57.4456 61.4151C57.4498 61.3452 57.4599 61.2908 57.4704 61.2364C57.4705 61.2362 57.4706 61.236 57.4706 61.2357C57.4713 61.232 57.4721 61.2282 57.4728 61.2244C57.503 60.7921 57.557 60.3876 57.6135 59.9704C57.6172 59.9345 57.6212 59.8978 57.6252 59.861C57.6443 59.685 57.6643 59.5118 57.6712 59.4008C57.6787 59.2805 57.7217 58.9766 57.7687 58.658C57.7995 58.4492 57.8315 58.235 57.8558 58.0573C57.8699 57.9538 57.8932 57.8594 57.9176 57.7602C57.9404 57.6674 57.9636 57.5734 57.9803 57.4688C57.9887 57.4163 57.996 57.3592 58.0037 57.2981C58.0106 57.2441 58.0177 57.188 58.0263 57.1289C58.0344 57.0742 58.0595 56.9529 58.0916 56.7978C58.1114 56.702 58.1339 56.5931 58.1567 56.4786C58.2061 56.174 58.2553 55.8697 58.3042 55.5653C58.3094 55.5008 58.3113 55.4446 58.3091 55.3995C58.3076 55.3672 58.3038 55.3393 58.3 55.3107C58.2948 55.272 58.2896 55.231 58.2891 55.1762C58.2888 55.1334 58.2942 55.084 58.3028 55.0518C58.3068 55.0368 58.3115 55.0256 58.3158 55.0154C58.3206 55.0037 58.325 54.9933 58.3271 54.98C58.3287 54.9705 58.3284 54.9602 58.328 54.9477C58.3275 54.9275 58.3267 54.9018 58.3331 54.8628C58.3571 54.716 58.3852 54.5569 58.4135 54.3939C58.4444 54.2157 58.4741 54.0413 58.4943 53.9023C58.5167 53.7488 58.5582 53.5281 58.5981 53.3045C58.6253 53.1528 58.6525 52.9939 58.6716 52.8645C58.6909 52.7332 58.7032 52.6004 58.7143 52.4665C58.7272 52.3097 58.7377 52.154 58.7537 52.0342C58.7571 52.0071 58.7678 51.9745 58.7806 51.9352C58.7897 51.9074 58.7999 51.876 58.8093 51.8415C58.8158 51.7201 58.8188 51.6009 58.8144 51.4997C58.8125 51.4589 58.8101 51.4172 58.8072 51.3747C58.8056 51.3691 58.8041 51.3633 58.8025 51.3576C58.8025 51.3575 58.8024 51.3574 58.8024 51.3573C58.7666 51.2292 58.7135 51.0552 58.6956 50.7985C58.6909 50.7325 58.6941 50.6911 58.6968 50.6527C58.6994 50.6151 58.7016 50.5812 58.6951 50.5339C58.6876 50.4799 58.6709 50.417 58.6523 50.349C58.6262 50.2531 58.5962 50.1463 58.5827 50.0352C58.5818 50.0276 58.5808 50.0195 58.5798 50.011C58.5699 49.9306 58.5547 49.8114 58.548 49.6902C58.481 49.3419 58.4103 48.9897 58.3547 48.6305C58.324 48.4267 58.2962 48.2218 58.2911 48.0024C58.2899 47.8923 58.2909 47.7776 58.3241 47.6443C58.3416 47.5795 58.3685 47.4997 58.4355 47.4235C58.5033 47.3424 58.6252 47.2935 58.7202 47.2956C58.8706 47.2965 59.0304 47.246 59.2015 47.1749C59.4458 47.0713 59.7932 46.9326 60.0488 47.0651C60.2808 47.1942 60.2921 47.3419 60.2603 47.372C60.2223 47.4113 60.106 47.3421 59.964 47.3369C59.8334 47.3272 59.6471 47.431 59.3707 47.5636C59.1897 47.6466 58.9752 47.7327 58.7307 47.742C58.7322 47.7517 58.7919 47.7093 58.7783 47.7207C58.7732 47.7316 58.762 47.7792 58.7594 47.8322C58.7531 47.9401 58.7646 48.0701 58.7816 48.1996C58.7853 48.2223 58.7891 48.2448 58.7931 48.2681C58.8228 48.4406 58.8664 48.6019 58.912 48.7637C58.9224 48.8005 58.9333 48.8391 58.9439 48.8759Z" fill="#FCFCFC"/>
        </g>
        <circle cx="43.5" cy="46.5" r="2" fill="black"/>
        <circle cx="59.5" cy="46.5" r="2" fill="black"/>
        <rect x="47.3096" y="55.3818" width="7.77635" height="1.29606" rx="0.648029" fill="black"/>

        <ellipse cx="37" cy="51" rx="3.5" ry="2.5" fill="#436EFC" fill-opacity="0.2"/>
        <ellipse cx="66" cy="51" rx="3.5" ry="2.5" fill="#436EFC" fill-opacity="0.2"/>

    </g>

</svg>