<svg width="56" height="56" viewBox="0 0 56 56" fill="none" xmlns="http://www.w3.org/2000/svg">
<rect width="56" height="56" rx="28" fill="#9F38FF"/>
<path d="M30.6084 19.2119C31.1802 17.9398 33.0914 15.1165 36.1613 13.9999" stroke="white" stroke-width="3" stroke-linecap="round"/>
<path d="M20.1963 21.5479C18.8427 21.2117 15.4419 20.9706 12.6674 22.695" stroke="white" stroke-width="3" stroke-linecap="round"/>
<path d="M14.6667 29.8227L22.4769 29.8675" stroke="white" stroke-width="3" stroke-linecap="round"/>
<path d="M28.6667 29.8227L36.4769 29.8675" stroke="white" stroke-width="3" stroke-linecap="round"/>
<path d="M42.1978 21.815C42.4531 20.81 43.8809 20.81 44.1362 21.815L44.4847 23.1868C44.5382 23.3972 44.6586 23.5845 44.8278 23.7204L46.6959 25.2202C47.1944 25.6205 47.1944 26.3795 46.6959 26.7798L44.8278 28.2796C44.6586 28.4155 44.5382 28.6028 44.4847 28.8132L44.1362 30.185C43.8809 31.19 42.4531 31.19 42.1978 30.185L41.8493 28.8132C41.7958 28.6028 41.6754 28.4155 41.5061 28.2796L39.6381 26.7798C39.1396 26.3795 39.1396 25.6205 39.6381 25.2202L41.5061 23.7204C41.6754 23.5845 41.7958 23.3972 41.8493 23.1868L42.1978 21.815Z" fill="white"/>
</svg>
