<svg width="56" height="56" viewBox="0 0 56 56" fill="none" xmlns="http://www.w3.org/2000/svg">
<rect width="56" height="56" rx="28" fill="#AFCCDF"/>
<path d="M44.6667 34.2263C44.6667 36.3106 42.8759 38 40.6669 38C38.4578 38 36.667 36.3106 36.667 34.2263C36.667 32.6146 39.0589 29.9078 40.1435 28.2739C40.3857 27.9087 40.948 27.9087 41.1905 28.2739C42.2751 29.9078 44.6667 32.6146 44.6667 34.2263Z" fill="white"/>
<path d="M37.667 23C37.667 25.2091 35.6523 27 33.167 27C30.6817 27 28.667 25.2091 28.667 23" stroke="white" stroke-width="3" stroke-linecap="round"/>
<path d="M21.667 23C21.667 25.2091 19.6523 27 17.167 27C14.6817 27 12.667 25.2091 12.667 23" stroke="white" stroke-width="3" stroke-linecap="round"/>
<path d="M13.667 15.2241C14.8886 14.4737 17.9767 13.2452 20.556 14.3347" stroke="white" stroke-width="3" stroke-linecap="round"/>
<path d="M36.5557 15.2241C35.334 14.4737 32.2459 13.2452 29.6666 14.3347" stroke="white" stroke-width="3" stroke-linecap="round"/>
</svg>
