<svg width="103" height="103" viewBox="0 0 103 103" fill="none" xmlns="http://www.w3.org/2000/svg">
<g filter="url(#filter0_d_959_6428)">
<circle cx="51.5" cy="49.5" r="44" fill="white"/>
</g>
<path d="M78.0005 75C78.2864 78.5784 63.3369 78.5542 51.5005 79.5C39.6641 80.4458 33.2685 80.0583 32.9826 76.4798C32.6966 72.9014 42.0601 69.2338 53.8965 68.2879C65.7329 67.3421 77.7145 71.4216 78.0005 75Z" fill="#848B94" fill-opacity="0.21"/>
<path d="M52.7034 16.5C61.5582 16.5 69.2852 20.6369 73.3986 26.7786C74.8771 28.9862 76.4298 31.1786 78.18 33.1776C82.115 37.6718 84.5 43.5572 84.5 50C84.5 64.1113 73.0605 75.5508 58.9492 75.5508C57.1984 75.5508 54.4937 75.7767 52.7349 75.9436C51.5804 76.0531 50.4196 76.0531 49.2651 75.9436C47.5063 75.7767 44.8015 75.5508 43.0508 75.5508C28.9395 75.5508 17.5 64.1113 17.5 50C17.5 41.4876 21.663 33.9483 28.0639 29.3052C30.3998 27.6108 32.5721 25.6569 34.6159 23.6197C38.9892 19.2607 45.47 16.5 52.7034 16.5Z" fill="#FFEA85"/>
<path d="M61.0715 42.0513L57.1086 44.7844L60.7691 47.1723" stroke="black" stroke-width="1.5" stroke-linecap="round" stroke-linejoin="round"/>
<path d="M41.0071 42.0152L45.0077 44.6929L41.3808 47.1314" stroke="black" stroke-width="1.5" stroke-linecap="round" stroke-linejoin="round"/>
<g filter="url(#filter1_f_959_6428)">
<ellipse cx="37" cy="47" rx="3.5" ry="2.5" fill="#FC6543" fill-opacity="0.2"/>
</g>
<g filter="url(#filter2_f_959_6428)">
<ellipse cx="66" cy="47" rx="3.5" ry="2.5" fill="#FC6543" fill-opacity="0.2"/>
</g>
<path d="M48.2656 49C49.4258 49.7546 52.3435 50.8111 54.7334 49" stroke="black" stroke-linecap="round" stroke-linejoin="round"/>
<path d="M75.4554 23.4165C74.4413 23.4165 73.5534 24.1345 73 24.9165C72.4466 24.1345 71.5587 23.4165 70.5446 23.4165C69.7374 23.4175 68.9635 23.7581 68.3928 24.3636C67.822 24.9691 67.5009 25.7901 67.5 26.6464C67.5 30.2931 72.5968 33.2449 72.8139 33.3668C72.8711 33.3994 72.935 33.4165 73 33.4165C73.065 33.4165 73.1289 33.3994 73.1861 33.3668C73.4032 33.2449 78.5 30.2931 78.5 26.6464C78.4991 25.7901 78.178 24.9691 77.6072 24.3636C77.0365 23.7581 76.2626 23.4175 75.4554 23.4165Z" fill="#FCBD49"/>
<path d="M22.4554 41.4165C21.4413 41.4165 20.5534 42.1345 20 42.9165C19.4466 42.1345 18.5587 41.4165 17.5446 41.4165C16.7374 41.4175 15.9635 41.7581 15.3928 42.3636C14.822 42.9691 14.5009 43.7901 14.5 44.6464C14.5 48.2931 19.5968 51.2449 19.8139 51.3668C19.8711 51.3994 19.935 51.4165 20 51.4165C20.065 51.4165 20.1289 51.3994 20.1861 51.3668C20.4032 51.2449 25.5 48.2931 25.5 44.6464C25.4991 43.7901 25.178 42.9691 24.6072 42.3636C24.0365 41.7581 23.2626 41.4175 22.4554 41.4165Z" fill="#FCBD49"/>
<path d="M83.4554 56.4165C82.4413 56.4165 81.5534 57.1345 81 57.9165C80.4466 57.1345 79.5587 56.4165 78.5446 56.4165C77.7374 56.4175 76.9635 56.7581 76.3928 57.3636C75.822 57.9691 75.5009 58.7901 75.5 59.6464C75.5 63.2931 80.5968 66.2449 80.8139 66.3668C80.8711 66.3994 80.935 66.4165 81 66.4165C81.065 66.4165 81.1289 66.3994 81.1861 66.3668C81.4032 66.2449 86.5 63.2931 86.5 59.6464C86.4991 58.7901 86.178 57.9691 85.6072 57.3636C85.0365 56.7581 84.2626 56.4175 83.4554 56.4165Z" fill="#FCBD49"/>
<defs>
<filter id="filter0_d_959_6428" x="0.5" y="0.5" width="102" height="102" filterUnits="userSpaceOnUse" color-interpolation-filters="sRGB">
<feFlood flood-opacity="0" result="BackgroundImageFix"/>
<feColorMatrix in="SourceAlpha" type="matrix" values="0 0 0 0 0 0 0 0 0 0 0 0 0 0 0 0 0 0 127 0" result="hardAlpha"/>
<feOffset dy="2"/>
<feGaussianBlur stdDeviation="3.5"/>
<feComposite in2="hardAlpha" operator="out"/>
<feColorMatrix type="matrix" values="0 0 0 0 0 0 0 0 0 0 0 0 0 0 0 0 0 0 0.05 0"/>
<feBlend mode="normal" in2="BackgroundImageFix" result="effect1_dropShadow_959_6428"/>
<feBlend mode="normal" in="SourceGraphic" in2="effect1_dropShadow_959_6428" result="shape"/>
</filter>
<filter id="filter1_f_959_6428" x="31.5" y="42.5" width="11" height="9" filterUnits="userSpaceOnUse" color-interpolation-filters="sRGB">
<feFlood flood-opacity="0" result="BackgroundImageFix"/>
<feBlend mode="normal" in="SourceGraphic" in2="BackgroundImageFix" result="shape"/>
<feGaussianBlur stdDeviation="1" result="effect1_foregroundBlur_959_6428"/>
</filter>
<filter id="filter2_f_959_6428" x="60.5" y="42.5" width="11" height="9" filterUnits="userSpaceOnUse" color-interpolation-filters="sRGB">
<feFlood flood-opacity="0" result="BackgroundImageFix"/>
<feBlend mode="normal" in="SourceGraphic" in2="BackgroundImageFix" result="shape"/>
<feGaussianBlur stdDeviation="1" result="effect1_foregroundBlur_959_6428"/>
</filter>
</defs>
</svg>
