<svg width="102" height="102" viewBox="0 0 102 102" fill="none" xmlns="http://www.w3.org/2000/svg">
<g filter="url(#filter0_d_2123_3109)">
<circle cx="51" cy="49" r="44" fill="white"/>
</g>
<path d="M77.5 76.5C77.7859 80.0784 62.8364 80.0542 51 81C39.1636 81.9458 32.768 81.5583 32.4821 77.9798C32.1962 74.4014 41.5596 70.7338 53.396 69.7879C65.2324 68.8421 77.2141 72.9216 77.5 76.5Z" fill="#848B94" fill-opacity="0.21"/>
<path d="M52.2039 18C61.0587 18 68.7857 22.1369 72.8991 28.2786C74.3776 30.4862 75.9303 32.6786 77.6805 34.6776C81.6155 39.1718 84.0005 45.0572 84.0005 51.5C84.0005 65.6113 72.561 77.0508 58.4496 77.0508C56.6989 77.0508 53.9942 77.2767 52.2354 77.4436C51.0809 77.5531 49.9201 77.5531 48.7656 77.4436C47.0068 77.2767 44.302 77.0508 42.5513 77.0508C28.44 77.0508 17.0005 65.6113 17.0005 51.5C17.0005 42.9876 21.1635 35.4483 27.5644 30.8052C29.9002 29.1108 32.0726 27.1569 34.1164 25.1197C38.4897 20.7607 44.9705 18 52.2039 18Z" fill="#FDC7E1"/>
<circle cx="38" cy="48" r="2" fill="black"/>
<circle cx="51" cy="48" r="2" fill="black"/>
<g filter="url(#filter1_f_2123_3109)">
<ellipse cx="32.5" cy="50.5" rx="3.5" ry="2.5" fill="#FF85C0"/>
</g>
<g filter="url(#filter2_f_2123_3109)">
<ellipse cx="56.5" cy="50.5" rx="3.5" ry="2.5" fill="#FF85C0"/>
</g>
<path d="M40 52C41.6144 53.5092 45.6745 55.6222 49 52" stroke="black" stroke-linecap="round" stroke-linejoin="round"/>
<path d="M46.9173 31.5061C43.4887 31.2139 40.7864 33.4198 40.1662 35.5791C39.546 37.7383 40.2862 40.7987 42.6939 42.1393C45.1016 43.4799 49.4006 42.0044 49.0844 38.7136C48.8112 35.8706 46.4987 34.1499 44.1257 35.7114C42.2376 37.5091 43.0387 39.3785 44.811 39.0786" stroke="#FF85C0" stroke-linecap="round" stroke-linejoin="round"/>
<mask id="path-10-inside-1_2123_3109" fill="white">
<path d="M20.0845 53.0607C21.596 52.689 23.2622 54.0597 24.0396 56.2013C25.1429 53.9285 27.2152 52.6533 28.7476 53.3381C30.3266 54.0441 30.7361 56.5654 29.6616 58.9699C29.4049 59.5444 29.0852 60.0593 28.728 60.5021C29.4615 61.5133 29.8931 62.7438 29.8931 64.0724C29.893 67.5127 27.0071 70.3019 23.4468 70.3019C19.8866 70.3018 17.0005 67.5127 17.0005 64.0724C17.0005 62.449 17.6429 60.9702 18.6958 59.8615C18.483 59.4274 18.3076 58.9504 18.1821 58.4406C17.5526 55.883 18.4047 53.4742 20.0845 53.0607Z"/>
</mask>
<path d="M20.0845 53.0607C21.596 52.689 23.2622 54.0597 24.0396 56.2013C25.1429 53.9285 27.2152 52.6533 28.7476 53.3381C30.3266 54.0441 30.7361 56.5654 29.6616 58.9699C29.4049 59.5444 29.0852 60.0593 28.728 60.5021C29.4615 61.5133 29.8931 62.7438 29.8931 64.0724C29.893 67.5127 27.0071 70.3019 23.4468 70.3019C19.8866 70.3018 17.0005 67.5127 17.0005 64.0724C17.0005 62.449 17.6429 60.9702 18.6958 59.8615C18.483 59.4274 18.3076 58.9504 18.1821 58.4406C17.5526 55.883 18.4047 53.4742 20.0845 53.0607Z" fill="#FDC7E1"/>
<path d="M20.0845 53.0607L19.8456 52.0897L19.8455 52.0897L20.0845 53.0607ZM24.0396 56.2013L23.0996 56.5425L23.9064 58.7654L24.9392 56.6381L24.0396 56.2013ZM28.7476 53.3381L29.1558 52.4252L29.1555 52.4251L28.7476 53.3381ZM29.6616 58.9699L30.5746 59.3779L30.5746 59.3779L29.6616 58.9699ZM28.728 60.5021L27.9497 59.8743L27.4693 60.4699L27.9186 61.0893L28.728 60.5021ZM29.8931 64.0724L30.8931 64.0725V64.0724H29.8931ZM23.4468 70.3019L23.4467 71.3019H23.4468V70.3019ZM17.0005 64.0724H16.0005V64.0725L17.0005 64.0724ZM18.6958 59.8615L19.4209 60.5501L19.8999 60.0458L19.5937 59.4213L18.6958 59.8615ZM18.1821 58.4406L17.2111 58.6796L17.2111 58.6796L18.1821 58.4406ZM20.0845 53.0607L20.3233 54.0318C20.6919 53.9411 21.1741 54.0372 21.7114 54.4684C22.2476 54.8987 22.7622 55.6132 23.0996 56.5425L24.0396 56.2013L24.9795 55.8602C24.5395 54.6478 23.8323 53.6061 22.9632 52.9086C22.0952 52.212 20.9886 51.8085 19.8456 52.0897L20.0845 53.0607ZM24.0396 56.2013L24.9392 56.6381C25.4201 55.6474 26.0932 54.9173 26.7537 54.5142C27.4203 54.1073 27.9672 54.0846 28.3396 54.2511L28.7476 53.3381L29.1555 52.4251C27.9956 51.9067 26.7401 52.1793 25.7117 52.807C24.6771 53.4385 23.7624 54.4825 23.14 55.7646L24.0396 56.2013ZM28.7476 53.3381L28.3394 54.251C28.7224 54.4222 29.081 54.8668 29.2126 55.6773C29.3425 56.4779 29.2177 57.5121 28.7486 58.5619L29.6616 58.9699L30.5746 59.3779C31.18 58.0232 31.3877 56.5946 31.1867 55.3568C30.9874 54.1291 30.3517 52.96 29.1558 52.4252L28.7476 53.3381ZM29.6616 58.9699L28.7486 58.5619C28.527 59.0579 28.2526 59.4988 27.9497 59.8743L28.728 60.5021L29.5064 61.13C29.9179 60.6198 30.2827 60.031 30.5746 59.3779L29.6616 58.9699ZM28.728 60.5021L27.9186 61.0893C28.5343 61.9381 28.8931 62.9648 28.8931 64.0724H29.8931H30.8931C30.8931 62.5228 30.3888 61.0885 29.5375 59.915L28.728 60.5021ZM29.8931 64.0724L28.8931 64.0724C28.893 66.9285 26.4873 69.3019 23.4468 69.3019V70.3019V71.3019C27.5269 71.3019 30.893 68.097 30.8931 64.0725L29.8931 64.0724ZM23.4468 70.3019L23.4468 69.3019C20.4064 69.3019 18.0005 66.9284 18.0005 64.0724L17.0005 64.0724L16.0005 64.0725C16.0005 68.0969 19.3668 71.3018 23.4467 71.3019L23.4468 70.3019ZM17.0005 64.0724H18.0005C18.0005 62.7195 18.5344 61.4836 19.4209 60.5501L18.6958 59.8615L17.9707 59.1729C16.7513 60.4569 16.0005 62.1785 16.0005 64.0724H17.0005ZM18.6958 59.8615L19.5937 59.4213C19.4126 59.0518 19.2616 58.6423 19.1531 58.2016L18.1821 58.4406L17.2111 58.6796C17.3536 59.2584 17.5534 59.803 17.7979 60.3017L18.6958 59.8615ZM18.1821 58.4406L19.1531 58.2016C18.8783 57.085 18.9396 56.0448 19.2101 55.28C19.4839 54.5057 19.9161 54.132 20.3235 54.0317L20.0845 53.0607L19.8455 52.0897C18.5731 52.4029 17.7393 53.4404 17.3245 54.6132C16.9064 55.7956 16.8564 57.2386 17.2111 58.6796L18.1821 58.4406Z" fill="#FF9FCD" mask="url(#path-10-inside-1_2123_3109)"/>
<defs>
<filter id="filter0_d_2123_3109" x="0" y="0" width="102" height="102" filterUnits="userSpaceOnUse" color-interpolation-filters="sRGB">
<feFlood flood-opacity="0" result="BackgroundImageFix"/>
<feColorMatrix in="SourceAlpha" type="matrix" values="0 0 0 0 0 0 0 0 0 0 0 0 0 0 0 0 0 0 127 0" result="hardAlpha"/>
<feOffset dy="2"/>
<feGaussianBlur stdDeviation="3.5"/>
<feComposite in2="hardAlpha" operator="out"/>
<feColorMatrix type="matrix" values="0 0 0 0 0 0 0 0 0 0 0 0 0 0 0 0 0 0 0.1 0"/>
<feBlend mode="normal" in2="BackgroundImageFix" result="effect1_dropShadow_2123_3109"/>
<feBlend mode="normal" in="SourceGraphic" in2="effect1_dropShadow_2123_3109" result="shape"/>
</filter>
<filter id="filter1_f_2123_3109" x="27" y="46" width="11" height="9" filterUnits="userSpaceOnUse" color-interpolation-filters="sRGB">
<feFlood flood-opacity="0" result="BackgroundImageFix"/>
<feBlend mode="normal" in="SourceGraphic" in2="BackgroundImageFix" result="shape"/>
<feGaussianBlur stdDeviation="1" result="effect1_foregroundBlur_2123_3109"/>
</filter>
<filter id="filter2_f_2123_3109" x="51" y="46" width="11" height="9" filterUnits="userSpaceOnUse" color-interpolation-filters="sRGB">
<feFlood flood-opacity="0" result="BackgroundImageFix"/>
<feBlend mode="normal" in="SourceGraphic" in2="BackgroundImageFix" result="shape"/>
<feGaussianBlur stdDeviation="1" result="effect1_foregroundBlur_2123_3109"/>
</filter>
</defs>
</svg>
