<svg width="56" height="56" viewBox="0 0 56 56" fill="none" xmlns="http://www.w3.org/2000/svg">
<rect width="56" height="56" rx="28" fill="#A2B2DC"/>
<path d="M9.66699 23L15.667 18" stroke="white" stroke-width="2.94949" stroke-linecap="round"/>
<path d="M42 23L36 18" stroke="white" stroke-width="2.94949" stroke-linecap="round"/>
<circle cx="18.667" cy="28" r="4.5" stroke="white" stroke-width="3"/>
<circle cx="33" cy="28" r="4.5" stroke="white" stroke-width="3"/>
<path d="M44.3048 32.2739C45.0676 32.2177 45.7313 32.7904 45.7875 33.5532L45.8064 33.8103C45.8293 34.122 45.7629 34.4334 45.615 34.7087L45.1112 35.6466C44.9968 35.8591 44.7819 35.9989 44.5411 36.0166C44.0175 36.0551 43.6364 35.5289 43.8359 35.0433L44.002 34.6384C43.4836 34.6 43.0575 34.1892 43.018 33.6553L43.01 33.5472C42.9624 32.9 43.4483 32.337 44.0954 32.2893L44.3048 32.2739ZM44.1236 26.9525C44.7707 26.9049 45.3337 27.3908 45.3815 28.0379C45.4291 28.6851 44.9433 29.2481 44.2961 29.2958L43.8773 29.3266C43.2302 29.3741 42.667 28.8883 42.6194 28.2412C42.5719 27.5942 43.0578 27.0311 43.7048 26.9833L44.1236 26.9525Z" fill="white" stroke="white" stroke-width="0.25"/>
</svg>
