<svg width="56" height="56" viewBox="0 0 56 56" fill="none" xmlns="http://www.w3.org/2000/svg">
<rect width="56" height="56" rx="28" fill="#0AC7CA"/>
<path d="M25 28C25 25.7909 23.2091 24 21 24C18.7909 24 17 25.7909 17 28" stroke="white" stroke-width="3" stroke-linecap="round"/>
<path d="M39 28C39 25.7909 37.2091 24 35 24C32.7909 24 31 25.7909 31 28" stroke="white" stroke-width="3" stroke-linecap="round"/>
<path d="M16 18.2241C17.2216 17.4737 20.3097 16.2452 22.889 17.3347" stroke="white" stroke-width="3" stroke-linecap="round"/>
<path d="M38.8887 18.2241C37.667 17.4737 34.5789 16.2452 31.9996 17.3347" stroke="white" stroke-width="3" stroke-linecap="round"/>
<path d="M48.1703 35.0818C48.7197 36.7828 47.7035 38.6337 45.9005 39.216C44.0976 39.7984 42.1907 38.8916 41.6413 37.1905C41.2164 35.8751 42.4551 33.0355 42.9095 31.416C43.0109 31.0541 43.4699 30.9059 43.7641 31.14C45.08 32.1876 47.7454 33.7664 48.1703 35.0818Z" fill="white"/>
<path d="M11.5611 37.1573C10.6706 38.7072 8.61699 39.1984 6.97421 38.2545C5.33143 37.3106 4.72153 35.2891 5.61209 33.7392C6.30072 32.5406 9.23603 31.5497 10.7408 30.798C11.0769 30.6299 11.4951 30.8702 11.5194 31.2453C11.6278 32.9239 12.2498 35.9587 11.5611 37.1573Z" fill="white"/>
</svg>
