<svg width="102" height="102" viewBox="0 0 102 102" fill="none" xmlns="http://www.w3.org/2000/svg">
<g filter="url(#filter0_d_2123_3713)">
<circle cx="51" cy="49" r="44" fill="white"/>
</g>
<path d="M17.769 52.4897C17.7174 52.0434 17.1458 51.2506 15.2723 51.649C13.3988 52.0474 12.9219 50.6006 12.9176 49.8275" stroke="#B80000" stroke-linecap="round" stroke-linejoin="round"/>
<path d="M76.4272 77.0542C76.7132 80.6326 61.7636 80.6084 49.9272 81.5542C38.0909 82.5 31.6953 82.1125 31.4093 78.534C31.1234 74.9556 40.4869 71.288 52.3233 70.3421C64.1597 69.3963 76.1413 73.4758 76.4272 77.0542Z" fill="#848B94" fill-opacity="0.21"/>
<path d="M52.2039 18C61.0587 18 68.7857 22.1369 72.8991 28.2786C74.3776 30.4862 75.9303 32.6786 77.6805 34.6776C81.6155 39.1718 84.0005 45.0572 84.0005 51.5C84.0005 65.6113 72.561 77.0508 58.4496 77.0508C56.6989 77.0508 53.9942 77.2767 52.2354 77.4436C51.0809 77.5531 49.9201 77.5531 48.7656 77.4436C47.0068 77.2767 44.302 77.0508 42.5513 77.0508C28.44 77.0508 17.0005 65.6113 17.0005 51.5C17.0005 42.9876 21.1635 35.4483 27.5644 30.8052C29.9002 29.1108 32.0726 27.1569 34.1164 25.1197C38.4897 20.7607 44.9705 18 52.2039 18Z" fill="#FD9983"/>
<circle cx="46" cy="42" r="2" fill="black"/>
<circle cx="59" cy="42" r="2" fill="black"/>
<g filter="url(#filter1_f_2123_3713)">
<ellipse cx="63.5" cy="45.5" rx="3.5" ry="2.5" fill="#FF2E00" fill-opacity="0.2"/>
</g>
<g filter="url(#filter2_f_2123_3713)">
<ellipse cx="42.5" cy="45.5" rx="3.5" ry="2.5" fill="#FF2E00" fill-opacity="0.2"/>
</g>
<path d="M46 35L50 39" stroke="black" stroke-linecap="round" stroke-linejoin="round"/>
<path d="M59 35L55 39" stroke="black" stroke-linecap="round" stroke-linejoin="round"/>
<path d="M31.7098 25.4959C31.7582 27.2673 32.7177 30.1887 36.1684 27.7026" stroke="#FF4A23" stroke-width="1.53678" stroke-linecap="round" stroke-linejoin="round"/>
<path d="M29.0031 26.4103C30.0389 27.8481 31.0478 30.7528 26.7964 30.8689" stroke="#FF4A23" stroke-width="1.53678" stroke-linecap="round" stroke-linejoin="round"/>
<path d="M34.9076 34.9598C33.8717 33.522 32.8629 30.6173 37.1143 30.5012" stroke="#FF4A23" stroke-width="1.53678" stroke-linecap="round" stroke-linejoin="round"/>
<path d="M32.2008 35.8742C32.1524 34.1028 31.1929 31.1815 27.7422 33.6675" stroke="#FF4A23" stroke-width="1.53678" stroke-linecap="round" stroke-linejoin="round"/>
<path d="M66.7945 21.4782C66.8717 20.6398 65.9414 20.0871 65.242 20.5559L62.9966 22.0607C62.682 22.2716 62.5758 22.6849 62.7498 23.0213C63.3253 24.1335 64.473 24.8319 65.7253 24.8319L65.7864 24.8319C66.1827 24.8319 66.5137 24.53 66.55 24.1354L66.7945 21.4782Z" fill="#B80000"/>
<path d="M39.7675 21.4782C39.6903 20.6398 40.6206 20.0871 41.32 20.5559L43.5654 22.0607C43.88 22.2716 43.9862 22.6849 43.8122 23.0213C43.2367 24.1335 42.089 24.8319 40.8367 24.8319L40.7756 24.8319C40.3793 24.8319 40.0483 24.53 40.012 24.1354L39.7675 21.4782Z" fill="#B80000"/>
<path d="M13.1921 49L11.0828 48.4326L12.1594 50.5368L13.1921 49Z" fill="#B80000" stroke="#B80000" stroke-linecap="round" stroke-linejoin="round"/>
<path d="M54.3811 48.6498C54.2738 48.7709 54.0745 48.721 54.0369 48.5635L53.7465 47.345C53.7117 47.199 53.8441 47.0682 53.9897 47.1047L55.1111 47.3859C55.2567 47.4224 55.3117 47.6002 55.2121 47.7125L54.3811 48.6498Z" fill="white"/>
<path d="M55.5727 47.5996C55.0898 47.0318 53.2977 46.3057 49.9931 47.9426" stroke="black" stroke-linecap="round" stroke-linejoin="round"/>
<defs>
<filter id="filter0_d_2123_3713" x="0" y="0" width="102" height="102" filterUnits="userSpaceOnUse" color-interpolation-filters="sRGB">
<feFlood flood-opacity="0" result="BackgroundImageFix"/>
<feColorMatrix in="SourceAlpha" type="matrix" values="0 0 0 0 0 0 0 0 0 0 0 0 0 0 0 0 0 0 127 0" result="hardAlpha"/>
<feOffset dy="2"/>
<feGaussianBlur stdDeviation="3.5"/>
<feComposite in2="hardAlpha" operator="out"/>
<feColorMatrix type="matrix" values="0 0 0 0 0 0 0 0 0 0 0 0 0 0 0 0 0 0 0.05 0"/>
<feBlend mode="normal" in2="BackgroundImageFix" result="effect1_dropShadow_2123_3713"/>
<feBlend mode="normal" in="SourceGraphic" in2="effect1_dropShadow_2123_3713" result="shape"/>
</filter>
<filter id="filter1_f_2123_3713" x="58" y="41" width="11" height="9" filterUnits="userSpaceOnUse" color-interpolation-filters="sRGB">
<feFlood flood-opacity="0" result="BackgroundImageFix"/>
<feBlend mode="normal" in="SourceGraphic" in2="BackgroundImageFix" result="shape"/>
<feGaussianBlur stdDeviation="1" result="effect1_foregroundBlur_2123_3713"/>
</filter>
<filter id="filter2_f_2123_3713" x="37" y="41" width="11" height="9" filterUnits="userSpaceOnUse" color-interpolation-filters="sRGB">
<feFlood flood-opacity="0" result="BackgroundImageFix"/>
<feBlend mode="normal" in="SourceGraphic" in2="BackgroundImageFix" result="shape"/>
<feGaussianBlur stdDeviation="1" result="effect1_foregroundBlur_2123_3713"/>
</filter>
</defs>
</svg>
