<svg width="103" height="103" viewBox="0 0 103 103" fill="none" xmlns="http://www.w3.org/2000/svg">
    <g transform="translate(51.5, 49.5) scale(1.3) translate(-51.5, -49.5)">

        <path d="M77.0005 77C77.2864 80.5784 62.3369 80.5542 50.5005 81.5C38.6641 82.4458 32.2685 82.0583 31.9826 78.4798C31.6966 74.9014 41.0601 71.2338 52.8965 70.2879C64.7329 69.3421 76.7145 73.4216 77.0005 77Z" fill="#848B94" fill-opacity="0.21"/>

        <path d="M52.7034 17.1909C61.5582 17.1909 69.2852 21.3278 73.3986 27.4696C74.8771 29.6771 76.4298 31.8695 78.18 33.8685C82.115 38.3628 84.5 44.2481 84.5 50.6909C84.5 64.8023 73.0605 76.2418 58.9492 76.2418C57.1984 76.2418 54.4937 76.4677 52.7349 76.6345C51.5804 76.744 50.4196 76.744 49.2651 76.6345C47.5063 76.4677 44.8016 76.2418 43.0508 76.2418C28.9395 76.2418 17.5 64.8023 17.5 50.6909C17.5 42.1786 21.663 34.6392 28.0639 29.9961C30.3998 28.3017 32.5721 26.3478 34.6159 24.3106C38.9892 19.9516 45.47 17.1909 52.7034 17.1909Z" fill="#FFD28F"/>

        <path d="M41.5769 39.2546L41.7885 39.2788C43.552 39.4803 45.3043 38.8179 46.4933 37.5" stroke="black" stroke-linecap="round" stroke-linejoin="round"/>
        <path d="M60.5198 39.2546L60.3082 39.2788C58.5447 39.4803 56.7924 38.8179 55.6033 37.5" stroke="black" stroke-linecap="round" stroke-linejoin="round"/>

        <circle cx="49.5" cy="45.1909" r="2" fill="black"/>
        <circle cx="61.5" cy="45.1909" r="2" fill="black"/>

        <ellipse cx="55.5" cy="50.5" rx="3" ry="4" fill="white" stroke="black" stroke-linecap="round" stroke-linejoin="round"/>
        <path d="M54.5 54H56.5L58.5 52L56.8152 51.7192C55.9444 51.5741 55.0556 51.5741 54.1848 51.7192L52.5 52L54.5 54Z" fill="#FF0000" fill-opacity="0.44"/>
        <ellipse cx="55.5" cy="50.5" rx="3" ry="4" stroke="black" stroke-linecap="round" stroke-linejoin="round" fill="none"/>

        <ellipse cx="46" cy="47" rx="3.5" ry="2.5" fill="#FFB700" fill-opacity="0.36"/>
        <ellipse cx="65" cy="47" rx="3.5" ry="2.5" fill="#FFB700" fill-opacity="0.36"/>

    </g>

</svg>