<svg width="103" height="103" viewBox="0 0 103 103" fill="none" xmlns="http://www.w3.org/2000/svg">
    <g transform="translate(51.5, 49.5) scale(1.3) translate(-51.5, -49.5)">

        <path d="M78.0005 75C78.2864 78.5784 63.3369 78.5542 51.5005 79.5C39.6641 80.4458 33.2685 80.0583 32.9826 76.4798C32.6966 72.9014 42.0601 69.2338 53.8965 68.2879C65.7329 67.3421 77.7145 71.4216 78.0005 75Z" fill="#848B94" fill-opacity="0.21"/>

        <path d="M52.7034 16.5C61.5582 16.5 69.2852 20.6369 73.3986 26.7786C74.8771 28.9862 76.4298 31.1786 78.18 33.1776C82.115 37.6718 84.5 43.5572 84.5 50C84.5 64.1113 73.0605 75.5508 58.9492 75.5508C57.1984 75.5508 54.4937 75.7767 52.7349 75.9436C51.5804 76.0531 50.4196 76.0531 49.2651 75.9436C47.5063 75.7767 44.8015 75.5508 43.0508 75.5508C28.9395 75.5508 17.5 64.1113 17.5 50C17.5 41.4876 21.663 33.9483 28.0639 29.3052C30.3998 27.6108 32.5721 25.6569 34.6159 23.6197C38.9892 19.2607 45.47 16.5 52.7034 16.5Z" fill="#EFEFEF"/>

        <path d="M38.6997 41.8696L38.8648 41.8884C40.2412 42.0458 41.6088 41.5287 42.5368 40.5002" stroke="black" stroke-linecap="round" stroke-linejoin="round"/>
        <path d="M53.4829 41.8696L53.3178 41.8884C51.9414 42.0458 50.5739 41.5287 49.6458 40.5002" stroke="black" stroke-linecap="round" stroke-linejoin="round"/>

        <path d="M36.5527 47.6136L36.7579 47.6706C38.4682 48.1454 40.3026 47.7651 41.6831 46.6493" stroke="black" stroke-width="1.5" stroke-linecap="round" stroke-linejoin="round"/>
        <path d="M55.621 47.7024L55.414 47.7521C53.688 48.1666 51.8682 47.722 50.5278 46.5584" stroke="black" stroke-width="1.5" stroke-linecap="round" stroke-linejoin="round"/>

        <path d="M43.5 53.7489C43.9618 53.1639 47.4999 52.5002 48.9998 53.5004" stroke="black" stroke-linecap="round" stroke-linejoin="round"/>

        <ellipse cx="35" cy="51" rx="3.5" ry="2.5" fill="#D9D9D9"/> <ellipse cx="59" cy="51" rx="3.5" ry="2.5" fill="#D9D9D9"/> </g>

</svg>