<svg width="102" height="102" viewBox="0 0 102 102" fill="none" xmlns="http://www.w3.org/2000/svg">
<g filter="url(#filter0_d_2123_3656)">
<circle cx="51" cy="49" r="44" fill="white"/>
</g>
<path d="M77.5 74.5C77.7859 78.0784 62.8364 78.0542 51 79C39.1636 79.9458 32.768 79.5583 32.4821 75.9798C32.1962 72.4014 41.5596 68.7338 53.396 67.7879C65.2324 66.8421 77.2141 70.9216 77.5 74.5Z" fill="#848B94" fill-opacity="0.21"/>
<path d="M52.2034 16C61.0582 16 68.7852 20.1369 72.8986 26.2786C74.3771 28.4862 75.9298 30.6786 77.68 32.6776C81.615 37.1718 84 43.0572 84 49.5C84 63.6113 72.5605 75.0508 58.4492 75.0508C56.6984 75.0508 53.9937 75.2767 52.2349 75.4436C51.0804 75.5531 49.9196 75.5531 48.7651 75.4436C47.0063 75.2767 44.3015 75.0508 42.5508 75.0508C28.4395 75.0508 17 63.6113 17 49.5C17 40.9876 21.163 33.4483 27.5639 28.8052C29.8998 27.1108 32.0721 25.1569 34.1159 23.1197C38.4892 18.7607 44.97 16 52.2034 16Z" fill="#FFBC86"/>
<path d="M41.0769 38.7546L41.2885 38.7788C43.052 38.9803 44.8043 38.3179 45.9933 37V37" stroke="black" stroke-linecap="round" stroke-linejoin="round"/>
<path d="M60.0193 38.7546L59.8077 38.7788C58.0442 38.9803 56.2919 38.3179 55.1028 37V37" stroke="black" stroke-linecap="round" stroke-linejoin="round"/>
<g filter="url(#filter1_f_2123_3656)">
<ellipse cx="35.4644" cy="47.8882" rx="3.5" ry="2.5" fill="#FCAC43" fill-opacity="0.78"/>
</g>
<g filter="url(#filter2_f_2123_3656)">
<ellipse cx="64.4644" cy="47.8882" rx="3.5" ry="2.5" fill="#FCAC43" fill-opacity="0.78"/>
</g>
<g opacity="0.8">
<path d="M45.8271 44.7456C46.3516 44.7457 46.8789 45.224 46.8789 45.6799C46.8788 46.1357 46.4531 46.5059 45.9287 46.506C45.8184 46.506 45.7112 46.5547 45.6311 46.6305C45.349 46.8979 44.7763 47.082 44.1143 47.0821C43.6021 47.0821 43.143 46.9721 42.8305 46.7986C42.6109 46.6768 42.336 46.6124 42.085 46.6124C41.5603 46.6124 41.1348 46.2414 41.1348 45.7854C41.1349 45.3295 41.5604 44.7456 42.085 44.7456C42.167 44.7456 42.2466 44.7615 42.3225 44.7897C42.8742 44.9947 43.5258 45.4289 44.1143 45.4289C44.5896 45.429 45.0522 45.0587 45.4709 44.8338C45.5746 44.7782 45.6935 44.7456 45.8271 44.7456Z" fill="#FCFCFC"/>
<path d="M47.063 45.2023C47.0846 45.2308 47.1071 45.2685 47.1273 45.3133C47.173 45.4059 47.2067 45.573 47.2 45.68C47.1989 45.7204 47.1947 45.7652 47.1884 45.8056C47.1879 45.8089 47.1874 45.8123 47.1869 45.8156C47.1796 45.8595 47.1724 45.8947 47.1612 45.9377C47.1555 45.9593 47.1486 45.9823 47.1399 46.0076C47.1141 46.0803 47.0739 46.1755 46.9831 46.2917C46.9583 46.323 46.9297 46.3555 46.8963 46.3884C46.8555 46.4344 46.8111 46.4766 46.7642 46.5148C46.7492 46.527 46.7342 46.5386 46.7188 46.5499C46.6518 46.5993 46.5805 46.6411 46.5062 46.6757C46.4151 46.7181 46.3196 46.7493 46.2225 46.7694C46.1254 46.7895 46.0268 46.7986 45.9287 46.7972C45.9246 46.7968 45.9201 46.7968 45.9152 46.7971C45.9103 46.7974 45.905 46.7982 45.8994 46.7994C45.8937 46.8006 45.8878 46.8022 45.8817 46.8044C45.8755 46.8066 45.8692 46.8093 45.8629 46.8124C45.8566 46.8156 45.8503 46.8192 45.8442 46.8233C45.8362 46.8289 45.8361 46.8281 45.8263 46.8365C45.7433 46.9124 45.643 46.9791 45.5514 47.0282C45.4577 47.0787 45.3621 47.1192 45.2668 47.1527C45.1712 47.1862 45.0753 47.2128 44.9789 47.2344C44.9226 47.247 44.8661 47.2579 44.8096 47.2671C44.8009 47.269 44.7921 47.2708 44.7831 47.2727C44.7534 47.2788 44.7228 47.2847 44.6911 47.2903C44.5955 47.3071 44.4935 47.3196 44.403 47.3251C44.3487 47.3285 44.2988 47.3295 44.2553 47.3283C44.2022 47.3267 44.1558 47.324 44.1143 47.3206C44.0215 47.3132 43.9428 47.3029 43.8793 47.2925C43.8767 47.2921 43.874 47.2917 43.8714 47.2913C43.7959 47.2835 43.7208 47.2735 43.6458 47.2611C43.5684 47.2482 43.4911 47.2327 43.4143 47.2144C43.3376 47.196 43.2612 47.1748 43.1857 47.1503C43.1099 47.1258 43.0352 47.098 42.9611 47.066C42.8881 47.0346 42.8117 46.9968 42.7429 46.9564C42.7086 46.9363 42.6792 46.9209 42.6439 46.9044C42.6097 46.8886 42.5744 46.8742 42.5384 46.8614C42.5023 46.8485 42.4655 46.8371 42.4282 46.8272C42.4102 46.8225 42.392 46.8181 42.3738 46.814C42.3543 46.8097 42.3346 46.8057 42.3149 46.8022C42.2768 46.7954 42.2384 46.7902 42.2 46.7866C42.1616 46.7829 42.1231 46.781 42.085 46.7808C42.0236 46.7805 41.962 46.7759 41.901 46.7669C41.8733 46.7628 41.8455 46.7578 41.818 46.7519C41.7301 46.7328 41.6439 46.7042 41.5616 46.6661C41.5116 46.6429 41.463 46.6161 41.4165 46.5859C41.3849 46.5673 41.3545 46.5475 41.3255 46.5267C41.2734 46.4893 41.2259 46.4486 41.1837 46.4058C41.1605 46.3823 41.1391 46.3583 41.1192 46.3338C41.0598 46.2607 41.0162 46.1844 40.988 46.1142C40.9834 46.1028 40.9791 46.0913 40.9749 46.0795C40.9429 45.9922 40.9249 45.8747 40.9278 45.7853C40.9289 45.678 40.9547 45.5603 40.9837 45.4762C40.99 45.4573 40.9965 45.4395 41.0032 45.4222C41.0143 45.3934 41.0258 45.3667 41.0369 45.3426C41.056 45.294 41.0776 45.2469 41.1017 45.201C41.1461 45.1162 41.1987 45.0357 41.2594 44.9605C41.2621 44.9585 41.2648 44.9564 41.2675 44.9544C41.2729 44.9503 41.2785 44.9462 41.2841 44.9421C41.3484 44.8958 41.4142 44.8386 41.507 44.7733C41.5661 44.7322 41.6364 44.6878 41.7271 44.6492C41.7426 44.6426 41.7588 44.6362 41.7755 44.6301C41.8571 44.5996 41.9748 44.5738 42.085 44.5763C42.0935 44.5764 42.104 44.5767 42.1143 44.5772C42.1219 44.5775 42.1291 44.5781 42.1361 44.5787C42.1548 44.5804 42.1715 44.583 42.1865 44.586C42.2052 44.5898 42.2213 44.5943 42.2355 44.5991C42.2538 44.6052 42.2689 44.6117 42.2822 44.6181C42.2889 44.6214 42.2951 44.6246 42.3011 44.6277C42.3099 44.6324 42.3181 44.6369 42.3263 44.6413C42.3282 44.6423 42.3301 44.6434 42.3321 44.6444C42.3438 44.6506 42.3583 44.6563 42.3706 44.6603C42.3919 44.6671 42.4167 44.6712 42.4439 44.6759C42.499 44.6855 42.5656 44.6986 42.6379 44.7445C42.653 44.754 42.6673 44.7629 42.6812 44.7715C42.8114 44.8517 42.9004 44.8907 42.9704 44.9125C43.008 44.9242 43.0398 44.9312 43.0684 44.9373C43.0941 44.9428 43.1173 44.9477 43.1399 44.9549C43.1798 44.9676 43.2258 44.989 43.2707 45.0127C43.3085 45.0327 43.3455 45.0542 43.3773 45.0739C43.4143 45.0968 43.4816 45.1214 43.5502 45.1394C43.584 45.1483 43.618 45.1556 43.6488 45.1609C43.6842 45.167 43.7298 45.1807 43.7834 45.1941C43.801 45.1985 43.8191 45.2028 43.8384 45.2068C43.8796 45.2153 43.9245 45.2223 43.9708 45.2243C44.0279 45.2268 44.0749 45.2252 44.1143 45.222C44.188 45.215 44.2387 45.2015 44.2826 45.1889C44.2917 45.1862 44.3004 45.1834 44.3091 45.1806C44.3183 45.1776 44.3273 45.1746 44.3363 45.1713C44.3851 45.154 44.4449 45.1301 44.5069 45.1004C44.515 45.0965 44.5232 45.0925 44.5314 45.0885C44.5917 45.0586 44.6527 45.0243 44.706 44.9913C44.7274 44.9782 44.7475 44.9652 44.7658 44.9529C44.8146 44.9277 44.8638 44.9013 44.9135 44.874C44.9848 44.835 45.0572 44.7943 45.1316 44.7534C45.1941 44.719 45.259 44.6839 45.326 44.6501C45.3384 44.6438 45.3507 44.638 45.3629 44.6327C45.3852 44.6226 45.4142 44.6112 45.4385 44.6042C45.465 44.5963 45.4916 44.5906 45.5174 44.5869C45.5452 44.583 45.5723 44.5815 45.5979 44.5822C45.6267 44.583 45.6536 44.5866 45.6781 44.5924C45.6796 44.5927 45.6811 44.5931 45.6827 44.5935C45.7113 44.6007 45.7356 44.6107 45.7556 44.6225C45.8046 44.6513 45.8271 44.6892 45.8271 44.7269C45.827 44.7648 45.805 44.8012 45.7722 44.8361C45.7587 44.8504 45.7434 44.8646 45.7267 44.8788C45.7258 44.8795 45.7249 44.8803 45.7241 44.881C45.7099 44.893 45.6952 44.9047 45.6801 44.9162C45.6666 44.9266 45.6528 44.9368 45.6389 44.947C45.626 44.9564 45.6129 44.9658 45.5996 44.9752C45.586 44.9846 45.5763 44.992 45.5612 45.002C45.5508 45.0088 45.5401 45.0156 45.5294 45.0221C45.4728 45.0564 45.4159 45.093 45.3579 45.1309C45.2891 45.1758 45.2196 45.222 45.148 45.268C45.0918 45.3041 45.0344 45.3401 44.9751 45.3751C44.959 45.3846 44.9427 45.3941 44.9263 45.4034C44.8496 45.4472 44.7696 45.4891 44.685 45.5265C44.6003 45.5638 44.5108 45.5968 44.4153 45.6209C44.3211 45.6446 44.2208 45.6595 44.1176 45.6598C44.1165 45.6598 44.1154 45.6598 44.1142 45.6598C43.9874 45.6597 43.8648 45.6425 43.7487 45.6164C43.662 45.5968 43.5787 45.5721 43.4976 45.5444C43.4779 45.5377 43.4586 45.5308 43.4392 45.5237C43.4309 45.5215 43.4227 45.5193 43.4144 45.517C43.297 45.4849 43.1848 45.447 43.0942 45.4129C43.0662 45.4023 43.0403 45.3921 43.0168 45.3825C42.93 45.347 42.8723 45.3118 42.823 45.282C42.8157 45.2776 42.8086 45.2732 42.8016 45.269C42.7762 45.2538 42.7526 45.2402 42.7276 45.2288C42.7106 45.2212 42.687 45.2109 42.659 45.1987C42.6189 45.1814 42.5694 45.1601 42.5151 45.1366C42.4277 45.0989 42.3336 45.0579 42.2381 45.0169C42.2276 45.0124 42.2221 45.0098 42.2128 45.0061C42.2092 45.0045 42.2055 45.0031 42.2018 45.0016C42.1972 44.9998 42.1924 44.998 42.1876 44.9962C42.1793 44.9931 42.1709 44.9901 42.1623 44.9873C42.1539 44.9846 42.1454 44.982 42.1368 44.9796C42.1284 44.9772 42.1198 44.9751 42.111 44.9731C42.1014 44.9712 42.0961 44.9696 42.0849 44.9681C42.0566 44.9646 42.0325 44.9632 42.0118 44.9626C41.9786 44.961 41.9348 44.9658 41.8996 44.9739C41.845 44.9861 41.7989 45.0068 41.7736 45.0253C41.7562 45.038 41.7382 45.0513 41.7199 45.0651C41.6649 45.1067 41.6077 45.1549 41.5587 45.2056C41.5546 45.2099 41.5505 45.2142 41.5465 45.2185C41.491 45.2774 41.4483 45.3379 41.4288 45.3826C41.4256 45.3899 41.423 45.3968 41.421 45.4032C41.4047 45.4577 41.3813 45.4982 41.3533 45.5623C41.3504 45.5689 41.3475 45.5758 41.3446 45.5831C41.3287 45.623 41.3117 45.6767 41.305 45.7359C41.3032 45.752 41.3018 45.769 41.301 45.7854C41.2987 45.8561 41.3009 45.8927 41.3076 45.939C41.309 45.9488 41.3108 45.9584 41.3127 45.9677C41.3258 46.0277 41.3466 46.0796 41.3982 46.1346C41.3983 46.1347 41.3984 46.1348 41.3985 46.1349C41.4432 46.1818 41.4939 46.2241 41.5421 46.2602C41.5659 46.2781 41.589 46.2947 41.6104 46.3101C41.6367 46.3292 41.669 46.3474 41.7042 46.3635C41.7083 46.3653 41.7123 46.3671 41.7164 46.3689C41.7693 46.3922 41.8273 46.4106 41.881 46.4277C41.8835 46.4285 41.8858 46.4293 41.8882 46.43C41.9292 46.4435 41.9638 46.4581 41.9959 46.4698C42.0065 46.4736 42.0167 46.4771 42.0268 46.4802C42.0463 46.4812 42.0654 46.4817 42.085 46.4816C42.1084 46.4815 42.1318 46.4819 42.1552 46.4828C42.1629 46.4814 42.171 46.48 42.1795 46.4785C42.194 46.4761 42.2096 46.4737 42.2264 46.4717C42.2595 46.4678 42.2974 46.4654 42.3405 46.4678C42.3503 46.4684 42.3599 46.4691 42.3694 46.4701C42.4187 46.4749 42.4646 46.4845 42.5092 46.4971C42.5468 46.5078 42.5834 46.5206 42.6203 46.5349C42.6281 46.538 42.636 46.5411 42.6439 46.5443C42.6861 46.5614 42.7292 46.5803 42.7752 46.6012C42.7966 46.6109 42.8183 46.6209 42.8415 46.6318C42.8628 46.6417 42.885 46.6523 42.906 46.6627C42.9383 46.6784 42.9689 46.6909 43.0019 46.7034C43.0327 46.7151 43.0637 46.7258 43.0934 46.7357C43.1393 46.7511 43.1821 46.7647 43.215 46.778C43.2352 46.7861 43.2514 46.798 43.2675 46.8096C43.2676 46.8096 43.2676 46.8097 43.2677 46.8098C43.2688 46.8105 43.2699 46.8113 43.271 46.8121C43.2751 46.8132 43.2792 46.8142 43.2833 46.8153C43.3503 46.8323 43.4185 46.8464 43.4872 46.8577C43.556 46.8691 43.6254 46.8779 43.6949 46.8841C43.6963 46.8843 43.6977 46.8844 43.6991 46.8845C43.7119 46.8845 43.7247 46.8844 43.7374 46.8842C43.7995 46.8835 43.8597 46.8806 43.8991 46.8722C43.9012 46.8717 43.9035 46.8713 43.9059 46.8709C43.9469 46.8642 44.0232 46.862 44.1142 46.856C44.1142 46.856 44.1142 46.856 44.1142 46.856C44.1293 46.855 44.1444 46.854 44.1594 46.8528C44.2323 46.8471 44.3036 46.8386 44.3644 46.8273C44.3647 46.8273 44.3649 46.8272 44.3652 46.8272C44.4001 46.8206 44.4343 46.8241 44.4695 46.8271C44.5022 46.8299 44.5363 46.8323 44.572 46.8254C44.5855 46.8228 44.5995 46.819 44.6142 46.8145C44.619 46.813 44.624 46.8114 44.629 46.8099C44.6467 46.8042 44.6652 46.7982 44.6849 46.7927C44.7029 46.7877 44.7448 46.7834 44.798 46.7757C44.8164 46.7731 44.8367 46.7699 44.8573 46.7663C44.8734 46.7635 44.8899 46.7603 44.9065 46.7568C44.9688 46.7365 45.0292 46.714 45.0879 46.6887C45.1223 46.6739 45.1562 46.6581 45.1888 46.6415C45.2053 46.6274 45.2175 46.6129 45.2255 46.5978C45.2312 46.5871 45.2346 46.5758 45.238 46.5643C45.2428 46.5486 45.2471 46.5325 45.2559 46.5164C45.2562 46.5158 45.2565 46.5153 45.2568 46.5147C45.2638 46.5029 45.2735 46.4941 45.2828 46.4918C45.2873 46.4907 45.2916 46.4913 45.2955 46.4918C45.3 46.4923 45.3039 46.4928 45.3071 46.4907C45.3093 46.4892 45.3106 46.4859 45.3122 46.482C45.3147 46.4757 45.3178 46.4676 45.3263 46.4614C45.3579 46.4382 45.3755 46.4266 45.4097 46.3969C45.4167 46.3905 45.4253 46.3829 45.4354 46.3744C45.4521 46.3603 45.4656 46.3499 45.4811 46.3386C45.5064 46.3202 45.5325 46.3035 45.5588 46.2886C45.5868 46.2727 45.615 46.2589 45.6426 46.247C45.665 46.2374 45.687 46.229 45.7081 46.2218C45.7158 46.2192 45.7239 46.2166 45.7324 46.2142C45.7608 46.206 45.7932 46.1992 45.8285 46.1951C45.8599 46.1914 45.8937 46.19 45.9287 46.1914C45.9518 46.1938 45.9764 46.1958 46.0009 46.1966C46.0339 46.1977 46.067 46.1966 46.0969 46.1927C46.1052 46.1916 46.1133 46.1903 46.121 46.1889C46.1558 46.1823 46.1896 46.1669 46.2201 46.1499C46.2306 46.1441 46.2408 46.1381 46.2506 46.1323C46.2754 46.1176 46.2981 46.1038 46.3207 46.0952C46.3271 46.0928 46.3384 46.0952 46.353 46.0976C46.3634 46.0992 46.3753 46.101 46.3881 46.101C46.3965 46.0947 46.4047 46.0884 46.4128 46.0819C46.4391 46.0607 46.4636 46.0378 46.4859 46.0136C46.4861 46.0118 46.4863 46.0099 46.4865 46.0079C46.4865 46.0079 46.4865 46.0079 46.4865 46.0078C46.4883 45.9874 46.489 45.9641 46.4935 45.9416C46.4986 45.9159 46.5083 45.8919 46.532 45.8689C46.5433 45.8578 46.5561 45.8529 46.5676 45.8481C46.5789 45.8433 46.5891 45.8385 46.5944 45.8279C46.5946 45.8276 46.5948 45.8272 46.5949 45.8268C46.6004 45.8149 46.5996 45.7987 46.5977 45.7818C46.5954 45.7538 46.5886 45.7388 46.5993 45.7122C46.6 45.7103 46.6008 45.7083 46.6015 45.7061C46.604 45.6992 46.6067 45.6904 46.6097 45.6799C46.6154 45.6601 46.6216 45.6413 46.6312 45.6248C46.6296 45.5973 46.6211 45.554 46.6087 45.5166C46.5924 45.4667 46.5681 45.4156 46.5376 45.3662C46.5329 45.3586 46.5281 45.3511 46.5231 45.3436C46.4857 45.2872 46.4404 45.2333 46.3896 45.1842C46.3386 45.135 46.2821 45.0906 46.2216 45.0526C46.1955 45.0362 46.1687 45.021 46.1413 45.0071C46.1039 44.9882 46.0679 44.9684 46.0337 44.9478C45.9956 44.9248 45.9599 44.9011 45.9283 44.876C45.869 44.8285 45.8275 44.7795 45.8271 44.7269C45.8266 44.6751 45.8722 44.6217 45.9654 44.5937C46.0143 44.5792 46.0734 44.5733 46.1362 44.5784C46.1923 44.5829 46.2511 44.596 46.3077 44.6172C46.3492 44.6328 46.3899 44.6503 46.4296 44.6696C46.5215 44.7144 46.6085 44.7687 46.6896 44.832C46.7385 44.8702 46.7852 44.9117 46.8294 44.9566C46.8377 44.9642 46.8458 44.9718 46.8539 44.9797C46.8765 45.0015 46.8985 45.0228 46.9204 45.0445C46.9568 45.0806 46.9924 45.1172 47.0263 45.157C47.0388 45.1717 47.051 45.1867 47.063 45.2023Z" fill="#FCFCFC"/>
</g>
<circle cx="44" cy="44" r="2" fill="black"/>
<circle cx="43.65" cy="43.65" r="0.65" fill="white"/>
<circle cx="44.5786" cy="44.6387" r="0.338867" fill="white"/>
<path d="M48.1775 48.8822C48.6407 49.4661 50.4068 50.2534 53.7656 48.7308" stroke="black" stroke-linecap="round" stroke-linejoin="round"/>
<path d="M53.1523 47.8966C53.4858 47.8438 54.453 48.555 54.3518 49.726" stroke="black" stroke-linecap="round" stroke-linejoin="round"/>
<g opacity="0.8">
<path d="M55.5731 46.7876C55.4374 46.1673 56.0258 45.6337 56.6299 45.8291C57.0009 45.9492 57.2366 46.3132 57.1944 46.7008L56.767 50.6242C56.7244 51.0151 56.7414 51.4101 56.8173 51.7959L57.4976 55.2534C57.528 55.4075 57.5197 55.5666 57.4735 55.7167C57.3507 56.1158 56.9819 56.3882 56.5644 56.3882H56.3097C55.7008 56.3882 55.174 55.9643 55.0438 55.3695L54.9174 54.7922C54.8626 54.5421 54.8556 54.284 54.8968 54.0313L55.8178 48.3787C55.847 48.1995 55.842 48.0164 55.8032 47.8391L55.5731 46.7876Z" fill="#FCFCFC"/>
<path d="M57.402 47.638C57.4044 47.741 57.3911 47.8937 57.3739 48.0437C57.3594 48.1713 57.3421 48.297 57.3295 48.3883C57.3291 48.392 57.3286 48.3956 57.3281 48.3992C57.3216 48.4464 57.3164 48.4911 57.3103 48.5434C57.3052 48.5871 57.2995 48.6361 57.2919 48.6964C57.2778 48.8085 57.2572 48.9596 57.2219 49.1877C57.2164 49.2413 57.2108 49.295 57.2051 49.3486C57.1999 49.3975 57.1946 49.4465 57.1893 49.4954C57.1709 49.6644 57.152 49.8334 57.1327 50.0024C57.1078 50.2202 57.0821 50.438 57.0559 50.6557C57.0484 50.7182 57.0429 50.775 57.0385 50.8364C57.0341 50.8968 57.0313 50.9574 57.0299 51.018C57.0285 51.0786 57.0286 51.1392 57.0302 51.1998C57.0318 51.2605 57.0348 51.3211 57.0394 51.3816C57.044 51.4422 57.05 51.5026 57.0576 51.5629C57.0653 51.6242 57.0738 51.6811 57.0847 51.7433C57.1189 51.9361 57.1528 52.1289 57.1865 52.3218C57.2099 52.4561 57.2333 52.5905 57.2566 52.7248C57.2595 52.7386 57.2624 52.7526 57.2653 52.7668C57.2741 52.8096 57.2833 52.8541 57.2927 52.8995C57.3327 53.0947 57.3754 53.3062 57.4051 53.4759C57.4126 53.5185 57.4192 53.5585 57.4248 53.595C57.454 53.7851 57.4753 53.9332 57.4925 54.0573C57.5001 54.1118 57.5069 54.1617 57.5132 54.2085C57.5379 54.3514 57.5628 54.4943 57.5877 54.6371C57.6213 54.83 57.6551 55.0229 57.6892 55.2157C57.6943 55.2439 57.6992 55.2788 57.702 55.3089C57.705 55.3401 57.7068 55.3714 57.7072 55.4027C57.7077 55.434 57.7069 55.4653 57.7048 55.4965C57.7027 55.5277 57.6993 55.5588 57.6946 55.5897C57.69 55.6205 57.6841 55.6512 57.677 55.6816C57.6698 55.7119 57.6614 55.742 57.6519 55.7716C57.6271 55.8481 57.5944 55.9219 57.5543 55.9914C57.5141 56.0609 57.4667 56.126 57.413 56.1854C57.3594 56.2447 57.2996 56.2982 57.2349 56.3449C57.1703 56.3916 57.1007 56.4314 57.0279 56.4635C56.955 56.4956 56.8788 56.5199 56.8009 56.536C56.7416 56.5482 56.6801 56.5559 56.6175 56.5584C56.5991 56.5592 56.5815 56.5594 56.5644 56.5593C56.5502 56.5592 56.5361 56.5591 56.5219 56.559C56.5078 56.5589 56.4936 56.5588 56.4795 56.5587C56.4653 56.5586 56.4512 56.5585 56.437 56.5584C56.4229 56.5583 56.4088 56.5582 56.3946 56.5581C56.3805 56.558 56.3663 56.5579 56.3522 56.5578C56.338 56.5577 56.3239 56.5577 56.3097 56.5576C56.2061 56.5575 56.0864 56.5441 55.9818 56.5193C55.8946 56.4991 55.8094 56.471 55.7273 56.4354C55.7082 56.4271 55.6893 56.4184 55.6706 56.4093C55.5715 56.3612 55.4777 56.302 55.3917 56.2331C55.3057 56.1642 55.2273 56.0857 55.1586 55.9993C55.1292 55.9623 55.1015 55.9239 55.0758 55.8842C55.0392 55.8312 55.0066 55.7767 54.978 55.7215C54.9324 55.6342 54.895 55.5385 54.8696 55.451C54.8656 55.4371 54.8618 55.4235 54.8582 55.4101C54.8496 55.3777 54.8411 55.3459 54.8328 55.3149C54.8242 55.2823 54.8157 55.2505 54.8076 55.2195C54.799 55.1867 54.7907 55.1549 54.7829 55.1241C54.7744 55.0911 54.7663 55.0592 54.7588 55.0286C54.7547 55.0117 54.7507 54.9952 54.7469 54.9791C54.7432 54.9638 54.7396 54.9483 54.7359 54.9327C54.7285 54.9011 54.7212 54.869 54.714 54.8367C54.7042 54.7934 54.6949 54.7441 54.6881 54.6984C54.6811 54.6521 54.6757 54.6054 54.6719 54.5587C54.6681 54.5117 54.6659 54.4647 54.6653 54.4183C54.6647 54.3708 54.6657 54.3238 54.6682 54.2778C54.6708 54.23 54.675 54.1833 54.6804 54.138C54.686 54.0909 54.6937 54.0416 54.7016 53.9995C54.7054 53.9795 54.7091 53.9599 54.7127 53.9408C54.7211 53.8966 54.7289 53.8549 54.7362 53.8163C54.7679 53.6003 54.7994 53.3841 54.8308 53.168C54.8352 53.154 54.8397 53.1398 54.8443 53.1254C54.8512 53.104 54.8578 53.0818 54.8641 53.0589C54.9108 52.89 54.9451 52.6772 54.9957 52.3638C55.0079 52.2885 55.021 52.2074 55.0354 52.1197C55.0507 52.0268 55.0675 51.9265 55.0862 51.8179C55.1097 51.6818 55.132 51.6136 55.1502 51.5579C55.1555 51.5415 55.1606 51.5261 55.1651 51.5104C55.1808 51.4568 55.1829 51.3979 55.1854 51.3283C55.187 51.2833 55.1887 51.2339 55.1944 51.1785C55.2002 51.1227 55.2099 51.0609 55.2274 50.9915C55.3298 50.5872 55.3431 50.3846 55.3479 50.2364C55.3484 50.2232 55.3487 50.2104 55.3491 50.198C55.3504 50.1534 55.3516 50.113 55.3553 50.072C55.3672 49.939 55.4071 49.7533 55.443 49.6139C55.4618 49.541 55.4797 49.4179 55.494 49.2931C55.5014 49.2286 55.5078 49.1636 55.5128 49.1049C55.5184 49.0398 55.5325 48.9527 55.5491 48.8502C55.5662 48.744 55.5861 48.6213 55.6021 48.489C55.6082 48.438 55.6139 48.3906 55.6193 48.3464C55.6227 48.3171 55.6243 48.2942 55.6257 48.2688C55.6271 48.2414 55.6276 48.2156 55.6273 48.1912C55.627 48.1637 55.6258 48.138 55.6241 48.1139C55.622 48.0864 55.6193 48.061 55.616 48.0372C55.6123 48.0099 55.608 47.9848 55.6033 47.9613C55.5997 47.9433 55.5958 47.9258 55.592 47.9104C55.5901 47.9028 55.5881 47.8949 55.5859 47.8866C55.5783 47.857 55.5709 47.8286 55.5636 47.8002C55.5564 47.7726 55.5489 47.7433 55.5412 47.7128C55.5273 47.6581 55.5127 47.5993 55.4977 47.5387C55.4858 47.4905 55.4737 47.4411 55.4615 47.3915C55.4593 47.3824 55.457 47.3734 55.4548 47.3644C55.4404 47.3058 55.426 47.2472 55.4119 47.1902C55.3968 47.1296 55.3821 47.0709 55.3681 47.0161C55.3578 46.9756 55.3478 46.9372 55.3384 46.9018C55.3344 46.8817 55.3304 46.8617 55.3264 46.8416C55.3033 46.7358 55.2963 46.5863 55.3156 46.4689C55.334 46.3446 55.3751 46.2243 55.4353 46.1156C55.4954 46.0069 55.5742 45.9097 55.6666 45.8289C55.7186 45.7834 55.7749 45.743 55.8345 45.7084C55.8816 45.6811 55.9308 45.6586 55.9806 45.6414C56.1061 45.5974 56.2343 45.5884 56.3399 45.6043C56.3756 45.6096 56.4095 45.6175 56.4395 45.6273C56.5956 45.6798 56.652 45.7627 56.6356 45.8113C56.6185 45.8629 56.5335 45.884 56.42 45.9153C56.3979 45.9215 56.3745 45.9282 56.3512 45.9355C56.2819 45.9569 56.2088 45.9848 56.1375 46.0224C56.1092 46.0373 56.0811 46.0536 56.0537 46.0713C56.0188 46.0938 55.9862 46.1197 55.9563 46.1483C55.9033 46.1993 55.8595 46.2592 55.8275 46.3239C55.7954 46.3887 55.7754 46.4581 55.768 46.5288C55.7613 46.6051 55.7645 46.6577 55.7833 46.7416C55.791 46.7738 55.7986 46.806 55.8063 46.8381C55.8124 46.8641 55.8186 46.8902 55.8248 46.9162C55.8386 46.9744 55.8523 47.0326 55.866 47.0908C55.8797 47.149 55.8934 47.2072 55.907 47.2655C55.9205 47.3237 55.9341 47.382 55.9475 47.4402C55.961 47.4985 55.9744 47.5568 55.9877 47.6151C56.001 47.6734 56.0143 47.7317 56.0274 47.79C56.0346 47.8218 56.0419 47.8595 56.0471 47.8931C56.0526 47.9276 56.057 47.9624 56.0602 47.9972C56.0635 48.0321 56.0656 48.067 56.0666 48.102C56.0676 48.137 56.0675 48.172 56.0663 48.207C56.0658 48.2191 56.0653 48.2312 56.0646 48.2433C56.0633 48.2661 56.0615 48.2889 56.0592 48.3117C56.0559 48.3455 56.0508 48.3837 56.0455 48.4158C56.0018 48.6819 55.9573 48.9479 55.912 49.2137C55.9065 49.2462 55.9009 49.2786 55.8954 49.311C55.8936 49.3266 55.8919 49.3421 55.8901 49.3576C55.8615 49.6088 55.8324 49.8554 55.8077 50.0315C55.7925 50.1406 55.7754 50.2279 55.7591 50.3034C55.7524 50.3348 55.7457 50.3641 55.7394 50.3921C55.7245 50.4575 55.7114 50.5154 55.7023 50.5747C55.6974 50.6065 55.6912 50.6501 55.6836 50.7026C55.664 50.8387 55.6357 51.0351 55.6006 51.2446C55.5803 51.3652 55.5579 51.4901 55.5336 51.6104C55.504 51.7564 55.4651 51.9254 55.428 52.0866C55.4207 52.1182 55.4135 52.1494 55.4065 52.1801C55.362 52.3741 55.3236 52.5474 55.3119 52.6427C55.2933 52.7939 55.2634 52.9608 55.2334 53.1191C55.2249 53.1639 55.2164 53.208 55.2081 53.2509C55.1723 53.4363 55.1411 53.5984 55.1347 53.6924C55.1272 53.8048 55.1075 53.8985 55.0783 54.0379C55.0768 54.0452 55.0752 54.0526 55.0737 54.0601C55.066 54.0966 55.0594 54.1318 55.0533 54.175C55.0484 54.2104 55.0443 54.249 55.0417 54.2912C55.0398 54.3217 55.0387 54.3541 55.0388 54.3885C55.0388 54.3952 55.0388 54.4017 55.0389 54.4082C55.0393 54.45 55.0408 54.4889 55.0429 54.5253C55.0453 54.5675 55.0486 54.6062 55.0523 54.6424C55.0569 54.6853 55.0616 54.7215 55.0676 54.7593C55.0694 54.7708 55.0713 54.782 55.073 54.7931C55.0766 54.815 55.08 54.8361 55.0834 54.8567C55.0889 54.89 55.0943 54.9221 55.1001 54.9538C55.1059 54.986 55.1122 55.0178 55.1192 55.0505C55.1258 55.0814 55.1332 55.1131 55.1417 55.1464C55.1493 55.1765 55.1579 55.208 55.1676 55.2415C55.168 55.2427 55.1683 55.2439 55.1687 55.245C55.1775 55.2753 55.1862 55.3058 55.1949 55.3364C55.1949 55.3364 55.1949 55.3364 55.1949 55.3364C55.2211 55.427 55.2515 55.4995 55.2887 55.5748C55.3145 55.6264 55.342 55.6738 55.3685 55.7164C55.3838 55.7411 55.4016 55.7665 55.4215 55.792C55.4463 55.8237 55.4745 55.8555 55.5051 55.886C55.5352 55.9162 55.5677 55.9452 55.6014 55.9725C55.6494 56.0113 55.6999 56.0465 55.7492 56.0778C55.7712 56.0919 55.7922 56.1051 55.8124 56.1174C55.8554 56.1439 55.8947 56.1669 55.932 56.1864C55.949 56.1953 55.9658 56.2035 55.9822 56.2108C56.0042 56.2172 56.0263 56.2229 56.0487 56.228C56.0915 56.2377 56.1358 56.245 56.1786 56.2496C56.1892 56.2492 56.2004 56.2484 56.212 56.2475C56.2402 56.2452 56.2722 56.2418 56.3097 56.2371C56.3234 56.2355 56.3375 56.2339 56.3522 56.2324C56.3659 56.231 56.38 56.2297 56.3946 56.2285C56.4084 56.2273 56.4225 56.2263 56.437 56.2253C56.4419 56.225 56.4467 56.2247 56.4516 56.2244C56.461 56.2239 56.4703 56.2234 56.4795 56.223C56.4938 56.2223 56.5079 56.2217 56.5219 56.2213C56.5362 56.2208 56.5503 56.2204 56.5644 56.2202C56.6275 56.2184 56.6731 56.2141 56.7296 56.2045C56.7659 56.1981 56.8019 56.1896 56.8378 56.1784C56.8554 56.1728 56.873 56.1667 56.8906 56.1597C56.9405 56.1399 56.9904 56.1139 57.0386 56.0791C57.0616 56.0626 57.0841 56.044 57.1059 56.0233C57.1249 56.0052 57.1436 55.9851 57.1615 55.9634C57.1962 55.9214 57.2274 55.8732 57.2526 55.8225C57.2535 55.8207 57.2544 55.8188 57.2553 55.8169C57.2795 55.7676 57.2979 55.7163 57.3112 55.6668C57.3112 55.6668 57.3112 55.6668 57.3112 55.6668C57.3169 55.6455 57.3217 55.6246 57.3257 55.6044C57.33 55.5824 57.3334 55.5612 57.3361 55.5412C57.3389 55.5209 57.3411 55.5017 57.3429 55.484C57.3432 55.4819 57.3434 55.4798 57.3436 55.4777C57.3463 55.4547 57.3503 55.4339 57.3541 55.4133C57.3553 55.4066 57.3565 55.4 57.3576 55.3934C57.3576 55.3933 57.3577 55.3931 57.3577 55.393C57.358 55.391 57.3583 55.389 57.3586 55.3871C57.3575 55.374 57.3561 55.361 57.3543 55.348C57.3512 55.3256 57.3479 55.3072 57.3429 55.2838C57.3014 55.0925 57.2596 54.9012 57.2176 54.7099C57.2121 54.685 57.2067 54.6601 57.2012 54.6352C57.1952 54.6132 57.1891 54.5909 57.1831 54.5688C57.1538 54.461 57.1253 54.3562 57.101 54.289C57.0898 54.2581 57.0754 54.2066 57.0591 54.1426C57.0369 54.0554 57.011 53.9449 56.9843 53.831C56.9638 53.7433 56.9427 53.6535 56.9226 53.5709C56.913 53.5317 56.9036 53.4941 56.8946 53.4591C56.8781 53.3955 56.8727 53.3332 56.8671 53.2692C56.862 53.2094 56.8566 53.148 56.8421 53.0825C56.8358 53.0543 56.8277 53.0244 56.8189 52.9927C56.8175 52.9876 56.8161 52.9825 56.8147 52.9774C56.8056 52.9445 56.7959 52.9097 56.787 52.8731C56.7786 52.839 56.7672 52.7618 56.7524 52.6628C56.7433 52.6016 56.7329 52.5321 56.7213 52.4592C56.7181 52.4446 56.7149 52.4299 56.7117 52.4153C56.6732 52.2396 56.6349 52.0639 56.5968 51.8881C56.5911 51.872 56.5853 51.8568 56.5794 51.8427C56.571 51.8225 56.5625 51.804 56.5538 51.7879C56.543 51.768 56.5315 51.751 56.5199 51.7337C56.5042 51.7104 56.4881 51.6861 56.4732 51.6511C56.4727 51.65 56.4723 51.6489 56.4718 51.6478C56.461 51.6211 56.4542 51.5895 56.4544 51.5675C56.4546 51.5568 56.4563 51.5484 56.4579 51.5407C56.4597 51.532 56.4614 51.5242 56.4603 51.5151C56.4595 51.5085 56.4567 51.5018 56.4534 51.4936C56.4482 51.4808 56.4414 51.464 56.4387 51.4379C56.4386 51.4375 56.4386 51.4371 56.4385 51.4367C56.4319 51.371 56.4274 51.2991 56.4252 51.2258C56.424 51.1878 56.4234 51.1495 56.4234 51.1114C56.4233 51.0784 56.4236 51.0456 56.4243 51.0134C56.4258 50.9374 56.4291 50.8649 56.4323 50.8012C56.4328 50.7905 56.4333 50.78 56.4338 50.7698C56.4363 50.7195 56.443 50.6539 56.4524 50.5899C56.4624 50.5221 56.4743 50.4483 56.4863 50.3744C56.5023 50.276 56.5182 50.1775 56.5296 50.0927C56.5363 50.0422 56.541 49.9903 56.5447 49.9383C56.5471 49.9047 56.5492 49.8711 56.5512 49.838C56.5574 49.7366 56.5633 49.6391 56.5788 49.5574C56.5819 49.5409 56.5922 49.5211 56.6051 49.4962C56.6143 49.4786 56.6248 49.4583 56.6349 49.435C56.6402 49.3861 56.6457 49.3372 56.6511 49.2883C56.6574 49.2323 56.6637 49.1763 56.6702 49.1203C56.6695 49.1165 56.6688 49.1126 56.668 49.1086C56.668 49.1086 56.668 49.1085 56.668 49.1085C56.6517 49.0195 56.6295 48.8978 56.6685 48.7344C56.6784 48.6928 56.6911 48.6674 56.7025 48.6445C56.7045 48.6405 56.7064 48.6367 56.7083 48.6328C56.7171 48.6146 56.7247 48.5965 56.7288 48.5713C56.7344 48.5367 56.7336 48.4949 56.7327 48.4494C56.7314 48.3856 56.73 48.3142 56.7461 48.2445C56.7472 48.2398 56.7484 48.2347 56.7497 48.2293C56.7613 48.1788 56.7784 48.104 56.8046 48.0306C56.8067 48.0145 56.8088 47.9984 56.8109 47.9824C56.838 47.7753 56.8659 47.5683 56.8942 47.3614C56.8956 47.351 56.897 47.3406 56.8984 47.3303C56.9282 47.113 56.9584 46.8957 56.9888 46.6784C56.9961 46.6238 56.9974 46.5882 56.9939 46.5377C56.9902 46.4907 56.9811 46.4439 56.9668 46.3985C56.962 46.3836 56.9568 46.3689 56.9509 46.3543C56.9388 46.3241 56.9254 46.2945 56.9108 46.2659C56.8877 46.2205 56.8619 46.1776 56.8349 46.1376C56.8058 46.0946 56.7754 46.055 56.7468 46.0187C56.7441 46.0153 56.7414 46.012 56.7388 46.0086C56.6707 45.9232 56.6202 45.8602 56.6356 45.8113C56.6499 45.7648 56.7363 45.7328 56.8806 45.7722C56.8862 45.7737 56.8918 45.7754 56.8974 45.7772C56.9577 45.7963 57.0238 45.8288 57.0879 45.876C57.1475 45.9198 57.2053 45.9762 57.2548 46.0431C57.2861 46.0853 57.3142 46.1315 57.3377 46.1807C57.349 46.2043 57.3595 46.2284 57.369 46.2528C57.3981 46.3275 57.4188 46.4058 57.4302 46.4856C57.4419 46.5613 57.4437 46.6563 57.4372 46.7273C57.4253 46.8791 57.4134 47.0309 57.4013 47.1827C57.4007 47.1983 57.4 47.214 57.3993 47.2296C57.3969 47.2826 57.3962 47.334 57.3965 47.3845C57.3968 47.4448 57.3984 47.5039 57.4 47.563C57.4007 47.5879 57.4014 47.6129 57.402 47.638Z" fill="#FCFCFC"/>
</g>
<circle cx="56.0645" cy="44" r="2" fill="black"/>
<circle cx="55.7145" cy="43.65" r="0.65" fill="white"/>
<circle cx="56.6431" cy="44.6387" r="0.338867" fill="white"/>
<defs>
<filter id="filter0_d_2123_3656" x="0" y="0" width="102" height="102" filterUnits="userSpaceOnUse" color-interpolation-filters="sRGB">
<feFlood flood-opacity="0" result="BackgroundImageFix"/>
<feColorMatrix in="SourceAlpha" type="matrix" values="0 0 0 0 0 0 0 0 0 0 0 0 0 0 0 0 0 0 127 0" result="hardAlpha"/>
<feOffset dy="2"/>
<feGaussianBlur stdDeviation="3.5"/>
<feComposite in2="hardAlpha" operator="out"/>
<feColorMatrix type="matrix" values="0 0 0 0 0 0 0 0 0 0 0 0 0 0 0 0 0 0 0.05 0"/>
<feBlend mode="normal" in2="BackgroundImageFix" result="effect1_dropShadow_2123_3656"/>
<feBlend mode="normal" in="SourceGraphic" in2="effect1_dropShadow_2123_3656" result="shape"/>
</filter>
<filter id="filter1_f_2123_3656" x="29.9644" y="43.3882" width="11" height="9" filterUnits="userSpaceOnUse" color-interpolation-filters="sRGB">
<feFlood flood-opacity="0" result="BackgroundImageFix"/>
<feBlend mode="normal" in="SourceGraphic" in2="BackgroundImageFix" result="shape"/>
<feGaussianBlur stdDeviation="1" result="effect1_foregroundBlur_2123_3656"/>
</filter>
<filter id="filter2_f_2123_3656" x="58.9644" y="43.3882" width="11" height="9" filterUnits="userSpaceOnUse" color-interpolation-filters="sRGB">
<feFlood flood-opacity="0" result="BackgroundImageFix"/>
<feBlend mode="normal" in="SourceGraphic" in2="BackgroundImageFix" result="shape"/>
<feGaussianBlur stdDeviation="1" result="effect1_foregroundBlur_2123_3656"/>
</filter>
</defs>
</svg>
