<svg width="103" height="103" viewBox="0 0 103 103" fill="none" xmlns="http://www.w3.org/2000/svg">
<g filter="url(#filter0_d_959_4822)">
<circle cx="51.5" cy="49.5" r="44" fill="white"/>
</g>
<path d="M77.0005 77C77.2864 80.5784 62.3369 80.5542 50.5005 81.5C38.6641 82.4458 32.2685 82.0583 31.9826 78.4798C31.6966 74.9014 41.0601 71.2338 52.8965 70.2879C64.7329 69.3421 76.7145 73.4216 77.0005 77Z" fill="#848B94" fill-opacity="0.21"/>
<path d="M52.7034 18.5C61.5582 18.5 69.2852 22.6369 73.3986 28.7786C74.8771 30.9862 76.4298 33.1786 78.18 35.1776C82.115 39.6718 84.5 45.5572 84.5 52C84.5 66.1113 73.0605 77.5508 58.9492 77.5508C57.1984 77.5508 54.4937 77.7767 52.7349 77.9436C51.5804 78.0531 50.4196 78.0531 49.2651 77.9436C47.5063 77.7767 44.8015 77.5508 43.0508 77.5508C28.9395 77.5508 17.5 66.1113 17.5 52C17.5 43.4876 21.663 35.9483 28.0639 31.3052C30.3998 29.6108 32.5721 27.6569 34.6159 25.6197C38.9892 21.2607 45.47 18.5 52.7034 18.5Z" fill="#D6CAFF"/>
<circle cx="36.5" cy="48.5" r="2" fill="black"/>
<circle cx="49.5" cy="48.5" r="2" fill="black"/>
<path d="M33.5769 43.2546L33.7885 43.2788C35.552 43.4803 37.3043 42.8179 38.4933 41.5" stroke="black" stroke-linecap="round" stroke-linejoin="round"/>
<path d="M52.5188 43.2546L52.3072 43.2788C50.5437 43.4803 48.7914 42.8179 47.6024 41.5" stroke="black" stroke-linecap="round" stroke-linejoin="round"/>
<g filter="url(#filter1_f_959_4822)">
<ellipse cx="31" cy="51" rx="3.5" ry="2.5" fill="#623CE5" fill-opacity="0.2"/>
</g>
<g filter="url(#filter2_f_959_4822)">
<ellipse cx="55" cy="51" rx="3.5" ry="2.5" fill="#623CE5" fill-opacity="0.2"/>
</g>
<path d="M42.5 54.7752C42.8333 54.1085 44.4 52.9752 48 53.7752" stroke="black" stroke-linecap="round" stroke-linejoin="round"/>
<defs>
<filter id="filter0_d_959_4822" x="0.5" y="0.5" width="102" height="102" filterUnits="userSpaceOnUse" color-interpolation-filters="sRGB">
<feFlood flood-opacity="0" result="BackgroundImageFix"/>
<feColorMatrix in="SourceAlpha" type="matrix" values="0 0 0 0 0 0 0 0 0 0 0 0 0 0 0 0 0 0 127 0" result="hardAlpha"/>
<feOffset dy="2"/>
<feGaussianBlur stdDeviation="3.5"/>
<feComposite in2="hardAlpha" operator="out"/>
<feColorMatrix type="matrix" values="0 0 0 0 0 0 0 0 0 0 0 0 0 0 0 0 0 0 0.05 0"/>
<feBlend mode="normal" in2="BackgroundImageFix" result="effect1_dropShadow_959_4822"/>
<feBlend mode="normal" in="SourceGraphic" in2="effect1_dropShadow_959_4822" result="shape"/>
</filter>
<filter id="filter1_f_959_4822" x="25.5" y="46.5" width="11" height="9" filterUnits="userSpaceOnUse" color-interpolation-filters="sRGB">
<feFlood flood-opacity="0" result="BackgroundImageFix"/>
<feBlend mode="normal" in="SourceGraphic" in2="BackgroundImageFix" result="shape"/>
<feGaussianBlur stdDeviation="1" result="effect1_foregroundBlur_959_4822"/>
</filter>
<filter id="filter2_f_959_4822" x="49.5" y="46.5" width="11" height="9" filterUnits="userSpaceOnUse" color-interpolation-filters="sRGB">
<feFlood flood-opacity="0" result="BackgroundImageFix"/>
<feBlend mode="normal" in="SourceGraphic" in2="BackgroundImageFix" result="shape"/>
<feGaussianBlur stdDeviation="1" result="effect1_foregroundBlur_959_4822"/>
</filter>
</defs>
</svg>
