<svg width="103" height="103" viewBox="0 0 103 103" fill="none" xmlns="http://www.w3.org/2000/svg">
<g filter="url(#filter0_d_959_3067)">
<circle cx="51.5" cy="49.5" r="44" fill="white"/>
</g>
<path d="M18.269 52.9897C18.2174 52.5434 17.6458 51.7506 15.7723 52.149C13.8988 52.5474 13.4219 51.1006 13.4176 50.3275" stroke="#B80000" stroke-linecap="round" stroke-linejoin="round"/>
<path d="M76.9272 77.5542C77.2132 81.1326 62.2636 81.1084 50.4272 82.0542C38.5909 83 32.1953 82.6125 31.9093 79.034C31.6234 75.4556 40.9869 71.788 52.8233 70.8421C64.6597 69.8963 76.6413 73.9758 76.9272 77.5542Z" fill="#848B94" fill-opacity="0.21"/>
<path d="M52.7034 18.5C61.5582 18.5 69.2852 22.6369 73.3986 28.7786C74.8771 30.9862 76.4298 33.1786 78.18 35.1776C82.115 39.6718 84.5 45.5572 84.5 52C84.5 66.1113 73.0605 77.5508 58.9492 77.5508C57.1984 77.5508 54.4937 77.7767 52.7349 77.9436C51.5804 78.0531 50.4196 78.0531 49.2651 77.9436C47.5063 77.7767 44.8015 77.5508 43.0508 77.5508C28.9395 77.5508 17.5 66.1113 17.5 52C17.5 43.4876 21.663 35.9483 28.0639 31.3052C30.3998 29.6108 32.5721 27.6569 34.6159 25.6197C38.9892 21.2607 45.47 18.5 52.7034 18.5Z" fill="#FD9983"/>
<circle cx="46.5" cy="42.5" r="2" fill="black"/>
<circle cx="59.5" cy="42.5" r="2" fill="black"/>
<g filter="url(#filter1_f_959_3067)">
<ellipse cx="64" cy="46" rx="3.5" ry="2.5" fill="#FF2E00" fill-opacity="0.2"/>
</g>
<g filter="url(#filter2_f_959_3067)">
<ellipse cx="43" cy="46" rx="3.5" ry="2.5" fill="#FF2E00" fill-opacity="0.2"/>
</g>
<path d="M46.5 35.5L50.5 39.5" stroke="black" stroke-linecap="round" stroke-linejoin="round"/>
<path d="M59.5 35.5L55.5 39.5" stroke="black" stroke-linecap="round" stroke-linejoin="round"/>
<path d="M32.2098 25.9959C32.2582 27.7673 33.2177 30.6887 36.6684 28.2026" stroke="#FF4A23" stroke-width="1.53678" stroke-linecap="round" stroke-linejoin="round"/>
<path d="M29.5031 26.9103C30.5389 28.3481 31.5478 31.2528 27.2964 31.3689" stroke="#FF4A23" stroke-width="1.53678" stroke-linecap="round" stroke-linejoin="round"/>
<path d="M35.4071 35.4598C34.3712 34.022 33.3624 31.1173 37.6138 31.0012" stroke="#FF4A23" stroke-width="1.53678" stroke-linecap="round" stroke-linejoin="round"/>
<path d="M32.7003 36.3742C32.6519 34.6028 31.6925 31.6815 28.2417 34.1675" stroke="#FF4A23" stroke-width="1.53678" stroke-linecap="round" stroke-linejoin="round"/>
<path d="M67.2945 21.9782C67.3717 21.1398 66.4414 20.5871 65.742 21.0559L63.4966 22.5607C63.182 22.7716 63.0758 23.1849 63.2498 23.5213C63.8253 24.6335 64.973 25.3319 66.2253 25.3319L66.2864 25.3319C66.6827 25.3319 67.0137 25.03 67.05 24.6354L67.2945 21.9782Z" fill="#B80000"/>
<path d="M40.268 21.9782C40.1908 21.1398 41.1211 20.5871 41.8205 21.0559L44.0659 22.5607C44.3805 22.7716 44.4867 23.1849 44.3127 23.5213C43.7372 24.6335 42.5895 25.3319 41.3372 25.3319L41.2761 25.3319C40.8798 25.3319 40.5488 25.03 40.5125 24.6354L40.268 21.9782Z" fill="#B80000"/>
<path d="M13.6921 49.5L11.5828 48.9326L12.6594 51.0368L13.6921 49.5Z" fill="#B80000" stroke="#B80000" stroke-linecap="round" stroke-linejoin="round"/>
<path d="M54.8811 49.1498C54.7738 49.2709 54.5745 49.221 54.5369 49.0635L54.2465 47.845C54.2117 47.699 54.3441 47.5682 54.4897 47.6047L55.6111 47.8859C55.7567 47.9224 55.8117 48.1002 55.7121 48.2125L54.8811 49.1498Z" fill="white"/>
<path d="M56.0723 48.0996C55.5893 47.5318 53.7972 46.8057 50.4926 48.4426" stroke="black" stroke-linecap="round" stroke-linejoin="round"/>
<defs>
<filter id="filter0_d_959_3067" x="0.5" y="0.5" width="102" height="102" filterUnits="userSpaceOnUse" color-interpolation-filters="sRGB">
<feFlood flood-opacity="0" result="BackgroundImageFix"/>
<feColorMatrix in="SourceAlpha" type="matrix" values="0 0 0 0 0 0 0 0 0 0 0 0 0 0 0 0 0 0 127 0" result="hardAlpha"/>
<feOffset dy="2"/>
<feGaussianBlur stdDeviation="3.5"/>
<feComposite in2="hardAlpha" operator="out"/>
<feColorMatrix type="matrix" values="0 0 0 0 0 0 0 0 0 0 0 0 0 0 0 0 0 0 0.05 0"/>
<feBlend mode="normal" in2="BackgroundImageFix" result="effect1_dropShadow_959_3067"/>
<feBlend mode="normal" in="SourceGraphic" in2="effect1_dropShadow_959_3067" result="shape"/>
</filter>
<filter id="filter1_f_959_3067" x="58.5" y="41.5" width="11" height="9" filterUnits="userSpaceOnUse" color-interpolation-filters="sRGB">
<feFlood flood-opacity="0" result="BackgroundImageFix"/>
<feBlend mode="normal" in="SourceGraphic" in2="BackgroundImageFix" result="shape"/>
<feGaussianBlur stdDeviation="1" result="effect1_foregroundBlur_959_3067"/>
</filter>
<filter id="filter2_f_959_3067" x="37.5" y="41.5" width="11" height="9" filterUnits="userSpaceOnUse" color-interpolation-filters="sRGB">
<feFlood flood-opacity="0" result="BackgroundImageFix"/>
<feBlend mode="normal" in="SourceGraphic" in2="BackgroundImageFix" result="shape"/>
<feGaussianBlur stdDeviation="1" result="effect1_foregroundBlur_959_3067"/>
</filter>
</defs>
</svg>
