<svg width="103" height="103" viewBox="0 0 103 103" fill="none" xmlns="http://www.w3.org/2000/svg">

    <g transform="translate(51.5, 49.5) scale(1.3) translate(-51.5, -49.5)">

        <path d="M78.0005 75C78.2864 78.5784 63.3369 78.5542 51.5005 79.5C39.6641 80.4458 33.2685 80.0583 32.9826 76.4798C32.6966 72.9014 42.0601 69.2338 53.8965 68.2879C65.7329 67.3421 77.7145 71.4216 78.0005 75Z" fill="#848B94" fill-opacity="0.21"/>

        <path d="M52.7034 16.5C61.5582 16.5 69.2852 20.6369 73.3986 26.7786C74.8771 28.9862 76.4298 31.1786 78.18 33.1776C82.115 37.6718 84.5 43.5572 84.5 50C84.5 64.1113 73.0605 75.5508 58.9492 75.5508C57.1984 75.5508 54.4937 75.7767 52.7349 75.9436C51.5804 76.0531 50.4196 76.0531 49.2651 75.9436C47.5063 75.7767 44.8015 75.5508 43.0508 75.5508C28.9395 75.5508 17.5 64.1113 17.5 50C17.5 41.4876 21.663 33.9483 28.0639 29.3052C30.3998 27.6108 32.5721 25.6569 34.6159 23.6197C38.9892 19.2607 45.47 16.5 52.7034 16.5Z" fill="#9EFFED"/>

        <circle cx="45.5" cy="46.5" r="2" fill="black"/>

        <path d="M60.5 44.5L57.5 46.8096L60.5 48.5" stroke="black" stroke-width="1.5" stroke-linecap="round" stroke-linejoin="round"/>

        <path d="M48.5146 50.7715L55.2003 49.8718L55.029 54.0419C53.6089 55.2943 51.6114 55.656 49.8423 54.9811L48.5146 50.7715Z" fill="white"/>
        <path d="M51.3541 57.2475L53.96 56.2301L54.8572 53.2878L54.3298 53.2742C53.0252 53.2407 51.7322 53.5269 50.5636 54.1077L50.4478 54.1653L51.3541 57.2475Z" fill="#FF7C7C"/>
        <path d="M54.4152 49.9307L49.7864 50.6107C49.1883 50.6986 48.8037 51.2923 48.9962 51.8654C49.8213 54.3222 51.3343 57.6558 52.7564 57.0572C54.115 56.4853 55.0517 53.3454 55.5113 51.0543C55.6428 50.399 55.0765 49.8336 54.4152 49.9307Z" stroke="black" stroke-linecap="round" stroke-linejoin="round"/>

        <path d="M65.8492 39.9697L67.9469 41.0518L65.6195 41.4447L64.5374 43.5424L64.1444 41.215L62.0468 40.1329L64.3742 39.74L65.5711 36.9048L65.8492 39.9697Z" fill="#FFDE55" stroke="#FFDE55" stroke-linecap="round" stroke-linejoin="round"/>
        <path d="M70.0018 44.2714L71.3749 44.9797L69.8514 45.2369L69.143 46.61L68.8858 45.0865L67.5127 44.3782L69.0362 44.121L69.8197 42.2651L70.0018 44.2714Z" fill="#FFDE55" stroke="#FFDE55" stroke-width="0.654588" stroke-linecap="round" stroke-linejoin="round"/>

        <ellipse cx="42" cy="50" rx="3.5" ry="2.5" fill="#1BFFD5" fill-opacity="0.8"/>
        <ellipse cx="63" cy="50" rx="3.5" ry="2.5" fill="#1BFFD5" fill-opacity="0.8"/>

    </g>

</svg>