<svg width="103" height="103" viewBox="0 0 103 103" fill="none" xmlns="http://www.w3.org/2000/svg">
    <g transform="translate(51.5, 49.5) scale(1.3) translate(-51.5, -49.5)">

        <path d="M78.0005 77C78.2864 80.5784 63.3369 80.5542 51.5005 81.5C39.6641 82.4458 33.2685 82.0583 32.9826 78.4798C32.6966 74.9014 42.0601 71.2338 53.8965 70.2879C65.7329 69.3421 77.7145 73.4216 78.0005 77Z" fill="#848B94" fill-opacity="0.21"/>

        <path d="M52.7034 18.5C61.5582 18.5 69.2852 22.6369 73.3986 28.7786C74.8771 30.9862 76.4298 33.1786 78.18 35.1776C82.115 39.6718 84.5 45.5572 84.5 52C84.5 66.1113 73.0605 77.5508 58.9492 77.5508C57.1984 77.5508 54.4937 77.7767 52.7349 77.9436C51.5804 78.0531 50.4196 78.0531 49.2651 77.9436C47.5063 77.7767 44.8015 77.5508 43.0508 77.5508C28.9395 77.5508 17.5 66.1113 17.5 52C17.5 43.4876 21.663 35.9483 28.0639 31.3052C30.3998 29.6108 32.5721 27.6569 34.6159 25.6197C38.9892 21.2607 45.47 18.5 52.7034 18.5Z" fill="#FDC7E1"/>

        <circle cx="38.5" cy="48.5" r="2" fill="black"/>
        <circle cx="51.5" cy="48.5" r="2" fill="black"/>

        <path d="M40.5 52.5C42.1144 54.0092 46.1745 56.1222 49.5 52.5" stroke="black" stroke-linecap="round" stroke-linejoin="round"/>

        <path d="M47.4178 32.0061C43.9892 31.7139 41.2869 33.9198 40.6667 36.0791C40.0465 38.2383 40.7867 41.2987 43.1944 42.6393C45.6021 43.9799 49.9011 42.5044 49.5849 39.2136C49.3117 36.3706 46.9992 34.6499 44.6262 36.2114C42.7381 38.0091 43.5392 39.8785 45.3115 39.5786" stroke="#FF85C0" stroke-linecap="round" stroke-linejoin="round"/>

        <path d="M20.584 53.5605C22.0955 53.1888 23.7617 54.5595 24.5391 56.7012C25.6424 54.4283 27.7147 53.1531 29.2471 53.8379C30.8261 54.544 31.2356 57.0652 30.1611 59.4697C29.9044 60.0443 29.5847 60.5591 29.2275 61.002C29.9611 62.0132 30.3926 63.2436 30.3926 64.5723C30.3925 68.0126 27.5066 70.8018 23.9463 70.8018C20.3861 70.8017 17.5 68.0125 17.5 64.5723C17.5 62.9488 18.1424 61.4701 19.1953 60.3613C18.9825 59.9272 18.8071 59.4502 18.6816 58.9404C18.0521 56.3828 18.9042 53.974 20.584 53.5605Z" fill="#FDC7E1"/>
        <path d="M20.584 53.5605L20.3451 52.5895L20.345 52.5895L20.584 53.5605ZM24.5391 56.7012L23.5991 57.0424L24.4059 59.2652L25.4387 57.1379L24.5391 56.7012ZM29.2471 53.8379L29.6553 52.925L29.655 52.9249L29.2471 53.8379ZM30.1611 59.4697L31.0741 59.8777L31.0741 59.8777L30.1611 59.4697ZM29.2275 61.002L28.4492 60.3741L27.9688 60.9697L28.4181 61.5891L29.2275 61.002ZM30.3926 64.5723L31.3926 64.5723V64.5723H30.3926ZM23.9463 70.8018L23.9463 71.8018H23.9463V70.8018ZM17.5 64.5723H16.5V64.5723L17.5 64.5723ZM19.1953 60.3613L19.9204 61.05L20.3994 60.5456L20.0932 59.9211L19.1953 60.3613ZM18.6816 58.9404L17.7106 59.1794L17.7106 59.1794L18.6816 58.9404ZM20.584 53.5605L20.8228 54.5316C21.1914 54.441 21.6736 54.537 22.2109 54.9682C22.7471 55.3986 23.2617 56.113 23.5991 57.0424L24.5391 56.7012L25.4791 56.36C25.039 55.1476 24.3318 54.1059 23.4627 53.4084C22.5947 52.7118 21.4881 52.3084 20.3451 52.5895L20.584 53.5605ZM24.5391 56.7012L25.4387 57.1379C25.9196 56.1472 26.5927 55.4171 27.2532 55.014C27.9198 54.6071 28.4667 54.5845 28.8391 54.7509L29.2471 53.8379L29.655 52.9249C28.4951 52.4066 27.2396 52.6792 26.2112 53.3069C25.1766 53.9383 24.2619 54.9823 23.6395 56.2645L24.5391 56.7012ZM29.2471 53.8379L28.8389 54.7508C29.2219 54.9221 29.5805 55.3666 29.7121 56.1771C29.842 56.9777 29.7173 58.0119 29.2481 59.0617L30.1611 59.4697L31.0741 59.8777C31.6795 58.523 31.8872 57.0944 31.6862 55.8567C31.4869 54.6289 30.8512 53.4598 29.6553 52.925L29.2471 53.8379ZM30.1611 59.4697L29.2481 59.0617C29.0265 59.5577 28.7521 59.9986 28.4492 60.3741L29.2275 61.002L30.0059 61.6298C30.4174 61.1196 30.7823 60.5308 31.0741 59.8777L30.1611 59.4697ZM29.2275 61.002L28.4181 61.5891C29.0338 62.4379 29.3926 63.4646 29.3926 64.5723H30.3926H31.3926C31.3926 63.0226 30.8883 61.5884 30.037 60.4148L29.2275 61.002ZM30.3926 64.5723L29.3926 64.5723C29.3926 67.4283 26.9868 69.8018 23.9463 69.8018V70.8018V71.8018C28.0264 71.8018 31.3925 68.5968 31.3926 64.5723L30.3926 64.5723ZM23.9463 70.8018L23.9463 69.8018C20.9059 69.8017 18.5 67.4283 18.5 64.5723L17.5 64.5723L16.5 64.5723C16.5 68.5968 19.8663 71.8016 23.9463 71.8018L23.9463 70.8018ZM17.5 64.5723H18.5C18.5 63.2193 19.0339 61.9834 19.9204 61.05L19.1953 60.3613L18.4702 59.6727C17.2508 60.9567 16.5 62.6783 16.5 64.5723H17.5ZM19.1953 60.3613L20.0932 59.9211C19.9121 59.5517 19.7611 59.1421 19.6527 58.7014L18.6816 58.9404L17.7106 59.1794C17.8531 59.7583 18.0529 60.3028 18.2974 60.8015L19.1953 60.3613ZM18.6816 58.9404L19.6527 58.7014C19.3778 57.5848 19.4392 56.5447 19.7096 55.7798C19.9835 55.0055 20.4156 54.6318 20.823 54.5316L20.584 53.5605L20.345 52.5895C19.0726 52.9027 18.2388 53.9402 17.824 55.113C17.4059 56.2954 17.356 57.7385 17.7106 59.1794L18.6816 58.9404Z" fill="#FF9FCD" /> <ellipse cx="33" cy="51" rx="3.5" ry="2.5" fill="#FF85C0" fill-opacity="0.8"/>
        <ellipse cx="57" cy="51" rx="3.5" ry="2.5" fill="#FF85C0" fill-opacity="0.8"/>

    </g>

</svg>