<svg width="56" height="56" viewBox="0 0 56 56" fill="none" xmlns="http://www.w3.org/2000/svg">
<rect width="56" height="56" rx="28" fill="#FB8546"/>
<path d="M21.458 23C20.1674 23 19.0374 23.9335 18.333 24.95C17.6286 23.9335 16.4986 23 15.208 23C14.1806 23.0013 13.1957 23.444 12.4692 24.2312C11.7428 25.0184 11.3342 26.0857 11.333 27.1989C11.333 31.9396 17.8199 35.7769 18.0961 35.9353C18.1689 35.9778 18.2503 36 18.333 36C18.4157 36 18.4971 35.9778 18.5699 35.9353C18.8461 35.7769 25.333 31.9396 25.333 27.1989C25.3318 26.0857 24.9232 25.0184 24.1968 24.2312C23.4703 23.444 22.4854 23.0013 21.458 23Z" fill="white"/>
<path d="M40.458 23C39.1674 23 38.0374 23.9335 37.333 24.95C36.6286 23.9335 35.4986 23 34.208 23C33.1806 23.0013 32.1957 23.444 31.4692 24.2312C30.7428 25.0184 30.3342 26.0857 30.333 27.1989C30.333 31.9396 36.8199 35.7769 37.0961 35.9353C37.1689 35.9778 37.2503 36 37.333 36C37.4157 36 37.4971 35.9778 37.5699 35.9353C37.8461 35.7769 44.333 31.9396 44.333 27.1989C44.3318 26.0857 43.9232 25.0184 43.1968 24.2312C42.4703 23.444 41.4854 23.0013 40.458 23Z" fill="white"/>
<path d="M14.333 18.1846C15.8193 17.4689 19.5538 16.3279 22.6017 17.4898" stroke="white" stroke-width="3" stroke-linecap="round"/>
<path d="M41.5684 18.0322C40.0074 17.4379 36.16 16.5988 33.2581 17.9976" stroke="white" stroke-width="3" stroke-linecap="round"/>
</svg>
