<svg width="360" height="242" viewBox="0 0 360 242" fill="none" xmlns="http://www.w3.org/2000/svg">
<g clip-path="url(#clip0_3305_28969)">
<path d="M-69.107 9C173.145 38.2943 373.153 21.206 442.875 9V108H-82.125L-69.107 9Z" fill="#78BDEC"/>
<path d="M-69.107 13C173.145 42.2943 373.153 25.206 442.875 13V112H-82.125L-69.107 13Z" fill="#D1D6D9"/>
<path d="M-69.107 19C173.145 48.2943 373.153 31.206 442.875 19V118H-82.125L-69.107 19Z" fill="#B9BDC0"/>
<path d="M-69.107 45C173.145 74.5902 373.153 57.3293 442.875 45V145H-82.125L-69.107 45Z" fill="#163355"/>
<path d="M-69.107 58C173.145 87.2943 373.153 70.206 442.875 58V157H-82.125L-69.107 58Z" fill="#265291"/>
<path d="M403.938 104C344.699 101.736 174.764 98.5667 -31.0625 104" stroke="#4374B5" stroke-width="3.665"/>
<path d="M403.938 79C344.699 84.2824 174.764 91.6777 -31.0625 79" stroke="#4374B5" stroke-width="3.665"/>
<path d="M411.157 134.984C276.694 97.8541 68.9294 115.285 -18.1452 128.641L-44.652 198.408L32.7776 318.261L425.254 267.225L411.157 134.984Z" fill="#1F405B"/>
<path d="M411.157 139.963C276.694 102.833 68.9294 120.264 -18.1452 133.62L-44.652 203.387L32.7776 323.24L425.254 272.204L411.157 139.963Z" fill="#F7B17B"/>
<path d="M411.157 151.723C276.694 114.593 68.9294 132.024 -18.1452 145.38L-44.652 215.147L32.7776 335L425.254 283.964L411.157 151.723Z" fill="#3D9D4E"/>
<path d="M13.1188 169.595C165.572 127.033 310.95 151.832 364.713 169.588C364.785 169.612 364.86 169.606 364.928 169.574L400.087 153.39C400.175 153.349 400.283 153.355 400.365 153.405L412.076 160.512C412.242 160.613 412.228 160.832 412.05 160.916L266.831 229.563C272.27 234.525 275.318 240.09 275.318 245.969C275.318 266.823 236.968 283.727 189.66 283.727C142.353 283.727 104.002 266.823 104.002 245.969C104.002 239.476 107.72 233.366 114.269 228.03L-17.0088 167.967C-17.1884 167.885 -17.4032 167.999 -17.4033 168.177V169.449C-17.4033 169.553 -17.4805 169.645 -17.5937 169.675L-30.0041 173.027C-30.1775 173.074 -30.3531 172.96 -30.3531 172.8V151.509C-30.3531 151.334 -30.1448 151.219 -29.9656 151.295L12.9187 169.582C12.9809 169.609 13.0529 169.613 13.1188 169.595Z" fill="#F7B17B"/>
<path d="M293.068 178.344C291.457 181.063 291.024 183.726 292.054 186.056C294.13 190.755 301.629 192.924 311.108 192.276L234.616 222.49C221.876 218.034 205.79 215.374 188.304 215.374C171.833 215.374 156.605 217.735 144.245 221.734L71.9427 192.263C78.2891 191.745 83.0117 189.633 84.5922 186.056C85.5625 183.86 85.2336 181.369 83.8441 178.813L160.487 161.488C168.472 163.816 178.03 165.173 188.304 165.173C198.994 165.173 208.91 163.703 217.084 161.2L293.068 178.344Z" fill="#3D9D4E"/>
<ellipse cx="189.915" cy="156.643" rx="9.91477" ry="3.08228" fill="white"/>
<ellipse cx="189.593" cy="185.924" rx="26.3719" ry="8.1799" fill="white"/>
<path d="M191.318 246.14C190.292 246.731 189.029 246.731 188.004 246.14L179.891 241.46C178.802 240.832 178.162 239.642 178.238 238.387L178.289 237.549C178.395 235.799 179.845 234.433 181.599 234.433L197.722 234.433C199.476 234.433 200.926 235.799 201.032 237.549L201.083 238.387C201.159 239.642 200.519 240.832 199.43 241.46L191.318 246.14Z" fill="white"/>
<path d="M168.809 250.374L172.711 231.63C172.756 231.414 172.591 231.21 172.369 231.21H142.78C142.657 231.21 142.543 231.275 142.48 231.38L131.296 250.124C131.157 250.357 131.325 250.652 131.596 250.652H168.468C168.633 250.652 168.776 250.536 168.809 250.374Z" stroke="white" stroke-width="5" stroke-linejoin="round"/>
<path d="M210.511 250.374L206.61 231.63C206.565 231.414 206.73 231.21 206.951 231.21H236.54C236.663 231.21 236.777 231.275 236.84 231.38L248.025 250.124C248.163 250.357 247.996 250.652 247.725 250.652H210.853C210.688 250.652 210.545 250.536 210.511 250.374Z" stroke="white" stroke-width="5" stroke-linejoin="round"/>
<path d="M213 231L383 160" stroke="white" stroke-width="5" stroke-linejoin="round"/>
<path d="M169 231L-11.0001 162" stroke="white" stroke-width="5" stroke-linejoin="round"/>
<path d="M63.9884 26.3902C65.3967 26.9291 65.3967 28.9215 63.9884 29.4604L40.981 38.2651C39.9048 38.6769 38.7498 37.8823 38.7498 36.73L38.7498 19.1206C38.7498 17.9683 39.9048 17.1736 40.981 17.5855L63.9884 26.3902Z" fill="#F44F4C"/>
<rect x="36.1719" y="15.5977" width="5.22989" height="46.6207" rx="2.61494" fill="#163355"/>
<rect width="4.25075" height="35.8573" rx="2.12537" transform="matrix(0.998614 0.0578992 0 1 285.203 88.8966)" fill="#CACECE"/>
<rect width="4.25075" height="35.8573" rx="2.12537" transform="matrix(0.998614 0.0578992 0 1 242.4 86.4149)" fill="#CACECE"/>
<rect width="64.1144" height="29.4005" rx="5.31335" transform="matrix(0.99863 0.052336 0 1 234.795 79.2861)" fill="#9BA1AB"/>
<rect width="64.1144" height="29.4005" rx="5.31335" transform="matrix(0.99863 0.052336 0 1 233.911 78)" fill="white"/>
<rect width="4.25075" height="35.8573" rx="2.12537" transform="matrix(-0.998614 0.0578992 0 1 74.6187 88.8966)" fill="#CACECE"/>
<rect width="4.25075" height="35.8573" rx="2.12537" transform="matrix(-0.998614 0.0578992 0 1 117.421 86.4149)" fill="#CACECE"/>
<rect width="64.1144" height="29.4005" rx="5.31335" transform="matrix(-0.99863 0.052336 0 1 125.026 79.2861)" fill="#9BA1AB"/>
<rect width="64.1144" height="29.4005" rx="5.31335" transform="matrix(-0.99863 0.052336 0 1 125.911 78)" fill="white"/>
</g>
<defs>
<clipPath id="clip0_3305_28969">
<rect width="360" height="242" fill="white"/>
</clipPath>
</defs>
</svg>
