<svg width="84" height="22" viewBox="0 0 84 22" fill="none" xmlns="http://www.w3.org/2000/svg">
<path d="M13.1487 8.89356V13.1065C13.1487 15.5293 11.6008 16.9023 9.25877 16.9023H5.54381C4.58815 16.9023 3.96899 16.3639 3.96899 15.3005V6.69958C3.96899 5.63624 4.58815 5.09784 5.54381 5.09784H9.25877C11.6008 5.09784 13.1487 6.48422 13.1487 8.89356ZM9.83755 12.5816V9.36466C9.83755 8.39554 9.40683 8.12634 8.47809 8.12634H7.44167V13.8468H8.47809C9.43375 13.8468 9.83755 13.5911 9.83755 12.5816Z" fill="#4A5260"/>
<path d="M25.5986 8.409V13.6046C25.5986 15.9466 23.9161 17.1311 21.8029 17.1311H20.4165C18.3302 17.1311 16.6477 15.9466 16.6477 13.6046V8.409C16.6477 6.04004 18.3302 4.86902 20.4165 4.86902H21.8029C23.9161 4.86902 25.5986 6.04004 25.5986 8.409ZM22.2605 12.7297V9.2839C22.2605 8.46284 21.8298 8.08596 21.3048 8.08596H20.9145C20.4165 8.08596 19.9858 8.46284 19.9858 9.2839V12.7297C19.9858 13.5373 20.4165 13.9007 20.9145 13.9007H21.3048C21.8298 13.9007 22.2605 13.5373 22.2605 12.7297Z" fill="#4A5260"/>
<path d="M38.5518 8.89356V13.1065C38.5518 15.5293 37.0039 16.9023 34.6619 16.9023H30.9469C29.9913 16.9023 29.3721 16.3639 29.3721 15.3005V6.69958C29.3721 5.63624 29.9913 5.09784 30.9469 5.09784H34.6619C37.0039 5.09784 38.5518 6.48422 38.5518 8.89356ZM35.2407 12.5816V9.36466C35.2407 8.39554 34.81 8.12634 33.8812 8.12634H32.8448V13.8468H33.8812C34.8369 13.8468 35.2407 13.5911 35.2407 12.5816Z" fill="#4A5260"/>
<path d="M45.6006 5.09784H48.7098C49.8674 5.09784 49.9078 5.59586 50.1097 6.28232L52.8959 16.0408C53.017 16.4715 53.0843 16.9023 52.3575 16.9023H50.3116C49.7328 16.9023 49.4636 16.8619 49.3424 16.3773L49.0329 15.2332H45.2775L44.9814 16.3773C44.8603 16.8619 44.5911 16.9023 44.0123 16.9023H41.9664C41.2395 16.9023 41.3068 16.4715 41.428 16.0408L44.1738 6.26886C44.3757 5.54202 44.4565 5.09784 45.6006 5.09784ZM46.8523 9.2166L46.0582 12.2451H48.2387L47.4311 9.2166H46.8523Z" fill="#4A5260"/>
<path d="M65.6112 8.89356V13.1065C65.6112 15.5293 64.0633 16.9023 61.7212 16.9023H58.0063C57.0506 16.9023 56.4314 16.3639 56.4314 15.3005V6.69958C56.4314 5.63624 57.0506 5.09784 58.0063 5.09784H61.7212C64.0633 5.09784 65.6112 6.48422 65.6112 8.89356ZM62.3 12.5816V9.36466C62.3 8.39554 61.8693 8.12634 60.9405 8.12634H59.9041V13.8468H60.9405C61.8962 13.8468 62.3 13.5911 62.3 12.5816Z" fill="#4A5260"/>
<path d="M72.6599 5.09784H75.7692C76.9267 5.09784 76.9671 5.59586 77.169 6.28232L79.9552 16.0408C80.0764 16.4715 80.1437 16.9023 79.4168 16.9023H77.3709C76.7921 16.9023 76.5229 16.8619 76.4018 16.3773L76.0922 15.2332H72.3369L72.0407 16.3773C71.9196 16.8619 71.6504 16.9023 71.0716 16.9023H69.0257C68.2989 16.9023 68.3662 16.4715 68.4873 16.0408L71.2331 6.26886C71.435 5.54202 71.5158 5.09784 72.6599 5.09784ZM73.9117 9.2166L73.1175 12.2451H75.2981L74.4905 9.2166H73.9117Z" fill="#4A5260"/>
</svg>
