<svg width="29" height="28" viewBox="0 0 29 28" fill="none" xmlns="http://www.w3.org/2000/svg">
<rect x="1" y="0.5" width="27" height="27" rx="13.5" stroke="#D9E0E7"/>
<path d="M14.5 9.87695C14.8595 9.87695 15.151 10.1684 15.151 10.528V13.349H17.965C18.3284 13.349 18.623 13.6436 18.623 14.007C18.623 14.3704 18.3284 14.665 17.965 14.665H15.151V17.472C15.151 17.8315 14.8595 18.123 14.5 18.123C14.1404 18.123 13.849 17.8315 13.849 17.472V14.665H11.035C10.6715 14.665 10.377 14.3704 10.377 14.007C10.377 13.6436 10.6715 13.349 11.035 13.349H13.849V10.528C13.849 10.1684 14.1404 9.87695 14.5 9.87695Z" fill="#B7C1C9"/>
</svg>
