<svg width="49" height="49" viewBox="0 0 49 49" fill="none" xmlns="http://www.w3.org/2000/svg">
<path d="M14.2099 5.00825C11.9055 6.05028 6.22655 12.7526 3.82617 16.1205C17.6919 16.3713 45.2943 16.7223 44.7783 16.1205C44.1334 15.3683 37.2132 6.7157 34.3926 5.00806C31.8811 3.48765 16.9802 3.75557 14.2099 5.00825Z" fill="#AEB4C9"/>
<path d="M14.1446 4.95117L24.2484 23.9763L16.9393 31.1777C12.5683 27.1291 3.78344 18.3869 3.61146 15.8072C3.43948 13.2275 10.5619 7.49499 14.1446 4.95117Z" fill="#596586"/>
<path d="M34.3525 4.95117L24.2487 23.9763L31.5578 31.1777C35.9287 27.1291 44.7136 18.3869 44.8856 15.8072C45.0576 13.2275 37.9352 7.49499 34.3525 4.95117Z" fill="#596586"/>
<circle cx="24.2494" cy="34.6703" r="10.9096" fill="#AEB4C9"/>
<path d="M23.4956 29.1633C23.7507 28.4608 24.7442 28.4608 24.9994 29.1633L26.1194 32.2466C26.2309 32.5535 26.5176 32.7618 26.8439 32.773L30.1224 32.8854C30.8694 32.911 31.1764 33.8559 30.5871 34.3156L28.0008 36.3336C27.7434 36.5344 27.6339 36.8715 27.7241 37.1853L28.6303 40.3381C28.8368 41.0564 28.033 41.6404 27.4137 41.222L24.6953 39.3859C24.4247 39.2031 24.0703 39.2031 23.7997 39.3859L21.0813 41.222C20.462 41.6404 19.6582 41.0564 19.8647 40.3381L20.7709 37.1853C20.8611 36.8715 20.7516 36.5344 20.4941 36.3336L17.9079 34.3156C17.3186 33.8559 17.6256 32.911 18.3726 32.8854L21.6511 32.773C21.9773 32.7618 22.2641 32.5535 22.3756 32.2466L23.4956 29.1633Z" fill="#596586"/>
</svg>
