<svg width="53" height="52" viewBox="0 0 53 52" fill="none" xmlns="http://www.w3.org/2000/svg">
<path d="M15.6241 4.58779C13.1276 5.71666 6.97541 12.9775 4.375 16.6261C19.3962 16.8977 49.2988 17.278 48.7399 16.6261C48.0412 15.8112 40.5443 6.43753 37.4886 4.58759C34.7679 2.94047 18.6252 3.23073 15.6241 4.58779Z" fill="#E6F3FF"/>
<path d="M15.5529 4.52588L26.4987 25.1364L18.5805 32.938C13.8453 28.552 4.3283 19.0812 4.14199 16.2866C3.95568 13.4919 11.6716 7.28168 15.5529 4.52588Z" fill="#4F7599"/>
<path d="M37.4452 4.52588L26.4994 25.1364L34.4176 32.938C39.1528 28.552 48.6698 19.0812 48.8561 16.2866C49.0424 13.4919 41.3264 7.28168 37.4452 4.52588Z" fill="#4F7599"/>
<circle cx="26.4984" cy="36.7221" r="11.8187" fill="#E6F3FF"/>
<path d="M25.6835 30.7557C25.9599 29.9947 27.0362 29.9947 27.3127 30.7557L28.526 34.096C28.6468 34.4284 28.9574 34.6541 29.3109 34.6662L32.8626 34.788C33.6718 34.8157 34.0044 35.8394 33.366 36.3374L30.5642 38.5236C30.2854 38.7411 30.1667 39.1063 30.2644 39.4463L31.2462 42.8617C31.4698 43.6399 30.5991 44.2725 29.9281 43.8193L26.9832 41.8302C26.6901 41.6322 26.3061 41.6322 26.013 41.8302L23.0681 43.8193C22.3971 44.2725 21.5263 43.6399 21.75 42.8617L22.7318 39.4463C22.8295 39.1063 22.7108 38.7411 22.432 38.5236L19.6302 36.3374C18.9918 35.8394 19.3244 34.8157 20.1336 34.788L23.6853 34.6662C24.0388 34.6541 24.3494 34.4284 24.4702 34.096L25.6835 30.7557Z" fill="#4F7599"/>
</svg>
