<svg width="49" height="49" viewBox="0 0 49 49" fill="none" xmlns="http://www.w3.org/2000/svg">
<path d="M15.0621 43.0417L11.1731 33.2675C10.9309 32.6589 11.3793 31.998 12.0342 31.998H16.0969C16.4775 31.998 16.8194 32.2308 16.9591 32.5849L20.8137 42.3591C21.0535 42.9673 20.6053 43.6259 19.9515 43.6259H15.9233C15.5437 43.6259 15.2025 43.3944 15.0621 43.0417Z" fill="#566483"/>
<path d="M11.0772 13.1537L28.6016 5.92041V39.3363L11.0774 33.1436L9.15039 23.1879L11.0772 13.1537Z" fill="#AEB4C9"/>
<path d="M2.26296 19.4629C3.51694 16.6 6.22583 14.7556 9.19244 13.7719L11.1993 13.1064C11.1993 13.1064 9.93755 19.2768 9.94346 23.2467C9.94925 27.1347 11.1993 33.1768 11.1993 33.1768L9.94432 32.8695C6.51348 32.0293 3.3006 30.0631 2.00749 26.7761C1.5668 25.6559 1.24899 24.4821 1.24899 23.4265C1.249 22.1759 1.69501 20.7595 2.26296 19.4629Z" fill="#566483"/>
<ellipse cx="28.6006" cy="22.6283" rx="6.03418" ry="16.7079" fill="#566483"/>
<path d="M22.9836 28.3949C23.7014 28.3949 23.9948 28.2491 24.658 28.0125C25.3211 27.7759 25.9237 27.4291 26.4313 26.9919C26.9388 26.5547 27.3415 26.0357 27.6162 25.4645C27.8908 24.8933 28.0322 24.281 28.0322 23.6628C28.0322 23.0445 27.8908 22.4322 27.6162 21.861C27.3415 21.2898 26.9388 20.7708 26.4313 20.3336C25.9237 19.8964 25.3211 19.5496 24.658 19.313C23.9948 19.0764 23.4118 18.75 22.694 18.75L22.5662 21.1157V23.6628L22.694 26.318L22.9836 28.3949Z" fill="#353E52"/>
<path d="M39.5778 16.8214L45.543 12.1135C45.7617 11.9409 46.0568 12.2 45.9139 12.4392L44.2552 15.2165C44.1839 15.3359 44.2233 15.4905 44.343 15.5613L46.3225 16.7314C46.479 16.8239 46.4883 17.047 46.3399 17.1522L40.2531 21.4682C40.0256 21.6295 39.7441 21.3551 39.8996 21.1236L42.469 17.2969C42.5904 17.1162 42.4398 16.8772 42.2244 16.9087L39.7695 17.2668C39.5154 17.3039 39.3762 16.9806 39.5778 16.8214Z" fill="#96A2BD"/>
<path d="M37.9257 27.4893L43.9812 25.6717C44.2481 25.5916 44.4273 25.9411 44.2064 26.111L42.1384 27.7024C42.0282 27.7872 42.008 27.9454 42.0932 28.0552L43.2713 29.5719C43.3828 29.7155 43.3094 29.9264 43.1328 29.9697L37.0401 31.4622C36.7692 31.5285 36.6084 31.1698 36.838 31.0117L39.9394 28.8766C40.1187 28.7532 40.0665 28.4756 39.8547 28.4256L37.9402 27.9739C37.6902 27.915 37.6797 27.5631 37.9257 27.4893Z" fill="#96A2BD"/>
</svg>
