<svg width="53" height="52" viewBox="0 0 53 52" fill="none" xmlns="http://www.w3.org/2000/svg">
<path d="M16.5494 45.7907L12.3363 35.2019C12.0739 34.5426 12.5596 33.8267 13.2692 33.8267H17.6704C18.0827 33.8267 18.4532 34.0788 18.6044 34.4624L22.7803 45.0511C23.0401 45.71 22.5545 46.4235 21.8462 46.4235H17.4823C17.0711 46.4235 16.7014 46.1728 16.5494 45.7907Z" fill="#354E66"/>
<path d="M12.23 13.4117L31.2148 5.57568V41.7762L12.2302 35.0675L10.1426 24.2822L12.23 13.4117Z" fill="#E6F3FF"/>
<path d="M2.68242 20.247C4.0409 17.1455 6.97552 15.1475 10.1893 14.0818L12.3635 13.3608C12.3635 13.3608 10.9966 20.0454 11.003 24.3461C11.0092 28.5582 12.3635 35.1038 12.3635 35.1038L11.0039 34.7708C7.28715 33.8606 3.80653 31.7306 2.40566 28.1696C1.92824 26.9561 1.58395 25.6845 1.58395 24.5409C1.58396 23.1861 2.06713 21.6517 2.68242 20.247Z" fill="#4F7599"/>
<ellipse cx="31.2148" cy="23.6759" rx="6.53703" ry="18.1003" fill="#EFEFEF"/>
<path d="M25.1283 29.9233C25.9059 29.9233 26.2238 29.7653 26.9422 29.509C27.6606 29.2527 28.3134 28.877 28.8633 28.4033C29.4132 27.9297 29.8493 27.3674 30.1469 26.7486C30.4445 26.1298 30.5977 25.4666 30.5977 24.7968C30.5977 24.127 30.4445 23.4637 30.1469 22.8449C29.8493 22.2261 29.4132 21.6638 28.8633 21.1902C28.3134 20.7166 27.6606 20.3409 26.9422 20.0845C26.2238 19.8282 25.5922 19.4747 24.8145 19.4747L24.6762 22.0375V24.7968L24.8145 27.6733L25.1283 29.9233Z" fill="#354E66"/>
<path d="M43.107 17.3852L49.5694 12.285C49.8063 12.098 50.126 12.3787 49.9712 12.6378L48.1743 15.6466C48.097 15.7759 48.1397 15.9434 48.2693 16.02L50.4138 17.2877C50.5834 17.3879 50.5934 17.6296 50.4327 17.7435L43.8387 22.4192C43.5922 22.594 43.2873 22.2967 43.4557 22.0459L46.2392 17.9003C46.3707 17.7045 46.2076 17.4457 45.9742 17.4797L43.3147 17.8677C43.0394 17.9079 42.8886 17.5576 43.107 17.3852Z" fill="#6A9CCC"/>
<path d="M41.3154 28.9422L47.8756 26.9732C48.1647 26.8864 48.3588 27.265 48.1196 27.4491L45.8792 29.173C45.7598 29.2649 45.7379 29.4363 45.8303 29.5553L47.1065 31.1984C47.2273 31.3539 47.1478 31.5824 46.9564 31.6292L40.356 33.2462C40.0626 33.318 39.8883 32.9294 40.1371 32.7581L43.4969 30.4451C43.6911 30.3114 43.6347 30.0107 43.4051 29.9565L41.3311 29.4672C41.0603 29.4033 41.0489 29.0221 41.3154 28.9422Z" fill="#6A9CCC"/>
</svg>
