<svg width="49" height="49" viewBox="0 0 49 49" fill="none" xmlns="http://www.w3.org/2000/svg">
<path d="M29.8096 5.75195C32.5867 5.75195 34.8388 8.00312 34.8389 10.7803L34.8398 41.0781C34.8397 43.8552 32.5877 46.1064 29.8105 46.1064H9.88672C7.10976 46.1063 4.85855 43.8551 4.8584 41.0781L4.85938 15.208C4.85936 15.1604 4.86051 15.1129 4.8623 15.0654L12.8857 6.34375C13.6081 5.9587 14.4193 5.75195 15.251 5.75195H29.8096Z" fill="#ABB3CB"/>
<path d="M13.8258 12.5509C13.8258 13.9395 12.7001 15.0651 11.3115 15.0651L5.43218 15.0651C5.21304 15.0651 5.09879 14.8043 5.24737 14.6432L13.3898 5.81573C13.545 5.64745 13.826 5.75728 13.826 5.98621L13.8258 12.5509Z" fill="#626D81"/>
<path d="M37.7632 17.1545C38.3977 16.5396 39.4106 16.5554 40.0256 17.19L44.3704 21.673C44.9854 22.3076 44.9695 23.3205 44.3349 23.9355L30.2138 37.621C29.9571 37.8698 29.6245 38.0255 29.269 38.0632L24.2329 38.597C23.1994 38.7065 22.3373 37.8171 22.4792 36.7875L23.1705 31.7706C23.2193 31.4165 23.3853 31.0889 23.642 30.8401L37.7632 17.1545Z" fill="#626D81"/>
</svg>
