<svg width="53" height="52" viewBox="0 0 53 52" fill="none" xmlns="http://www.w3.org/2000/svg">
<path d="M32.5234 5.39307C35.532 5.39314 37.9706 7.8318 37.9707 10.8403L37.9717 43.6626C37.9718 46.6712 35.533 49.1107 32.5244 49.1108H10.9404C7.93175 49.1108 5.49213 46.6713 5.49219 43.6626L5.49316 15.6372C5.49315 15.586 5.49418 15.5349 5.49609 15.4839L14.1895 6.03369C14.9718 5.61682 15.8503 5.39307 16.751 5.39307H32.5234Z" fill="#E6F3FF"/>
<path d="M15.206 12.7588C15.206 14.263 13.9865 15.4825 12.4822 15.4825L6.11289 15.4825C5.87549 15.4825 5.75172 15.1999 5.91268 15.0254L14.7336 5.46228C14.9018 5.27998 15.2062 5.39896 15.2062 5.64696L15.206 12.7588Z" fill="#4F7599"/>
<path d="M41.1381 17.7459C41.8255 17.0796 42.9229 17.0968 43.5891 17.7842L48.2959 22.6409C48.9622 23.3283 48.945 24.4257 48.2575 25.0919L32.9597 39.9179C32.6815 40.1874 32.3212 40.3561 31.9361 40.3969L26.4803 40.9752C25.3607 41.0939 24.4268 40.1303 24.5805 39.0149L25.3294 33.58C25.3823 33.1963 25.5621 32.8414 25.8402 32.5719L41.1381 17.7459Z" fill="#4F7599"/>
</svg>
