<svg width="49" height="48" viewBox="0 0 49 48" fill="none" xmlns="http://www.w3.org/2000/svg">
<path d="M24.4999 6.90723C33.9641 6.90723 41.6363 12.7505 41.6364 19.9585C41.6362 19.9587 41.6359 19.9589 41.6355 19.9589H7.36421C7.36386 19.9589 7.36353 19.9587 7.36328 19.9585C7.36338 12.7505 15.0357 6.90723 24.4999 6.90723Z" fill="#E6F3FF"/>
<path d="M24.4999 41.0923C33.9641 41.0923 41.6363 37.0197 41.6364 31.996C41.6362 31.9958 41.6359 31.9957 41.6356 31.9957H7.36414C7.36384 31.9957 7.36354 31.9958 7.36328 31.996C7.36338 37.0197 15.0357 41.0923 24.4999 41.0923Z" fill="#E6F3FF"/>
<path d="M41.2432 22.1284C43.3687 22.1285 45.0918 23.8515 45.0918 25.9771C45.0918 28.1026 43.3687 29.8256 41.2432 29.8257H7.75684C5.63128 29.8256 3.90821 28.1026 3.9082 25.9771C3.9082 23.8515 5.63128 22.1285 7.75684 22.1284H29.4893C29.5254 22.1703 29.5656 22.2112 29.6113 22.2485C31.7234 23.9743 34.2978 25.9758 34.7852 25.9771C35.3538 25.9771 37.1733 23.7007 38.2676 22.1284H41.2432Z" fill="#4F7599"/>
<ellipse cx="18.2191" cy="12.7564" rx="1.28156" ry="1.49367" fill="#4F7599"/>
<ellipse cx="23.2191" cy="14.9268" rx="1.28156" ry="1.49367" fill="#4F7599"/>
<ellipse cx="27.4886" cy="11.2622" rx="1.28156" ry="1.49367" fill="#4F7599"/>
</svg>
