<svg width="49" height="49" viewBox="0 0 49 49" fill="none" xmlns="http://www.w3.org/2000/svg">
<path d="M24.2499 7.68066C33.7141 7.68066 41.3863 13.5239 41.3864 20.7319C41.3862 20.7322 41.3859 20.7323 41.3855 20.7323H7.11421C7.11386 20.7323 7.11353 20.7322 7.11328 20.7319C7.11338 13.5239 14.7857 7.68066 24.2499 7.68066Z" fill="#ABB4C9"/>
<path d="M24.2499 41.8657C33.7141 41.8657 41.3863 37.7932 41.3864 32.7694C41.3862 32.7692 41.3859 32.7691 41.3856 32.7691H7.11414C7.11384 32.7691 7.11354 32.7692 7.11328 32.7694C7.11338 37.7932 14.7857 41.8657 24.2499 41.8657Z" fill="#ABB4C9"/>
<path d="M40.9932 22.9019C43.1187 22.902 44.8418 24.6249 44.8418 26.7505C44.8418 28.8761 43.1187 30.599 40.9932 30.5991H7.50684C5.38128 30.599 3.65821 28.8761 3.6582 26.7505C3.6582 24.6249 5.38128 22.9019 7.50684 22.9019H29.2393C29.2754 22.9437 29.3156 22.9846 29.3613 23.022C31.4734 24.7478 34.0478 26.7492 34.5352 26.7505C35.1038 26.7505 36.9233 24.4741 38.0176 22.9019H40.9932Z" fill="#566483"/>
<ellipse cx="17.9681" cy="13.5298" rx="1.28156" ry="1.49367" fill="#566483"/>
<ellipse cx="22.9681" cy="15.7002" rx="1.28156" ry="1.49367" fill="#566483"/>
<ellipse cx="27.2386" cy="12.0357" rx="1.28156" ry="1.49367" fill="#566483"/>
</svg>
