<svg width="44" height="37" viewBox="0 0 44 37" fill="none" xmlns="http://www.w3.org/2000/svg">
<g clip-path="url(#clip0_2370_12122)">
<rect x="0.608398" y="0.609863" width="43.2836" height="36.327" rx="3.56653" fill="#A9B3CA"/>
<path d="M11.7893 16.1283C12.7262 15.1454 14.2948 15.1454 15.2316 16.1283L23.0493 24.3295C23.9387 25.2625 25.4096 25.3169 26.3655 24.4521L32.9504 18.4945C33.8561 17.675 35.2351 17.675 36.1408 18.4945L53.6408 34.3295C55.2542 35.7894 54.2218 38.4698 52.0461 38.4701H17.0451C16.7368 38.4701 16.4514 38.4162 16.1933 38.3195C15.6013 38.0978 15.015 37.7875 14.3828 37.7875H-3.30449C-5.39522 37.7873 -6.46773 35.2834 -5.02519 33.7699L11.7893 16.1283Z" fill="#566688"/>
<circle cx="34.5258" cy="9.95501" r="3.80511" fill="#566688"/>
</g>
<defs>
<clipPath id="clip0_2370_12122">
<rect x="0.608398" y="0.609863" width="43.2836" height="36.327" rx="7.13305" fill="white"/>
</clipPath>
</defs>
</svg>
